<?xml version="1.0" encoding="UTF-8"?>
<svg id="_图层_1" data-name="图层 1" xmlns="http://www.w3.org/2000/svg" viewBox="0 0 537.95 135.99">
  <defs>
    <style>
      .cls-1 {
        fill: #172a88;
      }
    </style>
  </defs>
  <path class="cls-1" d="M302.01,54.47c.26-1.55.15-3.28-.97-4.56-.91-1.05-2.28-1.55-3.69-1.32-.91.15-1.81.56-2.78,1.29-1.14.85-2.19,2.34-3.71,4.59h-55.9v7.08c-.91-.29-1.81-.32-2.57-.18h-.06l-.18.03c-3.19.64-4.21,3.07-4.77,4.36-.12.32-.26.64-.35.79-3.42,5.21-9.13,10.82-13.4,11.5-.15.03-.29.03-.44.06-.15-.61-.26-1.61-.35-2.25-.26-2.4-.59-5.12-2.72-6.73-.82-.61-2.19-1.29-4.18-.97-.32.06-.7.15-1.08.26l-.94.29-.61.73c-1.29,1.52-2.52,3.33-3.83,5.27-2.46,3.6-5.21,7.63-8.19,9.42l4.07-16.26c.44-.03.88-.09,1.26-.15.32-.06.61-.12.88-.18.94-.23,3.22-.91,4.91-2.37.35.5.76.94,1.23,1.32,1.26.97,2.78,1.4,4.18,1.17h.09l.15-.03c2.31-.47,4.15-2.11,4.83-4.27.64-2.08.38-4.01-.76-5.73-1.05-1.67-3.01-2.43-5.18-2.11-.29.06-.73.15-1.17.32-.85.32-1.84.82-2.66,1.55-.03-.03-.06-.09-.09-.12-1.02-.99-2.57-1.61-4.56-1.75l.29-1.29s.03-.06.03-.09.03-.03.03-.06c2.37-4.65,3.42-6.93,3.36-8.75h21.47V0h-90.65v45.22c-1.32.82-2.31,2.16-2.69,3.8-.44,1.76-.44,4.21-.44,6.58,0,1.32,0,2.57-.06,3.48-.29,3.57-.7,7.37-1.23,11.09l-15.44,7.75c-2.31-4.04-4.21-7.63-4.59-8.78,0-.32.03-1.08.06-1.67.15-3.54.44-10.15-4.74-10.65-.41-.03-.79-.03-1.17.03-1.67.26-2.49,1.4-2.87,1.87-1.2,1.61-1.81,4.59-2.69,12.81-.06.59-.12,1.08-.18,1.43-.15,1.26-.32,2.66-.5,4.12-.38,2.98-.79,6.35-1.17,9.74l-2.54,1.26c-.85-1.35-2.22-2.19-3.83-2.4l1.05-4.21,6.76-27.03,2.31-9.16L110.36,0H42.35v82.43c-.99.5-1.75,1.29-2.31,2.4-.59,1.14-1.17,2.78-.64,5.24.2,1.08.76,2.02,1.52,2.72-2.84,1.35-5.29,4.15-5.85,6.44-.15.53-.15,1.05-.12,1.55-.56-.15-1.17-.2-1.78-.09-.73.12-1.49.38-2.34.82-1.9.99-4.21,3.31-6.67,5.76-1.46,1.46-2.98,2.98-4.01,3.77-2.57,2.02-6.11,4.18-8.16,4.5,0,.03-.03.03-.03.03-1.32-4.39.94-14.77,1.9-19.31l.2-.97c.82-3.92,1.87-7.9,2.87-11.76,1.35-5.18,2.72-10.53,3.69-15.97.26-1.78-.26-3.42-1.4-4.56-1.02-1.02-2.46-1.46-3.89-1.23-.23.03-.47.09-.7.15-2.52.79-3.74,3.54-4.5,5.18-3.28,7.28-6.14,19.48-7.99,28.4l-.06.2c-2.25,10.94-3.83,22.9,1.67,28.7,1.67,1.75,4.77,3.66,9.95,2.84.35-.06.73-.12,1.11-.2,7.75-1.7,19.07-12.58,22.38-18.78,0,0,0-.03.03-.06.06,2.28.67,4.59,2.49,6.49.79.85,1.7,1.49,2.66,1.9v19.39h78.89v-.03l5.38-31.06c1.76-.61,3.36-1.81,4.89-3.63,1.9,1.26,4.12,1.73,6.55,1.35,1.17-.18,2.37-.59,3.51-1.08l-8.57,34.19v.26h90.65v-45.34h-22.96c1.49-1.35,3.01-2.98,4.39-4.77,1.02,1.26,2.46,2.34,4.53,2.93,1.73.47,3.6.53,5.56.23,4.48-.7,8.66-3.33,11.55-5.62.44.5.88.91,1.29,1.2,1.7,1.26,3.83,1.78,6.05,1.43,1.9-.29,3.77-1.23,5.41-2.66.32-.26.56-.58.79-.88.29.03.64.06.91.09,1.87.18,3.07.26,3.86.2.82-.03,1.61-.12,2.37-.26,1.4-.23,2.75-.56,4.04-1.05h2.34c.73.64,2.16,1.49,4.39,1.14.29-.06.64-.12.99-.23.61-.18,1.17-.47,1.67-.91h42.15v-27.03h-.97ZM207.01,58.91c.09-.03.26-.09.47-.12.56-.09,1.43-.06,1.87.64.64.94.7,1.84.38,2.93-.35,1.08-1.29,1.78-2.34,2.02h-.06c-1.05.18-2.54-.85-2.69-2.34-.15-1.49.23-2.31,2.37-3.13ZM34.25,106.71c-3.07,5.76-13.72,15.71-20.18,17.08-.29.09-.58.15-.88.18-14.16,2.25-9.45-19.98-7.84-27.79,1.67-7.93,4.53-20.42,7.75-27.64.47-1.02,1.38-3.1,2.52-3.45.09-.03.15-.03.23-.06,1.02-.15,1.67.91,1.52,1.96-1.67,9.33-4.59,18.37-6.55,27.64-1.2,5.67-3.89,17.32-1.78,22.58.58,1.49,1.9,1.87,3.48,1.61,3.39-.53,8.07-3.92,9.68-5.15,2.81-2.19,7.63-7.93,10.15-9.24.53-.26.97-.44,1.32-.47,1.37-.23,1.49,1.05.59,2.75ZM140.96,47.45c-.41-.88-.99-1.58-1.73-2.11h16.38l-2.28,9.13-.94,3.83h-.03l-5.79,23.2-.97,3.83c-2.72,2.75-7.11,6.26-8.66,6.79-.06,0-.12.03-.18.03-.41-1.52-.06-2.87.56-5.06.26-.94.56-1.9.76-3.01,1.35-6.79,2.22-12.31,2.75-17.4l.06-.38c1.2-11.14,1.2-16.44.06-18.84ZM89.77,89.62c.76.82.79,2.25-.12,3.16-.7.73-2.95,1.37-5.44,1.78-3.48.53-7.43.61-8.48-.2-1.99-1.52.44-3.36,1.99-3.8,1.05-.29,3.25-.7,5.38-1.02,2.02-.32,4.01-.59,5-.59h.03c.7,0,1.26.26,1.64.67ZM44.57,85.12c1.05-.15,2.22.94,2.54,2.19s.12,2.43-.94,3.13c-.38.23-.76.38-1.17.44-1.11.18-2.14-.38-2.37-1.49-.32-1.52,0-2.37.35-3.07.35-.67.76-1.02,1.49-1.17.03,0,.06,0,.09-.03ZM42.09,112.44c-3.01-3.22-.88-8.75-.56-12.58l-3.01,1.17c-1.17-.85,1.35-4.12,3.83-5.29.38-.18.79-.32,1.17-.38,1.05-.15,1.99.23,2.49,1.55.64,1.78-1.32,8.04-1.05,10.85.09.99.47,1.29.97,1.2.82-.12,1.96-1.23,2.78-1.87,1.81-1.43,8.54-8.98,10.33-9.27.06,0,.12-.03.18,0,.53.06.7.58.73,1.05.15,1.46-5.26,8.07-6.55,9.45-1.75,1.9-4.74,4.97-7.61,5.44-1.2.18-2.37-.09-3.42-1.08-.09-.06-.18-.15-.26-.23ZM258.22,79.21c-.2.06-.41.12-.58.15-2.37.38-2.57-1.78-2.28-3.95-2.57,2.19-5.29,3.36-8.48,3.89-.67.09-1.35.18-2.08.2-1.14.09-5.38-.47-6.03-.38-.03.03-.06.03-.06.03-.53.2-.91,1.32-1.43,1.75-.26.23-.5.41-.76.59-.97.7-1.99,1.11-2.98,1.29-2.72.44-5.15-1.17-5.62-4.83-3.16,3.19-8.31,7.02-13.28,7.81-1.4.23-2.81.2-4.15-.18-2.84-.76-3.71-2.93-4.71-5.41-.12-.32.06-.56-.29-.5-.06,0-.18.03-.29.06-1.93,3.42-4.91,7.2-8.07,9.54-.67.5-1.37.97-2.08,1.37-1.67.94-3.39,1.61-5.03,1.84-4.01.64-7.49-1.11-8.02-7.11-.18-1.99.47-4.01.29-5.94-1.87,3.45-6.35,11.26-11.17,12.02-1.23.2-2.46-.06-3.69-.94-.85-.64-1.11-1.61-2.08-2.02-.82,3.45-4.24,8.22-8.04,8.83-1.23.18-2.49-.06-3.71-.91-2.05-1.4-2.28-3.57-3.39-5.53-1.93,1.78-4.62,4.39-7.52,6.26h-.03c-1.7,1.08-3.42,1.9-5.12,2.16-2.4.38-4.71-.41-6.49-3.25-1.26,2.19-2.49,3.71-3.71,4.62-.94.76-1.87,1.17-2.81,1.32-4.48.7-8.66-4.97-11.76-10.47-1.96-3.48-3.63-7.14-5.21-10.82v-.03c-.76-1.73-1.49-3.45-2.22-5.18-.47.44-.35.99-.41,1.55-.2,1.67-.35,3.39-.47,5.18-.5,7.63-.32,15.91-1.52,22.96-.29,1.78-1.2,2.72-2.19,2.87-1.38.2-2.9-1.05-3.07-3.6-.32-4.97.35-12.43,1.17-19.39v-.03c.5-4.33,1.05-8.45,1.43-11.67.29-2.43,1.05-11.09,2.16-12.61.26-.32.44-.59.79-.64.09-.03.2-.03.32,0,2.75.26,1.49,7.63,1.73,9.51.15,1.23,2.57,5.7,4.89,9.77,1.64,2.87,3.22,5.53,3.86,6.58,1.58,2.66,5.91,10,8.6,11.09.38.15.73.18,1.05.15.82-.15,1.4-.91,1.93-1.73,3.22-4.77,5.38-17.4,6.58-27.12.44-3.6.76-6.79.94-9.04.2-2.66-.15-7.28.41-9.54.29-1.26,1.23-2.02,2.19-2.16.88-.15,1.78.23,2.25,1.2,1.23,2.6-.06,14.01-.41,17.46-.61,5.73-1.61,11.47-2.72,17.11-.67,3.48-2.28,6.29-1.17,9.89.58,1.93,1.58,2.49,3.1,2.25.35-.06.76-.18,1.2-.29,1.37-.47,3.83-2.16,6.2-4.12,0-.03.03-.03.03-.03,2.81-2.37,5.53-5.12,6.41-6.67,1.46-2.6,1.7-5.38,3.92-7.96.85-.97,2.31-2.16,3.57-2.37.97-.15,1.78.29,2.08,1.84.79,3.95-5.7,7.75-5.53,12.31.15,3.69,1.05,4.91,2.25,4.74,2.46-.38,6.08-6.79,6.58-10.33.23-1.75-.29-5.85.64-7.08.29-.38.73-.59,1.2-.67.88-.15,1.87.2,2.25.99.47,2.43.32,9.33,2.31,10.82.26.2.58.26.94.2,1.52-.23,3.51-2.6,4.27-3.54,3.74-4.59,5.97-10.82,9.07-15.88-.38-.03-.76,0-1.17.09-3.01.47-6.9,2.84-9.54,3.25-.23.06-.47.06-.67.06-1.37.03-1.81-1.32-1.35-2.49,1.23-2.93,13.19-6.52,16.23-7.9,1.84-2.52,6.61-16.23,9.04-16.85.03-.03.06-.03.09-.03.91-.15,1.87.79,2.05,1.61.41,1.9-5.5,11.23-6,13.92.26-.06.58-.12.99-.18,1.02-.15,2.43-.32,3.74-.23t.06,0c2.02.06,3.77.61,3.57,2.31-.2,1.76-3.01,2.84-4.5,3.22-.15.06-.29.09-.47.09h-.03l-.03.03h-.06c-.91.15-2.08.2-3.16.38-1.23.2-2.34.53-2.78,1.26-.64,1.08-1.67,5.03-2.08,6.49-.91,3.31-3.22,12.46-1.08,15.18.58.7,1.26.79,2.02.67.35-.06.7-.15,1.05-.23.06,0,.09-.03.15-.06h.06c6.79-1.75,11.32-11.58,15.53-16.56.23-.06.44-.12.64-.15,4.83-.76,1.4,9.65,5.82,9.97.61.03,1.26,0,1.87-.09,6.17-.97,12.61-8.34,15.62-12.93.94-1.43.94-3.33,2.98-3.71.06-.03.09-.03.15-.03,1.52-.26,1.78.76,2.05,1.02l.03.03s.09.06.12.06h.09c.56-.09,1.08-.59,1.87-.7.35-.06.76-.03,1.23.09,1.29.38,3.13,3.42,3.36,4.74.23,1.58-.38,2.87-.53,4.27-.03.35-.38.56.2.79.79.29,3.01.09,4.91-.2,1.08-.18,2.05-.38,2.57-.53,3.89-1.26,8.25-7.46,10.5-10.85,1.02-1.55,1.99-4.97,4.07-5.32.32-.03.64-.03.99.06,2.08.59,1.11,3.39,1.29,3.54,1.05-.79,2.19-1.4,3.39-1.61.91-.15,1.84-.03,2.81.47,4.12,2.19,1.7,8.57,2.66,12.23,6.44-1.96,12.31-7.63,16.56-12.75.97-1.17,2.49-3.66,3.8-5.5.61-.88,1.2-1.58,1.67-1.93.56-.41.97-.61,1.32-.67,1.02-.18,1.05,1.23.76,2.6-.03.23-.12.47-.18.7-2.22,7.25-14.51,21.12-22.84,22.44-.41.06-.79.09-1.14.12-6.84.09-4.59-8.83-5.15-13.08-2.46,1.55-4.33,4.21-5.91,6.61-1.14,1.78-3.57,7.49-5.21,7.96Z"/>
  <path class="cls-1" d="M466.32,36.01c-.44.09-.99.23-1.61.47-2.84,1.08-11.09,8.86-11.23,11.85-.03.76.15,1.49.29,2.19,3.45-3.83,10.88-5.44,13.43-9.8,1.49-2.57,1.93-5.15-.88-4.71Z"/>
  <path class="cls-1" d="M443.06,75.41c4.12-5.38,5.09-13.46,5.38-20.12-3.39,5.88-6.73,13.22-5.38,20.12Z"/>
  <path class="cls-1" d="M487.54,30.55c-.25,0-.49.03-.72.07-2.19.34-3.77,1.86-3.79,4.23.06.04.16.05.3.02,1.64-.26,8.18-4.47,4.21-4.32Z"/>
  <path class="cls-1" d="M537.83,19.42s-.41-1.49-.82-1.93c-.41-.41-1.93-.82-1.93-.82-1.9-.32-4.04-.29-6.32.09-3.13.47-6.55,1.58-10.47,3.33-2.43,1.08-5.5,2.75-8.42,5.18-1.02-1.84-2.72-3.36-5.56-2.93-.56.09-1.14.26-1.73.56-1.11.53-1.84,1.49-3.8,4.33-.44.61-1.02,1.46-1.2,1.7-.2.23-.41.47-.61.7-.12-.67-.32-1.29-.56-1.84-1.73-3.83-6.14-6-10.76-5.27-.5.09-.96.2-1.46.32l11.41-22.85h-45.46l-17.23,34.46c-.41-1.02-1.08-1.9-1.96-2.63-.99-.79-2.19-1.37-3.48-1.67V0h-45.16v8.72c-.76-.18-1.67-.23-2.72-.09h-.09c-2.19.35-5.21,1.87-10.59,9.92l-9.27-18.55h-45.34v135.96h45.34v-45.34l22.67,45.34h45.16v-45.19l22.61,45.19h45.51l-33.96-67.89,9.59-19.25.03-.03c.29-.29.53-.5.7-.64.67-.35,4.59-1.99,6.96-2.93,3.48,3.36,7.25,3.66,9.95,3.22,3.83-.61,7.9-2.98,12.2-7.08.59,2.11,1.81,3.98,4.39,4.39.76.15,1.49.15,2.19.03,3.71-.59,4.74-4.04,5.27-5.88.18-.58.38-1.2.56-1.55,1.78-3.48,6.26-6.7,9.86-8.57,1.4-.7,2.93-1.29,4.53-1.9,3.07-1.2,6.26-2.4,8.98-4.71,0,0,.64-.97.82-1.4.15-.44.29-1.64.29-1.64l-.12-.7ZM379.47,39.66c1.02-1.84,1.96-3.74,2.84-5.65v11.32l-2.84-5.67ZM521.8,26.85c-4.12,2.14-9.1,5.76-11.29,9.97-1.05,2.05-1.02,5.32-3.39,5.67-.32.06-.7.06-1.14,0-2.75-.47-1.9-6.7-2.43-8.75-3.48,4.27-9.42,10.5-15.18,11.41-2.98.47-5.91-.47-8.45-3.77h-.03c-.5.06-3.54,1.29-6.11,2.37-1.75.73-3.28,1.4-3.6,1.61-1.43.94-3.16,3.39-4.62,4.65-3.69,3.25-7.75,6.03-12.23,8.07-1.17,6.03-1.93,13.08-5.12,18.46-1.14,1.96-3.01,3.89-4.97,4.21-1.2.2-2.46-.23-3.63-1.7-4.59-5.79,1.17-19.57,4.3-25.36.82-1.52,4.39-6.55,4.62-7.43.32-1.35-.29-3.71-.2-5.24-6.26,4.56-15.47,12.14-23.63,13.43-.61.09-1.23.18-1.84.18-2.11.09-5-1.64-5.62-1.55-.2.03-1.55.91-3.01,1.84s-3.04,1.93-3.69,2.22c-2.72,1.32-5.79,2.46-8.89,2.95-3.04.47-6.08.35-8.92-.88-.79-.32-2.95-1.84-3.36-1.78-.32.06-2.22,2.28-2.93,2.81-2.52,1.93-5.94,3.31-9.45,3.86-3.89.61-7.93.23-11.06-1.52-.76-.41-3.28-2.66-3.92-2.57h-.03c-3.22,4.77-12.02,14.01-18.02,14.98-3.6.56-6.17-1.9-5.91-10.15.12-3.51,1.08-7.61,1.76-11.06,1.87-9.33,4.88-18.37,6.61-27.73-4.27,4.5-7.99,9.83-11.17,15.15-.76,1.29-1.26,2.81-2.05,4.07-.12.2-.58,1.05-.94,1.11-.03,0-.09-.03-.15-.06.67-7.69,6.14-17.2,11.17-22.99,1.84-2.14,3.39-3.16,4.56-3.33,2.6-.41,3.6,3.16,2.93,8.16-1.29,8.95-4.71,18.34-6.41,27.41-.88,4.68-1.9,9.77-.99,14.51.15,0,.32-.03.47-.06,1.26-.18,2.25-.94,3.31-1.67,2.16-1.43,12.58-11.91,12.67-13.89.03-1.14-.5-2.46-.5-3.74-.06-8.42,5.65-19.57,9.97-26.65.35-.53.79-1.26,1.32-2.11,2.43-3.74,6.55-9.59,9.39-10.06h.06c.97-.15,1.7,0,2.25.38v12.43c-1.11,3.8-2.72,7.61-4.65,11.32-3.54,6.87-8.01,13.48-11.93,19.34,1.58,3.69,6.87,4.48,11.82,3.69,3.92-.61,7.63-2.22,9.07-4.21,1.08-1.46.12-2.55.12-4.24-.03-3.66,1.93-8.01,4.59-10.5,1.7-1.61,3.42-2.46,4.94-2.69,4.27-.67,7.02,3.48,3.57,9.51-1.61,2.84-4.01,4.62-6.11,6.9-.2.2-.91.38-.32.88.12.09,2.75.88,3.16.94,1.7.29,3.42.26,5.12,0,4.77-.76,9.45-3.39,13.37-5.82-1.32-6.2,2.93-15.12,9.45-16.44.06-.03.15-.03.2-.06.91-.15,1.9-.03,2.78.32,1.43.5,2.57,1.58,2.63,3.22.09,1.84-1.08,4.01-2.63,6.08-1.96,2.63-4.5,5.18-5.97,6.79,1.17.15,2.52.09,3.92-.15,3.36-.53,7.05-1.93,9.45-3.39,4.53-2.75,8.63-7.93,12.78-11.03.73-.56,1.43-.97,2.08-1.08.88-.12,1.67.26,2.4,1.52.94,1.61.47,3.01.91,4.71,3.28-3.31,7.55-8.19,12.52-8.98.94-.15,1.9-.15,2.9.03,2.66.53,4.53,2.52,4.88,5.21.15,1.17-.41,2.05-.06,3.04l3.28-1.46h.03l1.81-.82c-.15-.85-.2-1.7-.15-2.54v-.03l3.42-6.87.03-.03c1.49-1.17,2.98-1.81,4.48-2.05,6-.94,10.76,5.09,4.94,9.86-1.84,1.49-4.48,2.72-6.67,3.63.82,1.11,1.99,1.14,3.19.94.23-.03.47-.09.7-.12,3.98-.79,9.13-5.97,11.76-9.04.79-.94,3.25-4.86,3.89-5.18.32-.15.59-.23.85-.26,2.63-.41,3.13,4.12,3.54,5.94,2.87-3.71,6.99-6.55,11.26-8.45,2.87-1.29,6.29-2.57,9.65-3.1,1.81-.26,3.6-.35,5.26-.06l.12.7c-3.6,3.07-8.6,4.01-12.87,6.2Z"/>
  <path class="cls-1" d="M396.41,42.33c-1.7.29-5.65,5.97-4.83,7.66h.06c.61-.09,5.47-6.46,5.15-7.61-.09-.06-.23-.06-.38-.06Z"/>
  <path class="cls-1" d="M379.09,18.43c-2.08,2.78-4.09,5.67-5.88,8.69-4.01,6.52-7.2,13.6-8.69,21.06.09.03.18,0,.26,0,.47-.09.56-.53.82-.91,3.51-5,6.84-10.62,9.42-16.5,1.78-4.04,3.22-8.22,4.07-12.34Z"/>
  <path class="cls-1" d="M426.33,37.38c-.2-.12-.44-.15-.7-.12-2.43.38-6.79,6.44-5.79,8.63,2.49-2.52,5.59-4.94,6.49-8.51Z"/>
  <path class="cls-1" d="M235,68.42s0,.03-.03.03c-1.58,1.61-3.22,9.18-2.37,9.83,1.08-.23,1.84-.85,2.37-1.64t.03-.03c1.46-2.22.99-6.05.29-8.4-.09.06-.18.12-.29.2Z"/>
</svg>