<?xml version="1.0" encoding="UTF-8"?>
<svg id="_图层_1" data-name="图层 1" xmlns="http://www.w3.org/2000/svg" xmlns:xlink="http://www.w3.org/1999/xlink" viewBox="0 0 424.03 463.01">
  <defs>
    <style>
      .cls-1 {
        fill: url(#_未命名的渐变_4);
      }
    </style>
    <linearGradient id="_未命名的渐变_4" data-name="未命名的渐变 4" x1="320.37" y1="-8.28" x2="114.76" y2="469.17" gradientUnits="userSpaceOnUse">
      <stop offset="0" stop-color="#2ca6e0"/>
      <stop offset=".35" stop-color="#2478bf"/>
      <stop offset=".92" stop-color="#182987"/>
    </linearGradient>
  </defs>
  <path class="cls-1" d="M360.54,151.57c-.58-2.04-1.95-4.93-4.09-4.08-2.13,1.29-2.8,5.02-3.82,7.55-4.31,12.12-8.12,24.42-11.76,36.76-.13.44.4.8.75.53,7.15-5.42,13.05-12.83,16.65-21.22,2.44-6.13,3.64-13.05,2.26-19.53ZM212.53,57.32c-2.31-1.82-4.75-.71-7.02,1.42-11.14,11.14-21.09,42.27-19.93,43.02.8.53,2.66-3.02,4.26-5.33,2.49-3.51,8.12-11.99,10.57-15.41,3.42-4.71,7.28-10.21,9.86-15.32,1.11-2.49,3.11-5.95,2.26-8.39ZM266.51,61.8c-9.81,11.54-18.43,38.58-16.83,39.34,1.15.58,3.51-3.91,5.73-6.79,6.88-9.19,16.03-19.49,20.29-30.19,3.2-8.84-5.37-6.93-9.19-2.35ZM309.62,293.82c-.22,0-.44.18-.53.4-19.62,53.72-46.93,105.93-90.35,127.55-21.36,10.66-50.43,14.83-71.88,1.07-21.84-14.03-24.73-49.06-6.75-66.28.53-.53,1.38.04,1.24.75-9.68,52.7,43.46,55.1,66.64,42.8,23.62-11.77,41.2-32.59,56.16-53.9,11.14-16.6,20.51-34.1,28.86-52.17.18-.36-.09-.8-.49-.8-4.31-.31-8.61-.67-12.96-1.11-22.24-2.35-44.57-6.97-66.42-12.56-39.69-9.55-79.51-22.33-119.92-24.68-36.05-2.66-63,7.68-91.37,34.23-.67.62-1.24,1.38-1.86,2.13v160.63c0,6.13,4.97,11.14,11.14,11.14h401.79c6.13,0,11.1-5.02,11.1-11.14v-195.43c-34.85,25.97-74.1,37.52-114.41,37.38ZM416.31,18.74c-7.59,4.84-20.96,10.79-41.2,10.79-34.32,0-40.53-17.09-57.05-17.09-14.07,0-21.4,15.67-53.01,15.67C227.98,28.1,221.81.04,181.94,0c-40.58-.09-42,17.4-75.92,23.84C73.08,30.06,46.22-11.45,3.91,26.19c-2.44,2.18-3.91,5.33-3.91,8.61v223.54c.62-.49,1.24-.93,1.86-1.42,44.4-33.34,99.58-27.35,155.79-11.9,40.09,10.61,79.16,23.97,119.83,30.81,4.04.71,8.08,1.33,12.12,1.86,3.24.4,6.48.8,9.72,1.07.27,0,.53-.13.62-.36,9.1-21.35,17-43.29,24.91-65.22.31-.89-.49-1.69-1.38-1.46-12.52,3.29-25.35.35-33.3-13.9-1.11-2.22-2-4.53-2.75-6.88-13.94,14.43-40.4,18.82-54.79,2.8-9.1-11.14-7.77-28.1-5.95-40.89.4-2.53.93-4.84.4-4.97-.4-.13-.58,0-1.33,1.33-6.17,10.79-11.59,22.51-19.05,32.81-4,5.55-8.79,11.1-15.18,14.61-5.19,3.02-13.67,3.37-18.56-1.07-13.27-11.63-7.99-40.49-5.06-57.27h-.05c-5.24,7.77-10.48,15.49-15.63,23-9.77,14.96-22.24,27.93-39.2,34.9-13.14,5.42-29.44,5.55-42.18-1.91-13.32-7.1-19.85-27.08-8.35-38.27.04-.04.09,0,.09,0,1.51,24.95,24.42,34.01,45.42,26.64,18.51-6.22,32.59-21.71,44.62-36.63,6.13-7.64,12.16-15.41,18.07-23.26.36-.44.53-.89.67-1.42,5.06-24.33,11.19-50.97,30.01-67.48,4.26-3.68,10.66-5.11,15.27-.49,7.28,8.35-10.79,28.37-15.36,35.83-6.04,8.75-12.16,17.76-18.34,26.86-.31.44-.53,1.02-.62,1.55-1.11,6.84-2.04,13.54-3.02,19.71-1.02,8.12-1.95,16.16-2.26,24.11-.09,5.28-.58,21.98,4.75,24.51.58.27,1.24.27,1.86.09,12.61-3.15,28.81-29.92,35.92-40.53,4.13-6.44,8.35-12.83,12.65-19.13.22-.31.4-.71.49-1.07,2-7.19,4.17-14.3,6.48-21.4,5.42-15.89,12.39-41.24,27.93-50.21,4.88-2.71,12.88-2.09,14.38,4.66,1.47,9.41-9.72,21.71-14.87,28.99-5.06,6.62-10.25,13.01-14.87,19.85-2,2.89-3.95,5.77-5.86,8.7-.27.4-.49.84-.58,1.29-2.75,12.34-4.62,24.86-5.95,37.34-.8,7.9-1.2,15.76-.09,22.73.76,6.39,4.09,11.54,10.34,14.16,10.57,4.71,23.71,2.8,34.54-2.4,1.46-.71,2.13-2.31,1.86-3.91-3.24-18.69,4.35-38.8,16.12-53.05,7.33-8.66,17.05-16.47,28.55-18.56,11.14-2.35,25.26,3.95,27.08,15.94-8.26-11.14-23.35-12.7-34.1-5.19-19.76,13.54-32.5,45.95-22.42,67.7,5.33,10.43,16.83,11.14,27.08,7.59,1.07-.36,1.86-1.24,2.26-2.26,5.37-14.87,10.92-29.61,16.92-44.17,1.07-2.53,1.95-5.46,3.91-7.81,2.35-3.33,7.81-3.91,10.57-.58,3.64,4.08,3.46,9.32,3.2,14.34-.76,12.12-5.37,23.8-13.1,33.25-3.91,4.93-8.92,9.46-14.43,13.01-.67.44-1.11,1.02-1.33,1.78-6.35,21.58-13.32,46.48-21.84,71.66-.13.4.18.84.62.84,37.78.71,75.25-8.39,106.55-31.17.8-.53,1.6-1.11,2.35-1.64V23.04c0-4-4.4-6.48-7.72-4.31Z"/>
</svg>