<?xml version="1.0" encoding="UTF-8"?>
<svg id="_图层_1" data-name="图层 1" xmlns="http://www.w3.org/2000/svg" viewBox="0 0 471.75 459.6">
  <defs>
    <style>
      .cls-1 {
        fill: #d6437f;
      }
    </style>
  </defs>
  <path class="cls-1" d="M239.93.47c18.73-3,32.36,8.56,35.65,26.48,24.26,3.88,34.98,29.38,19.05,48.76l-151.3,150.31-12.95-12.76L279.74,63.9c9.06-9.27-1.33-23.05-12.34-15.42L116.5,199.38l-13.84-13.84L254.62,33.65c4.24-7.41-3.36-17.06-11.39-14.5L90.31,171.22c-1.2.96-1.68.11-2.59-.51-1.55-1.07-11.88-11.75-11.7-12.75L225.29,8.41c3.98-3.3,9.48-7.12,14.64-7.94Z"/>
  <path class="cls-1" d="M188.86,422.18L0,233.79l13.84-13.84,82.13,82.1,40.48-40.68-80.57-81.49c-.68-.77-.41-1.25,0-2.04,1.66-3.23,9.97-8.72,12.38-12.31l170.9,170.92c-3.59,2.41-9.08,10.72-12.31,12.38-.79.41-1.26.68-2.04,0l-74.43-74.47-40.1,40.03.51,2.59,78.63,78.55c-1.04,8.96-2.71,17.62-.56,26.65Z"/>
  <path class="cls-1" d="M348.5,240.48l13.84,13.84-140.15,140.09c-17.95,26.82,12.82,58.36,40.09,41.12l51.46-51.27c1-.18,11.69,10.15,12.75,11.7.62.91,1.47,1.39.51,2.59-16.84,14.54-31.9,34.79-48.81,48.79-43.66,36.14-101.37-14.61-72.73-62.47l143.04-144.39Z"/>
  <path class="cls-1" d="M446.55,276.39c3.95-6.06-1.78-20.03-.87-23.92.23-.97,4.13-5.52,5.15-8.23,3.73-9.88,1.89-18.99-3.44-27.74l-140.31-141.66c3.44-6.17,5.55-13.09,4.98-20.21l147.84,147.3c20.33,24.4,13.58,58.61-13.36,74.46Z"/>
  <path class="cls-1" d="M266.37,117.28l136.54,136.51c6.16,6.78,7.92,16.35,2.58,24.21-6.72-1.67-11.66-6.8-16.99-10.83l-135.97-136.06,13.84-13.84Z"/>
  <path class="cls-1" d="M382.89,219.93h14.89c13.22,0,31.03,17,35.91,28.77,18.69,45.07-32.79,70.43-56.41,99.63l-1.94.89-12.9-13.64,50.2-50.47c20.16-28.54-14.4-45.85-29.75-65.17Z"/>
</svg>