<?xml version="1.0" encoding="UTF-8"?>
<svg id="_图层_1" data-name="图层 1" xmlns="http://www.w3.org/2000/svg" xmlns:xlink="http://www.w3.org/1999/xlink" viewBox="0 0 452.45 312.82">
  <defs>
    <style>
      .cls-1 {
        fill: url(#_未命名的渐变_3);
      }

      .cls-2 {
        fill: url(#_未命名的渐变_30);
      }

      .cls-3 {
        fill: url(#_未命名的渐变_3-2);
      }
    </style>
    <linearGradient id="_未命名的渐变_30" data-name="未命名的渐变 30" x1="53.5" y1="4.03" x2="434.7" y2="323.13" gradientUnits="userSpaceOnUse">
      <stop offset=".05" stop-color="#004cfd"/>
      <stop offset=".38" stop-color="#47a4a4"/>
      <stop offset=".47" stop-color="#89b96e"/>
      <stop offset=".62" stop-color="#f9de15"/>
      <stop offset=".77" stop-color="#f7b420"/>
      <stop offset=".9" stop-color="#f79529"/>
    </linearGradient>
    <linearGradient id="_未命名的渐变_3" data-name="未命名的渐变 3" x1="282.92" y1="154.23" x2="341.91" y2="173.69" gradientUnits="userSpaceOnUse">
      <stop offset="0" stop-color="#f78dcf"/>
      <stop offset=".98" stop-color="#d81a7e"/>
    </linearGradient>
    <linearGradient id="_未命名的渐变_3-2" data-name="未命名的渐变 3" x1="348.77" y1="146.71" x2="452.41" y2="180.9" xlink:href="#_未命名的渐变_3"/>
  </defs>
  <path class="cls-2" d="M283.74,112.68c-10.58-10.58,20.25-58.55,49.54-87.84,29.29-29.29,45.96-28.81,56.53-18.23,10.58,10.58,11.06,27.24-18.23,56.53-29.29,29.29-77.26,60.12-87.84,49.54ZM380.18,249.02c-36.15-20.23-90.69-36.86-98-23.81-7.3,13.05,35.4,50.84,71.54,71.08,36.15,20.23,52.06,15.24,59.36,2.19,7.3-13.05,3.24-29.22-32.91-49.45ZM168.52,53.21C139.23,23.92,91.26-6.91,80.68,3.67c-10.58,10.58,20.25,58.55,49.54,87.84,1.31,1.31,3.87,3.77,3.88,3.78,4.8,4.19,4.23,10.9-.81,14.27-12.99,8.67-36.25,14.23-77.51,18.48,0,0-.31.03-.31.03-36.55,3.31-55.47,15.08-55.47,29.11,0,16.59,26.47,30.04,77.31,30.04,15.02,0,30.47-1.18,44.8-3.26.02,0,2.81-.46,3.57-.59,9.9-1.72,15.91,5.15,12.59,13.2-5.33,12.9-59.93,38.33-63.62,92.42-.1,1.43-.08,2.54.05,3.38.33,5.57,2.8,10.09,6.55,13.84,10.58,10.58,27.24,11.06,56.53-18.23,29.29-29.29,60.12-77.26,49.54-87.84-8.5-8.5-37.28,6.62-64.98,29.32,0,0-3.88,3.12-3.87,3.11,17.57-24.07,66.94-52.05,65.62-75.34,0-.02-.07-.77-.07-.77-1.17-12.21-32.5-22.62-69.28-27.05,29.34-3.61,61.94-10.92,69.52-17.49,0,0,1.69-1.41,2.48-2.2,10.58-10.58,11.06-27.24-18.23-56.53Z"/>
  <path class="cls-1" d="M284.79,179.24c-8.09-13.11-1.52-29.38,15.89-23.4-3.18-11.22-1.2-24.46,10.66-26.08,11.4-1.56,21.2,10.39,22.41,23,1.46,15.21-5.67,33.81-4.06,50.08-15.99-2.06-34.21-6.26-44.91-23.59Z"/>
  <path class="cls-3" d="M450.96,152.17c-5.78-19.37-27.52-19.47-42.74-9.41,4-16.37-2.49-31.22-16.34-33.75-22.18-4.05-36.69,17.83-37.77,37.24-.96,17.28,2.39,31.13,15.86,59.6,9.39-10.2,33.09-7.12,49.09-10.01,23.88-4.31,38.19-22.54,31.89-43.66Z"/>
</svg>