<?xml version="1.0" encoding="UTF-8"?>
<svg id="_图层_1" data-name="图层 1" xmlns="http://www.w3.org/2000/svg" viewBox="0 0 509.98 268.65">
  <defs>
    <style>
      .cls-1 {
        fill: #ae946e;
      }

      .cls-2 {
        fill: #fff;
      }
    </style>
  </defs>
  <g>
    <g>
      <g>
        <path class="cls-1" d="M470.71,250.1l10.8-17.12c1.43,1.95,2.47,4.17,3.01,6.57,1.31,5.87,2.47,11.84,3.62,17.7-3.47.58-6.86.13-9.85-1.16-2.99-1.29-5.66-3.29-7.58-5.99Z"/>
        <path class="cls-1" d="M486.19,240.05c4.46-.75,9,.24,12.84,2.78,1.94,1.29,3.58,2.9,4.87,4.75l-11.37,16.75c-1.32-1.92-2.28-4.14-2.76-6.59-1.13-5.86-2.32-11.76-3.57-17.68Z"/>
      </g>
      <path class="cls-2" d="M488.14,257.25c-1.15-5.86-2.31-11.82-3.62-17.7-.54-2.4-1.57-4.63-3.01-6.57l.86-1.37c1.61,2.06,2.8,4.41,3.48,6.98,4.89-.88,9.83.23,14.02,2.99,1.93,1.28,3.6,2.86,4.94,4.66l-.91,1.35c-1.28-1.85-2.92-3.46-4.87-4.75-3.84-2.54-8.37-3.53-12.84-2.78,1.25,5.92,2.44,11.83,3.57,17.68.48,2.45,1.44,4.67,2.76,6.59l-.91,1.34c-1.47-2.02-2.58-4.35-3.18-6.95-3.67.63-7.26.19-10.44-1.12-3.17-1.33-6.04-3.36-8.15-6.14l.86-1.36c1.93,2.7,4.6,4.7,7.58,5.99,2.99,1.29,6.38,1.74,9.85,1.16Z"/>
    </g>
    <g>
      <g>
        <path class="cls-1" d="M448.47,236.55l10.2-17.49c1.49,1.92,2.59,4.12,3.2,6.53,1.48,5.88,2.94,11.63,4.25,17.51-6.88,1.36-13.65-1.24-17.65-6.55Z"/>
        <path class="cls-1" d="M463.56,226.05c2.23-.46,4.49-.5,6.69-.12,1.1.19,2.19.48,3.24.87,1.04.41,2.06.93,3.03,1.54,1.97,1.24,3.66,2.82,4.99,4.64l-10.8,17.12c-1.37-1.89-2.39-4.1-2.95-6.55-1.28-5.89-2.73-11.64-4.2-17.5Z"/>
      </g>
      <path class="cls-2" d="M466.13,243.1c-1.31-5.88-2.78-11.63-4.25-17.51-.61-2.4-1.71-4.61-3.2-6.53l.82-1.4c1.67,2.03,2.92,4.36,3.68,6.92,2.42-.51,4.89-.56,7.29-.15,1.2.2,2.39.52,3.54.94,1.14.44,2.25,1.01,3.31,1.67,1.96,1.24,3.67,2.78,5.06,4.55l-.87,1.38c-1.33-1.82-3.02-3.4-4.99-4.64-.97-.61-1.99-1.13-3.03-1.54-1.05-.4-2.14-.68-3.24-.87-2.2-.38-4.46-.34-6.69.12,1.47,5.86,2.92,11.61,4.2,17.5.56,2.45,1.58,4.65,2.95,6.55l-.86,1.37c-1.53-1.99-2.7-4.3-3.37-6.89-3.62.7-7.24.43-10.49-.73-3.25-1.16-6.12-3.19-8.32-5.9l.81-1.39c4.01,5.31,10.78,7.91,17.65,6.55Z"/>
    </g>
    <g>
      <g>
        <path class="cls-1" d="M425.75,223.88l9.56-17.84c1.57,1.84,2.76,3.99,3.47,6.35,1.72,5.77,3.29,11.64,4.85,17.4-3.42.82-6.83.61-9.9-.47-3.07-1.08-5.87-2.88-7.98-5.44Z"/>
        <path class="cls-1" d="M440.48,212.76c4.4-1.06,9-.39,13.01,1.88,2.02,1.16,3.8,2.62,5.18,4.42l-10.2,17.49c-1.42-1.87-2.55-3.98-3.19-6.4-1.53-5.76-3.12-11.57-4.79-17.39Z"/>
      </g>
      <path class="cls-2" d="M443.62,229.78c-1.55-5.76-3.13-11.63-4.85-17.4-.71-2.36-1.9-4.51-3.47-6.35l.76-1.43c1.75,1.94,3.11,4.21,3.96,6.72,4.82-1.22,9.83-.46,14.21,2.01,2.01,1.15,3.81,2.58,5.24,4.33l-.82,1.4c-1.38-1.8-3.15-3.26-5.18-4.42-4.01-2.26-8.61-2.94-13.01-1.88,1.67,5.82,3.26,11.63,4.79,17.39.65,2.42,1.77,4.53,3.19,6.4l-.82,1.4c-1.58-1.96-2.86-4.17-3.63-6.73-3.62.88-7.22.7-10.48-.38-3.25-1.1-6.25-2.92-8.55-5.55l.76-1.42c2.11,2.56,4.91,4.36,7.98,5.44,3.07,1.07,6.48,1.29,9.9.47Z"/>
    </g>
    <g>
      <g>
        <path class="cls-1" d="M402.61,211.99l8.88-18.19c1.65,1.76,2.89,3.92,3.68,6.26,1.9,5.76,3.76,11.44,5.51,17.16-6.79,1.91-13.67-.28-18.08-5.23Z"/>
        <path class="cls-1" d="M416.89,200.4c4.36-1.22,9.04-.82,13.11,1.35,2.06,1.1,3.85,2.56,5.31,4.28l-9.56,17.84c-1.5-1.79-2.67-3.92-3.4-6.32-.85-2.89-1.75-5.73-2.66-8.58l-2.79-8.57Z"/>
      </g>
      <path class="cls-2" d="M420.69,217.22c-1.75-5.72-3.6-11.4-5.51-17.16-.79-2.34-2.03-4.51-3.68-6.26l.71-1.45c1.84,1.85,3.24,4.14,4.19,6.62,4.74-1.35,9.86-.92,14.3,1.44,2.05,1.1,3.86,2.52,5.38,4.19l-.77,1.43c-1.46-1.72-3.25-3.18-5.31-4.28-4.07-2.17-8.75-2.57-13.11-1.35l2.79,8.57c.92,2.84,1.81,5.68,2.66,8.58.73,2.41,1.9,4.53,3.4,6.32l-.76,1.43c-1.66-1.87-2.99-4.1-3.85-6.64-3.55.95-7.2.99-10.51.05-3.32-.91-6.31-2.77-8.72-5.27l.71-1.45c4.4,4.95,11.29,7.14,18.08,5.23Z"/>
    </g>
    <g>
      <g>
        <path class="cls-1" d="M379.04,201.05l8.17-18.52c1.7,1.73,3.05,3.79,3.93,6.1,1.07,2.82,2.13,5.62,3.16,8.44l2.99,8.52c-3.35,1.09-6.73,1.05-9.9.29-3.16-.78-6.05-2.44-8.35-4.83Z"/>
        <path class="cls-1" d="M392.86,188.9c4.35-1.47,8.98-1.11,13.14.88,2.11,1,3.96,2.38,5.5,4.03l-8.88,18.19c-1.57-1.71-2.83-3.78-3.66-6.14-1.95-5.63-3.94-11.37-6.1-16.95Z"/>
      </g>
      <path class="cls-2" d="M397.28,205.6l-2.99-8.52c-1.03-2.83-2.09-5.62-3.16-8.44-.88-2.31-2.23-4.37-3.93-6.1l.65-1.48c1.89,1.82,3.41,3.99,4.45,6.44,2.35-.78,4.82-1.13,7.25-.97,2.42.17,4.82.81,7.1,1.89,2.1,1,3.98,2.34,5.56,3.93l-.71,1.46c-1.53-1.65-3.39-3.02-5.5-4.03-4.16-1.99-8.79-2.34-13.14-.88,2.15,5.58,4.14,11.32,6.1,16.95.83,2.36,2.08,4.43,3.66,6.14l-.71,1.45c-1.74-1.79-3.15-3.95-4.12-6.43-3.54,1.16-7.12,1.18-10.47.4-3.36-.77-6.44-2.45-8.93-4.88l.65-1.47c2.3,2.39,5.19,4.05,8.35,4.83,3.17.76,6.55.8,9.9-.29Z"/>
    </g>
    <g>
      <g>
        <path class="cls-1" d="M355.06,191.07l7.41-18.84c1.78,1.65,3.21,3.64,4.19,5.91,2.37,5.55,4.62,11.18,6.82,16.72-3.31,1.21-6.71,1.4-9.88.69-3.16-.73-6.15-2.18-8.53-4.48Z"/>
        <path class="cls-1" d="M368.4,178.32c4.25-1.55,8.91-1.42,13.17.37,2.16.89,4.06,2.22,5.64,3.85l-8.17,18.52c-1.62-1.69-2.95-3.73-3.87-6.03-2.18-5.54-4.43-11.11-6.76-16.71Z"/>
      </g>
      <path class="cls-2" d="M373.47,194.85c-2.2-5.54-4.45-11.17-6.82-16.72-.98-2.26-2.42-4.26-4.19-5.91l.59-1.51c1.97,1.73,3.59,3.82,4.73,6.22,4.64-1.75,9.72-1.59,14.37.36,2.15.88,4.07,2.18,5.7,3.75l-.66,1.49c-1.58-1.63-3.48-2.96-5.64-3.85-4.25-1.79-8.92-1.92-13.17-.37,2.33,5.6,4.59,11.17,6.76,16.71.93,2.3,2.25,4.34,3.87,6.03l-.65,1.48c-1.78-1.77-3.28-3.89-4.35-6.3-7,2.6-14.36.89-19.57-3.67l.59-1.5c2.39,2.3,5.38,3.75,8.53,4.48,3.17.7,6.58.52,9.88-.69Z"/>
    </g>
    <g>
      <g>
        <path class="cls-1" d="M330.71,182.07l6.6-19.14c1.84,1.58,3.38,3.46,4.44,5.73,2.59,5.49,5.09,10.96,7.51,16.39-3.26,1.36-6.66,1.7-9.85,1.15-1.6-.28-3.15-.78-4.61-1.49-1.47-.68-2.85-1.56-4.09-2.64Z"/>
        <path class="cls-1" d="M343.49,168.8c4.18-1.74,8.87-1.84,13.19-.22,2.18.86,4.13,2.1,5.78,3.64l-7.41,18.84c-1.7-1.6-3.1-3.58-4.11-5.88-2.39-5.48-4.89-10.89-7.46-16.38Z"/>
      </g>
      <path class="cls-2" d="M349.26,185.06c-2.42-5.43-4.93-10.9-7.51-16.39-1.06-2.27-2.59-4.15-4.44-5.73l.53-1.53c2.05,1.64,3.76,3.63,4.99,6.03,4.55-1.91,9.67-2.03,14.39-.26,2.17.85,4.14,2.06,5.84,3.54l-.59,1.51c-1.65-1.54-3.61-2.78-5.78-3.64-4.32-1.62-9.01-1.52-13.19.22,2.57,5.49,5.07,10.9,7.46,16.38,1.01,2.31,2.41,4.28,4.11,5.88l-.59,1.51c-1.86-1.67-3.44-3.73-4.59-6.14-3.43,1.43-7.03,1.85-10.41,1.31-1.69-.26-3.34-.76-4.89-1.47-1.56-.69-3.04-1.57-4.39-2.67l.53-1.52c1.25,1.08,2.63,1.96,4.09,2.64,1.46.71,3.01,1.21,4.61,1.49,3.2.56,6.6.22,9.85-1.15Z"/>
    </g>
    <g>
      <g>
        <path class="cls-1" d="M306.01,174.14l5.75-19.41c1.92,1.47,3.52,3.34,4.68,5.55,2.82,5.38,5.58,10.67,8.22,16.05-3.17,1.44-6.57,1.99-9.79,1.56-3.22-.4-6.27-1.75-8.86-3.76Z"/>
        <path class="cls-1" d="M318.19,160.34c2.06-.97,4.25-1.52,6.49-1.66,2.24-.15,4.51.13,6.69.89,2.21.75,4.23,1.9,5.95,3.37l-6.6,19.14c-1.76-1.52-3.26-3.43-4.36-5.68l-1.97-4.05-2.03-3.99-4.16-8.01Z"/>
      </g>
      <path class="cls-2" d="M324.66,176.34c-2.63-5.38-5.39-10.67-8.22-16.05-1.16-2.21-2.76-4.08-4.68-5.55l.46-1.55c1.06.77,2.04,1.64,2.92,2.6.87.99,1.65,2.06,2.32,3.22,2.24-1.06,4.63-1.67,7.07-1.83,2.44-.16,4.93.12,7.31.96,2.21.75,4.23,1.87,6,3.27l-.53,1.54c-1.72-1.47-3.73-2.61-5.95-3.37-2.18-.76-4.45-1.03-6.69-.89-2.23.14-4.43.7-6.49,1.66l4.16,8.01,2.03,3.99,1.97,4.05c1.1,2.25,2.6,4.16,4.36,5.68l-.53,1.53c-1.93-1.58-3.6-3.56-4.85-5.92-3.35,1.52-6.93,2.12-10.34,1.74-3.41-.36-6.65-1.71-9.44-3.74l.46-1.54c2.59,2.01,5.64,3.35,8.86,3.76,3.21.42,6.61-.13,9.79-1.56Z"/>
    </g>
    <g>
      <g>
        <path class="cls-1" d="M281,167.34l4.85-19.65c1.99,1.38,3.68,3.17,4.94,5.33,3.07,5.25,6.07,10.39,8.93,15.67-3.1,1.57-6.47,2.27-9.7,1.99-3.23-.26-6.34-1.45-9.02-3.34Z"/>
        <path class="cls-1" d="M292.53,153c2.01-1.06,4.18-1.71,6.41-1.96,1.11-.12,2.24-.14,3.37-.05,1.12.11,2.24.33,3.35.65,2.25.65,4.31,1.71,6.1,3.09l-5.75,19.41c-1.83-1.44-3.4-3.27-4.61-5.47-2.84-5.31-5.82-10.44-8.87-15.67Z"/>
      </g>
      <path class="cls-2" d="M299.72,168.69c-2.86-5.28-5.86-10.42-8.93-15.67-1.26-2.16-2.95-3.95-4.94-5.33l.39-1.57c1.1.72,2.12,1.54,3.04,2.47.92.94,1.75,1.98,2.47,3.11,2.19-1.16,4.55-1.88,6.98-2.15,1.22-.13,2.45-.15,3.68-.06,1.23.11,2.45.35,3.67.7,2.24.65,4.32,1.67,6.15,2.99l-.46,1.56c-1.79-1.39-3.85-2.44-6.1-3.09-1.11-.32-2.23-.54-3.35-.65-1.13-.09-2.26-.07-3.37.05-2.23.24-4.4.9-6.41,1.96,3.05,5.24,6.03,10.37,8.87,15.67,1.2,2.2,2.78,4.04,4.61,5.47l-.46,1.55c-2-1.49-3.75-3.39-5.1-5.69-3.28,1.67-6.82,2.41-10.24,2.2-3.42-.21-6.72-1.4-9.6-3.3l.39-1.56c2.68,1.89,5.79,3.08,9.02,3.34,3.23.28,6.6-.43,9.7-1.99Z"/>
    </g>
    <g>
      <g>
        <path class="cls-1" d="M255.71,161.74l3.9-19.87c2.05,1.31,3.83,2.98,5.19,5.07,3.32,5.1,6.55,10.13,9.66,15.24-3.03,1.73-6.36,2.58-9.59,2.45-1.62-.05-3.22-.35-4.76-.84-1.54-.47-3.03-1.16-4.41-2.06Z"/>
        <path class="cls-1" d="M266.55,146.84c3.91-2.27,8.57-3.07,13.06-1.97,2.28.55,4.39,1.51,6.24,2.82l-4.85,19.65c-1.89-1.35-3.55-3.11-4.85-5.26l-2.33-3.85-2.38-3.79-4.88-7.6Z"/>
      </g>
      <path class="cls-2" d="M274.46,162.18c-3.11-5.11-6.34-10.14-9.66-15.24-1.36-2.09-3.14-3.76-5.19-5.07l.31-1.59c2.26,1.36,4.24,3.08,5.78,5.29,4.25-2.49,9.34-3.36,14.25-2.17,2.27.55,4.39,1.47,6.28,2.71l-.39,1.58c-1.85-1.3-3.96-2.26-6.24-2.82-4.5-1.1-9.15-.3-13.06,1.97l4.88,7.6,2.38,3.79,2.33,3.85c1.3,2.14,2.96,3.91,4.85,5.26l-.39,1.57c-2.06-1.39-3.9-3.21-5.36-5.45-3.2,1.82-6.7,2.76-10.12,2.68-1.71-.03-3.4-.3-5.04-.79-1.64-.46-3.22-1.14-4.7-2.04l.31-1.58c1.38.9,2.86,1.59,4.41,2.06,1.54.49,3.14.79,4.76.84,3.23.13,6.56-.72,9.59-2.45Z"/>
    </g>
    <g>
      <g>
        <path class="cls-1" d="M230.21,157.39l2.88-20.04c2.12,1.21,3.97,2.83,5.45,4.82,3.59,4.85,7.04,9.84,10.4,14.73-2.95,1.93-6.21,2.88-9.45,2.91-3.23.03-6.45-.73-9.29-2.42Z"/>
        <path class="cls-1" d="M240.28,141.96c3.8-2.49,8.39-3.4,12.96-2.62,2.3.45,4.46,1.31,6.37,2.53l-3.9,19.87c-1.95-1.27-3.69-2.95-5.09-5.04-3.34-4.92-6.79-9.83-10.34-14.75Z"/>
      </g>
      <path class="cls-2" d="M248.95,156.9c-3.37-4.89-6.82-9.88-10.4-14.73-1.47-1.99-3.33-3.61-5.45-4.82l.23-1.6c2.33,1.24,4.38,2.92,6.05,5,4.14-2.77,9.15-3.75,14.14-2.9,2.29.45,4.46,1.28,6.41,2.43l-.31,1.6c-1.91-1.22-4.07-2.09-6.37-2.53-4.57-.79-9.16.12-12.96,2.62,3.55,4.92,7,9.83,10.34,14.75,1.4,2.08,3.14,3.77,5.09,5.04l-.31,1.59c-2.12-1.3-4.04-3.04-5.6-5.21-3.11,2.05-6.55,3.1-9.96,3.19-3.41.07-6.82-.63-9.85-2.32l.23-1.59c2.84,1.69,6.05,2.46,9.29,2.42,3.23-.03,6.5-.98,9.45-2.91Z"/>
    </g>
    <g>
      <g>
        <path class="cls-1" d="M204.56,154.4l1.78-20.17c2.19,1.05,4.13,2.61,5.71,4.53,1.92,2.35,3.81,4.69,5.68,7.03,1.86,2.37,3.69,4.76,5.49,7.14-5.68,4.08-12.81,4.48-18.65,1.47Z"/>
        <path class="cls-1" d="M213.77,138.47c1.83-1.35,3.89-2.35,6.06-2.91,2.17-.54,4.46-.67,6.76-.38,2.33.28,4.54,1.02,6.51,2.17l-2.88,20.04c-2.01-1.2-3.83-2.77-5.34-4.74-3.59-4.75-7.28-9.53-11.11-14.18Z"/>
      </g>
      <path class="cls-2" d="M223.21,152.93c-1.8-2.38-3.63-4.77-5.49-7.14-1.86-2.34-3.76-4.68-5.68-7.03-1.58-1.92-3.52-3.48-5.71-4.53l.14-1.61c2.4,1.06,4.54,2.69,6.32,4.68,1.99-1.48,4.23-2.56,6.61-3.2,2.37-.59,4.87-.74,7.38-.42,2.33.28,4.54.98,6.54,2.06l-.23,1.61c-1.97-1.15-4.17-1.89-6.51-2.17-2.3-.29-4.59-.16-6.76.38-2.17.56-4.23,1.56-6.06,2.91,3.83,4.64,7.52,9.42,11.11,14.18,1.51,1.97,3.33,3.55,5.34,4.74l-.23,1.6c-2.18-1.22-4.18-2.83-5.86-4.88-6,4.35-13.47,4.85-19.71,1.89l.14-1.6c5.84,3.01,12.97,2.61,18.65-1.47Z"/>
    </g>
    <g>
      <g>
        <path class="cls-1" d="M178.82,152.88l.56-20.24c2.25.97,4.29,2.38,5.98,4.2l3.06,3.32,3.01,3.39c1.99,2.26,3.96,4.51,5.89,6.77-2.72,2.24-5.85,3.55-9.04,3.93-3.2.43-6.46,0-9.46-1.37Z"/>
        <path class="cls-1" d="M187.08,136.43c3.5-2.92,7.99-4.33,12.63-4.02,2.35.19,4.59.82,6.63,1.82l-1.78,20.17c-2.07-1.04-3.97-2.53-5.58-4.44-1.92-2.32-3.87-4.52-5.85-6.79-1.98-2.24-3.99-4.54-6.04-6.74Z"/>
      </g>
      <path class="cls-2" d="M197.33,150.32c-1.93-2.26-3.89-4.51-5.89-6.77l-3.01-3.39-3.06-3.32c-1.69-1.81-3.73-3.22-5.98-4.2l.05-1.62c2.47.98,4.71,2.43,6.6,4.31,1.91-1.63,4.08-2.81,6.42-3.55,2.33-.73,4.84-1.08,7.37-.88,2.34.19,4.59.78,6.66,1.71l-.14,1.62c-2.04-1-4.28-1.63-6.63-1.82-4.64-.32-9.13,1.09-12.63,4.02,2.05,2.2,4.06,4.5,6.04,6.74,1.98,2.27,3.94,4.47,5.85,6.79,1.62,1.92,3.52,3.4,5.58,4.44l-.14,1.61c-2.24-1.06-4.32-2.57-6.11-4.55-2.87,2.34-6.16,3.78-9.52,4.24-3.37.49-6.81.13-10-1.21l.04-1.61c3,1.36,6.26,1.8,9.46,1.37,3.2-.39,6.33-1.69,9.04-3.93Z"/>
    </g>
    <g>
      <g>
        <path class="cls-1" d="M153.14,153.03l-.83-20.23c2.32.78,4.45,2.08,6.27,3.77,2.21,2.06,4.37,4.17,6.51,6.3,2.13,2.14,4.23,4.21,6.3,6.4-2.57,2.36-5.6,3.91-8.75,4.49-3.15.64-6.42.4-9.49-.73Z"/>
        <path class="cls-1" d="M160.26,136.06c1.66-1.6,3.58-2.76,5.68-3.59,2.1-.82,4.37-1.27,6.7-1.21,2.36.04,4.65.51,6.75,1.39l-.56,20.24c-2.12-.91-4.1-2.26-5.83-4.07-2.05-2.18-4.14-4.32-6.26-6.42-2.12-2.11-4.28-4.26-6.47-6.33Z"/>
      </g>
      <path class="cls-2" d="M171.38,149.27c-2.06-2.18-4.16-4.26-6.3-6.4-2.13-2.13-4.3-4.24-6.51-6.3-1.81-1.69-3.95-2.99-6.27-3.77l-.07-1.62c2.54.78,4.88,2.1,6.9,3.85,1.8-1.75,3.9-3.06,6.19-3.96,2.29-.89,4.78-1.4,7.32-1.33,2.35.04,4.65.47,6.77,1.27l-.05,1.63c-2.1-.88-4.39-1.35-6.75-1.39-2.33-.06-4.6.39-6.7,1.21-2.1.83-4.03,1.99-5.68,3.59,2.19,2.06,4.35,4.22,6.47,6.33,2.12,2.11,4.21,4.24,6.26,6.42,1.73,1.81,3.71,3.16,5.83,4.07l-.05,1.62c-2.29-.92-4.46-2.28-6.36-4.15-2.71,2.47-5.89,4.16-9.21,4.83-3.31.71-6.75.55-10.01-.54l-.07-1.61c3.07,1.13,6.34,1.37,9.49.73,3.15-.58,6.18-2.13,8.75-4.49Z"/>
    </g>
    <g>
      <g>
        <path class="cls-1" d="M127.74,155.13l-2.61-20.08c2.41.61,4.66,1.66,6.61,3.21,2.38,1.91,4.71,3.83,7,5.76,2.29,1.97,4.54,3.95,6.74,5.93-4.77,5.14-11.53,6.86-17.75,5.19Z"/>
        <path class="cls-1" d="M133.39,137.63c1.53-1.68,3.38-3.09,5.42-4.05,2.04-.96,4.29-1.55,6.63-1.71,2.37-.12,4.7.2,6.86.93l.83,20.23c-2.17-.76-4.23-1.98-6.08-3.67-4.39-3.98-8.94-7.94-13.67-11.73Z"/>
      </g>
      <path class="cls-2" d="M145.49,149.94c-2.21-1.98-4.45-3.95-6.74-5.93-2.29-1.93-4.62-3.84-7-5.76-1.95-1.55-4.21-2.6-6.61-3.21l-.21-1.6c2.63.58,5.1,1.62,7.27,3.23,1.67-1.85,3.67-3.36,5.91-4.45,2.23-1.05,4.69-1.7,7.26-1.87,2.37-.12,4.7.17,6.89.81l.07,1.62c-2.16-.73-4.49-1.05-6.86-.93-2.34.16-4.59.75-6.63,1.71-2.04.96-3.89,2.37-5.42,4.05,4.73,3.79,9.28,7.74,13.67,11.73,1.85,1.69,3.91,2.91,6.08,3.67l.07,1.62c-2.34-.75-4.58-1.98-6.61-3.71-5.02,5.46-12.09,7.33-18.66,5.8l-.21-1.6c6.23,1.67,12.99-.05,17.75-5.19Z"/>
    </g>
    <g>
      <g>
        <path class="cls-1" d="M103.38,160.15l-5.54-19.47c2.5.21,4.91.96,7.08,2.21,5.28,3.08,10.32,6.38,15.07,9.89-4.1,5.58-10.28,8.14-16.61,7.37Z"/>
        <path class="cls-1" d="M106.49,142.03c2.62-3.8,6.76-6.41,11.53-7.21,2.41-.4,4.86-.32,7.11.24l2.61,20.08c-2.2-.6-4.29-1.63-6.28-3.1-4.71-3.54-9.72-6.88-14.97-10Z"/>
      </g>
      <path class="cls-2" d="M119.99,152.78c-4.75-3.51-9.78-6.81-15.07-9.89-2.17-1.25-4.58-2-7.08-2.21l-.44-1.56c2.72.15,5.36.87,7.75,2.14,2.83-4.17,7.37-7.06,12.62-7.93,2.41-.4,4.88-.37,7.15.11l.21,1.61c-2.25-.56-4.7-.64-7.11-.24-4.78.8-8.91,3.41-11.53,7.21,5.25,3.12,10.26,6.46,14.97,10,1.99,1.47,4.08,2.5,6.28,3.1l.21,1.6c-2.36-.58-4.6-1.59-6.76-3.08-4.32,5.88-10.72,8.65-17.36,8.05l-.44-1.55c6.33.76,12.51-1.8,16.61-7.37Z"/>
    </g>
    <g>
      <g>
        <path class="cls-1" d="M79.93,168.65l-8.21-18.5c2.5-.14,4.99.25,7.32,1.2,5.66,2.31,11.11,4.86,16.33,7.63-3.26,6.11-9.06,9.54-15.43,9.67Z"/>
        <path class="cls-1" d="M80.46,150.27c2.05-4.13,5.76-7.3,10.34-8.78,2.32-.74,4.72-1.01,7.05-.81l5.54,19.47c-2.24-.26-4.49-.96-6.67-2.13-5.19-2.81-10.62-5.4-16.25-7.76Z"/>
      </g>
      <path class="cls-2" d="M95.36,158.98c-5.22-2.77-10.67-5.33-16.33-7.63-2.32-.94-4.81-1.34-7.32-1.2l-.66-1.48c2.71-.24,5.43.11,7.97,1.03,2.22-4.52,6.27-8.02,11.31-9.64,2.32-.75,4.73-1.05,7.07-.94l.44,1.56c-2.33-.2-4.73.07-7.05.81-4.58,1.47-8.29,4.65-10.34,8.78,5.64,2.35,11.06,4.94,16.25,7.76,2.18,1.17,4.43,1.87,6.67,2.13l.44,1.56c-2.39-.22-4.8-.88-7.16-2.05-3.44,6.46-9.43,10.12-16.08,10.46l-.65-1.47c6.37-.13,12.17-3.56,15.43-9.67Z"/>
    </g>
    <g>
      <g>
        <path class="cls-1" d="M58.02,180.36l-10.89-17.06c2.47-.52,5-.5,7.44.09,5.95,1.45,11.7,3.21,17.26,5.22-2.38,6.5-7.57,10.7-13.8,11.75Z"/>
        <path class="cls-1" d="M55.83,162.11c1.45-4.38,4.68-8.06,9.02-10.17,2.19-1.07,4.53-1.67,6.86-1.8l8.21,18.5c-2.25.05-4.58-.32-6.9-1.18-5.53-2.05-11.27-3.86-17.2-5.36Z"/>
      </g>
      <path class="cls-2" d="M71.83,168.61c-5.55-2.01-11.3-3.77-17.26-5.22-2.44-.59-4.97-.61-7.44-.09l-.87-1.36c2.67-.65,5.41-.72,8.08-.18,1.55-4.81,5.1-8.86,9.86-11.18,2.19-1.07,4.54-1.71,6.87-1.92l.66,1.49c-2.33.13-4.67.72-6.86,1.8-4.34,2.11-7.57,5.79-9.02,10.17,5.93,1.5,11.66,3.3,17.2,5.36,2.32.86,4.65,1.23,6.9,1.18l.66,1.48c-2.39.12-4.88-.2-7.37-1.02-2.5,6.88-7.87,11.32-14.33,12.61l-.87-1.36c6.24-1.05,11.43-5.25,13.8-11.75Z"/>
    </g>
    <g>
      <g>
        <path class="cls-1" d="M38.76,195.29l-14.01-14.62c2.36-1.05,4.9-1.52,7.42-1.39,6.15.32,12.12,1.12,17.89,2.25-1.3,6.78-5.55,11.65-11.3,13.76Z"/>
        <path class="cls-1" d="M33.21,177.79c.68-4.6,3.35-8.83,7.35-11.63,2.02-1.42,4.27-2.38,6.57-2.87l10.89,17.06c-2.2.38-4.54.36-6.96-.14-5.76-1.18-11.7-2.03-17.85-2.44Z"/>
      </g>
      <path class="cls-2" d="M50.06,181.53c-5.77-1.13-11.74-1.94-17.89-2.25-2.52-.12-5.06.34-7.42,1.39l-1.12-1.17c2.55-1.23,5.29-1.82,8.02-1.79.71-5.04,3.64-9.7,8.04-12.78,2.03-1.42,4.27-2.43,6.56-3l.87,1.37c-2.3.49-4.55,1.45-6.57,2.87-4,2.8-6.66,7.02-7.35,11.63,6.15.4,12.09,1.25,17.85,2.44,2.42.49,4.76.51,6.96.14l.87,1.36c-2.33.46-4.81.51-7.38.08-1.36,7.16-5.73,12.29-11.63,14.65l-1.11-1.16c5.76-2.11,10.01-6.98,11.3-13.76Z"/>
    </g>
    <g>
      <g>
        <path class="cls-1" d="M24.85,213.28l-18.16-8.95c1.98-1.99,4.32-3.36,6.82-4.04,6.11-1.64,12.05-2.29,17.87-2.37.18,3.39-.4,6.43-1.51,9-1.13,2.58-2.79,4.67-5.01,6.36Z"/>
        <path class="cls-1" d="M14.11,198.5c-.55-4.75,1.19-9.76,4.63-13.51,1.74-1.89,3.8-3.37,6.01-4.32l14.01,14.62c-2.05.75-4.28,1.16-6.73,1.17-5.8.02-11.8.54-17.92,2.04Z"/>
      </g>
      <path class="cls-2" d="M31.37,197.92c-5.81.08-11.76.73-17.87,2.37-2.5.68-4.84,2.06-6.82,4.04l-1.45-.72c2.12-2.28,4.65-3.85,7.34-4.7-.66-5.21,1.24-10.81,5.05-14.94,1.76-1.91,3.81-3.43,6-4.47l1.12,1.17c-2.22.95-4.27,2.43-6.01,4.32-3.44,3.74-5.18,8.75-4.63,13.51,6.11-1.5,12.12-2.02,17.92-2.04,2.45,0,4.68-.42,6.73-1.17l1.12,1.17c-2.15.84-4.49,1.35-7.06,1.44.18,3.57-.41,6.77-1.53,9.46-1.13,2.7-2.79,4.88-5,6.64l-1.44-.71c2.22-1.69,3.89-3.78,5.01-6.36,1.12-2.57,1.7-5.61,1.51-9Z"/>
    </g>
    <g>
      <g>
        <path class="cls-1" d="M22.71,230.83l-19,6.98c-.24-3.2.51-6.22,1.97-8.55,3.62-5.73,8.63-9.31,13.66-11.46,1.68,2.75,2.82,5.11,3.36,7.1.58,2,.5,3.71.01,5.94Z"/>
        <path class="cls-1" d="M5.02,227.26c-1.65-1.95-2.81-4.51-3.26-7.3-.47-2.79-.21-5.77.68-8.54.91-2.81,2.42-5.22,4.25-7.09l18.16,8.95c-1.55,1.2-3.38,2.2-5.57,3.06-5.15,2.03-10.3,5.39-14.26,10.91Z"/>
      </g>
      <path class="cls-2" d="M19.34,217.8c-5.04,2.15-10.04,5.73-13.66,11.46-1.46,2.33-2.2,5.35-1.97,8.55l-1.52.56c-.39-3.6.35-7.03,1.9-9.67-1.92-2.12-3.28-5-3.81-8.13-.55-3.13-.29-6.51.72-9.61.93-2.87,2.43-5.37,4.23-7.34l1.46.72c-1.83,1.86-3.34,4.28-4.25,7.09-.89,2.77-1.16,5.74-.68,8.54.46,2.79,1.61,5.35,3.26,7.3,3.97-5.52,9.12-8.88,14.26-10.91,2.18-.86,4.02-1.86,5.57-3.06l1.45.72c-1.59,1.27-3.45,2.33-5.68,3.27,1.76,2.9,2.88,5.35,3.52,7.3.29,1,.45,1.89.47,2.79,0,.91-.14,1.84-.38,2.91l-1.51.56c.49-2.23.57-3.93-.01-5.94-.54-1.99-1.68-4.35-3.36-7.1Z"/>
    </g>
    <g>
      <g>
        <path class="cls-1" d="M35.43,242.51l-7.39,18.85c-1.1-.92-2.08-1.92-2.88-3.07-.81-1.1-1.45-2.34-1.9-3.59-1.08-3.08-1.79-6.17-1.96-9.18-.12-1.47-.05-2.98.07-4.35.19-1.44.41-2.74.84-4.04,3.09.16,5.46.42,7.52,1.21,2.05.78,3.89,2.13,5.71,4.17Z"/>
        <path class="cls-1" d="M21.33,254.08c-.62.06-1.26.08-1.91.06-.64-.04-1.29-.13-1.94-.25-1.32-.21-2.62-.72-3.93-1.31-2.56-1.29-5.01-3.37-6.83-6.07-1.77-2.64-2.82-5.73-3.02-8.71l19-6.98c-.34,1.56-.93,3.41-1.63,5.55-1.87,5.03-1.75,11.43.26,17.7Z"/>
      </g>
      <path class="cls-2" d="M22.2,237.14c-.43,1.29-.65,2.6-.84,4.04-.11,1.37-.19,2.88-.07,4.35.18,3.01.88,6.1,1.96,9.18.45,1.25,1.08,2.5,1.9,3.59.81,1.15,1.78,2.15,2.88,3.07l-.59,1.51c-2.52-1.91-4.48-4.48-5.58-7.19-2.72.29-5.75-.1-8.65-1.53-2.9-1.39-5.69-3.72-7.75-6.78-1.82-2.72-2.97-5.89-3.29-8.99l1.53-.56c.2,2.98,1.25,6.07,3.02,8.71,1.82,2.7,4.27,4.78,6.83,6.07,1.31.6,2.6,1.1,3.93,1.31.66.12,1.3.2,1.94.25.65.02,1.28,0,1.91-.06-2.01-6.27-2.13-12.67-.26-17.7.71-2.14,1.29-3.99,1.63-5.55l1.52-.56c-.36,1.54-.91,3.39-1.63,5.63,3.2.2,5.61.36,7.67,1.08,2.05.71,3.88,2.01,5.75,4.03l-.59,1.5c-1.82-2.04-3.66-3.39-5.71-4.17-2.06-.79-4.43-1.05-7.52-1.21Z"/>
    </g>
    <g>
      <g>
        <path class="cls-1" d="M57.54,245.88l.21,20.24c-1.23-.45-2.39-1-3.47-1.68-1.08-.7-2.08-1.51-2.96-2.42-4.3-4.49-8.05-9.31-10.76-14.33,2.79-1.83,5.58-2.84,8.43-3.17,2.84-.31,5.73.12,8.55,1.34Z"/>
        <path class="cls-1" d="M49.5,262.38c-3.77,2.82-8.97,3.92-14.25,2.6-1.33-.29-2.63-.85-3.84-1.41-1.21-.64-2.35-1.34-3.38-2.21l7.39-18.85c.63.73,1.28,1.5,1.86,2.41.62.86,1.19,1.86,1.73,2.91,2.58,5.07,6.25,9.97,10.48,14.54Z"/>
      </g>
      <path class="cls-2" d="M40.56,247.7c2.71,5.02,6.47,9.84,10.76,14.33.88.91,1.88,1.72,2.96,2.42,1.08.67,2.24,1.23,3.47,1.68l.02,1.62c-1.36-.45-2.65-1-3.86-1.71-1.21-.73-2.32-1.55-3.32-2.51-4.08,3.14-9.82,4.39-15.71,2.92-1.35-.3-2.68-.85-3.92-1.4-1.25-.63-2.43-1.32-3.52-2.17l.59-1.51c1.03.87,2.16,1.56,3.38,2.21,1.21.56,2.51,1.11,3.84,1.41,5.29,1.32,10.49.22,14.25-2.6-4.24-4.57-7.9-9.47-10.48-14.54-.54-1.06-1.11-2.05-1.73-2.91-.58-.91-1.23-1.68-1.86-2.41l.59-1.51c1.34,1.45,2.66,3.27,3.87,5.45,5.78-3.76,11.68-4.54,17.63-2.18l.02,1.61c-2.82-1.22-5.71-1.66-8.55-1.34-2.85.32-5.64,1.33-8.43,3.17Z"/>
    </g>
    <g>
      <g>
        <path class="cls-1" d="M81.7,242.99l4.21,19.8c-2.49-.37-4.86-1.27-6.95-2.69-5.07-3.44-9.85-7.13-14.18-11.08,4.51-5.17,10.68-7.2,16.92-6.03Z"/>
        <path class="cls-1" d="M77.33,260.85c-2.92,3.59-7.33,5.9-12.3,6.25-1.26.07-2.51.04-3.73-.12-1.23-.18-2.42-.46-3.56-.85l-.21-20.24c1,.41,1.98.93,2.94,1.57.96.62,1.9,1.33,2.8,2.17,4.28,3.99,9.02,7.72,14.06,11.22Z"/>
      </g>
      <path class="cls-2" d="M64.78,249.02c4.33,3.94,9.11,7.64,14.18,11.08,2.08,1.42,4.46,2.32,6.95,2.69l.34,1.58c-2.72-.33-5.32-1.21-7.64-2.67-3.15,3.96-8,6.52-13.47,6.9-1.27.07-2.52.05-3.76-.09-1.24-.16-2.45-.41-3.61-.77l-.02-1.63c1.14.39,2.33.67,3.56.85,1.22.16,2.47.19,3.73.12,4.97-.35,9.38-2.66,12.3-6.25-5.04-3.5-9.78-7.24-14.06-11.22-.9-.84-1.84-1.55-2.8-2.17-.96-.64-1.94-1.16-2.94-1.57l-.02-1.62c1.06.41,2.12.93,3.15,1.58,1.04.61,2.05,1.35,3.03,2.21,4.74-5.45,11.12-7.66,17.67-6.64l.34,1.58c-6.24-1.17-12.41.87-16.92,6.03Z"/>
    </g>
    <g>
      <g>
        <path class="cls-1" d="M105.72,236.06l6.84,19.05c-2.48-.03-4.93-.63-7.18-1.72-5.48-2.71-10.75-5.57-15.78-8.7,3.64-5.88,9.69-8.95,16.12-8.64Z"/>
        <path class="cls-1" d="M103.9,254.37c-2.32,3.97-6.21,6.88-10.88,8.07-2.37.59-4.79.71-7.11.35l-4.21-19.8c2.2.43,4.4,1.26,6.5,2.57,4.99,3.13,10.25,6.09,15.7,8.81Z"/>
      </g>
      <path class="cls-2" d="M89.6,244.7c5.03,3.12,10.3,5.99,15.78,8.7,2.24,1.09,4.7,1.68,7.18,1.72l.55,1.52c-2.69.05-5.37-.52-7.83-1.6-2.51,4.34-6.75,7.57-11.89,8.87-2.37.59-4.8.75-7.14.47l-.34-1.59c2.32.36,4.74.24,7.11-.35,4.67-1.19,8.56-4.1,10.88-8.07-5.45-2.72-10.71-5.68-15.7-8.81-2.1-1.31-4.3-2.15-6.5-2.57l-.34-1.58c2.35.4,4.71,1.2,6.98,2.53,3.84-6.21,10.1-9.51,16.83-9.39l.54,1.52c-6.43-.31-12.47,2.75-16.12,8.64Z"/>
    </g>
    <g>
      <g>
        <path class="cls-1" d="M129.03,226.22l8.82,18.22c-2.46.21-4.94-.11-7.28-.95-5.73-2.1-11.29-4.33-16.7-6.79,2.92-6.3,8.7-10.09,15.16-10.48Z"/>
        <path class="cls-1" d="M129.2,244.62c-1.83,4.22-5.31,7.51-9.73,9.27-2.25.85-4.59,1.3-6.91,1.23l-6.84-19.05c2.28.13,4.58.64,6.84,1.69,5.37,2.46,10.95,4.78,16.64,6.87Z"/>
      </g>
      <path class="cls-2" d="M113.87,236.7c5.41,2.46,10.98,4.69,16.7,6.79,2.34.84,4.82,1.16,7.28.95l.71,1.46c-2.67.3-5.35.06-7.91-.77-1.98,4.6-5.77,8.25-10.62,10.16-2.25.85-4.59,1.34-6.92,1.35l-.55-1.53c2.33.07,4.66-.37,6.91-1.23,4.42-1.76,7.9-5.05,9.73-9.27-5.69-2.09-11.26-4.41-16.64-6.87-2.27-1.05-4.57-1.56-6.84-1.69l-.55-1.52c2.43.08,4.9.53,7.34,1.57,3.07-6.67,9.05-10.71,15.82-11.33l.7,1.45c-6.47.39-12.24,4.18-15.16,10.48Z"/>
    </g>
    <g>
      <g>
        <path class="cls-1" d="M151.4,214.07l10.44,17.34c-2.41.44-4.92.32-7.32-.28-5.88-1.55-11.64-3.25-17.29-5.14,2.29-6.59,7.74-10.93,14.17-11.92Z"/>
        <path class="cls-1" d="M153.28,232.38c-1.43,4.34-4.52,7.99-8.73,10.13-2.12,1.11-4.41,1.73-6.7,1.93l-8.82-18.22c2.28-.16,4.66.17,7.01.94,5.63,1.93,11.37,3.64,17.24,5.22Z"/>
      </g>
      <path class="cls-2" d="M137.24,225.99c5.64,1.89,11.41,3.59,17.29,5.14,2.4.61,4.91.73,7.32.28l.83,1.39c-2.6.56-5.31.52-7.92-.04-1.54,4.74-4.91,8.75-9.52,11.1-2.11,1.11-4.4,1.77-6.68,2.05l-.71-1.46c2.29-.2,4.58-.82,6.7-1.93,4.21-2.14,7.3-5.79,8.73-10.13-5.87-1.58-11.61-3.29-17.24-5.22-2.35-.77-4.73-1.1-7.01-.94l-.71-1.46c2.43-.22,4.97.02,7.5.77,2.41-6.96,8.04-11.59,14.75-12.84l.83,1.38c-6.43.99-11.88,5.34-14.17,11.92Z"/>
    </g>
    <g>
      <g>
        <path class="cls-1" d="M172.73,200l11.82,16.43c-2.38.61-4.87.73-7.31.31-5.99-1.07-11.87-2.26-17.67-3.64,1.71-6.77,6.81-11.59,13.15-13.1Z"/>
        <path class="cls-1" d="M176.11,218.08c-1.05,4.45-3.81,8.33-7.79,10.83-2,1.28-4.21,2.11-6.47,2.5l-10.44-17.34c2.27-.36,4.67-.26,7.08.3,2.89.71,5.81,1.37,8.74,1.98,2.95.63,5.9,1.19,8.88,1.74Z"/>
      </g>
      <path class="cls-2" d="M159.58,213.1c5.8,1.38,11.68,2.58,17.67,3.64,2.44.41,4.93.3,7.31-.31l.95,1.31c-2.56.74-5.23.96-7.89.6-1.13,4.85-4.13,9.12-8.49,11.85-2,1.28-4.2,2.14-6.44,2.62l-.84-1.39c2.26-.39,4.47-1.22,6.47-2.5,3.98-2.5,6.74-6.38,7.79-10.83-2.99-.54-5.94-1.1-8.88-1.74-2.93-.61-5.85-1.27-8.74-1.98-2.41-.56-4.82-.66-7.08-.3l-.83-1.39c2.41-.44,4.97-.43,7.56.08,1.8-7.15,7.06-12.28,13.66-14.07l.94,1.31c-6.34,1.51-11.44,6.33-13.15,13.1Z"/>
    </g>
    <g>
      <g>
        <path class="cls-1" d="M192.93,184.24l13.04,15.49c-2.32.8-4.77,1.11-7.26.86-3.02-.29-6.01-.62-9-1-2.98-.36-5.94-.78-8.89-1.24,1.18-6.88,5.9-12.1,12.11-14.11Z"/>
        <path class="cls-1" d="M197.68,202.02c-.69,4.52-3.14,8.58-6.89,11.39-1.89,1.44-4.03,2.42-6.23,3.01l-11.82-16.43c2.23-.56,4.64-.66,7.1-.28,5.87.92,11.83,1.7,17.86,2.31Z"/>
      </g>
      <path class="cls-2" d="M180.81,198.35c2.95.46,5.92.87,8.89,1.24,2.99.38,5.99.71,9,1,2.49.25,4.94-.07,7.26-.86l1.04,1.24c-2.48.94-5.12,1.36-7.81,1.19-.36,2.48-1.21,4.82-2.49,6.93-1.26,2.13-2.97,4-5.01,5.54-1.88,1.43-4.01,2.45-6.19,3.12l-.95-1.32c2.2-.59,4.35-1.57,6.23-3.01,3.75-2.81,6.2-6.87,6.89-11.39-6.02-.61-11.99-1.39-17.86-2.31-2.46-.37-4.87-.27-7.1.28l-.95-1.31c2.36-.66,4.93-.84,7.55-.54,1.24-7.27,6.09-12.83,12.55-15.13l1.04,1.23c-6.21,2.01-10.93,7.23-12.11,14.11Z"/>
    </g>
    <g>
      <g>
        <path class="cls-1" d="M211.94,167.02l14.12,14.51c-2.27.94-4.68,1.44-7.17,1.38-6.07-.16-12.07-.46-18.01-.92.65-6.98,5.01-12.52,11.07-14.97Z"/>
        <path class="cls-1" d="M217.97,184.41c-.36,4.56-2.5,8.78-6.02,11.86-1.79,1.56-3.81,2.74-5.98,3.46l-13.04-15.49c2.21-.7,4.58-1.01,7.06-.82,5.94.49,11.93.82,17.98.99Z"/>
      </g>
      <path class="cls-2" d="M200.88,182c5.94.46,11.94.76,18.01.92,2.49.06,4.91-.44,7.17-1.38l1.13,1.16c-2.43,1.09-5.01,1.72-7.69,1.75-.38,4.96-2.69,9.61-6.55,12.97-1.78,1.55-3.79,2.77-5.93,3.56l-1.05-1.24c2.18-.72,4.2-1.9,5.98-3.46,3.53-3.08,5.66-7.3,6.02-11.86-6.05-.17-12.04-.5-17.98-.99-2.49-.19-4.86.12-7.06.82l-1.04-1.24c2.34-.81,4.85-1.24,7.5-1.11.68-7.37,5.16-13.24,11.44-16.02l1.12,1.15c-6.05,2.46-10.42,8-11.07,14.97Z"/>
    </g>
    <g>
      <g>
        <path class="cls-1" d="M229.73,148.49l15.08,13.5c-2.19,1.1-4.58,1.75-7.05,1.87-3.04.13-6.06.22-9.05.29-3.01.05-6.01.07-8.98.06.16-7,4.12-12.86,10.01-15.72Z"/>
        <path class="cls-1" d="M236.94,165.42c-.03,2.28-.49,4.52-1.36,6.59-.89,2.06-2.16,3.99-3.8,5.65-1.68,1.66-3.61,2.99-5.72,3.87l-14.12-14.51c2.14-.86,4.48-1.35,6.99-1.33,5.95.05,11.96-.04,18.01-.28Z"/>
      </g>
      <path class="cls-2" d="M219.72,164.21c2.97,0,5.97,0,8.98-.06,2.99-.07,6.02-.16,9.05-.29,2.47-.12,4.86-.77,7.05-1.87l1.21,1.08c-2.34,1.26-4.89,2.05-7.55,2.27-.02,2.48-.53,4.92-1.46,7.2-.97,2.26-2.35,4.37-4.15,6.18-1.68,1.66-3.58,3.02-5.66,3.97l-1.13-1.17c2.11-.88,4.03-2.21,5.72-3.87,1.64-1.66,2.91-3.59,3.8-5.65.87-2.08,1.33-4.32,1.36-6.59-6.05.24-12.06.33-18.01.28-2.51-.02-4.84.46-6.99,1.33l-1.13-1.16c2.27-.99,4.74-1.59,7.41-1.65.15-7.41,4.22-13.6,10.3-16.8l1.2,1.07c-5.89,2.86-9.85,8.72-10.01,15.72Z"/>
    </g>
    <g>
      <g>
        <path class="cls-1" d="M246.23,128.77l15.94,12.48c-2.11,1.24-4.45,2.05-6.91,2.33-3.03.32-6.03.62-9.01.89-3,.26-6,.47-8.96.67-.32-7,3.25-13.12,8.94-16.37Z"/>
        <path class="cls-1" d="M254.55,145.18c.12,2.27-.18,4.54-.91,6.67-.74,2.12-1.88,4.13-3.4,5.89-1.56,1.77-3.4,3.22-5.43,4.25l-15.08-13.5c2.07-1.02,4.38-1.66,6.88-1.81,5.94-.36,11.93-.85,17.94-1.5Z"/>
      </g>
      <path class="cls-2" d="M237.29,145.14c2.96-.2,5.96-.41,8.96-.67,2.98-.27,5.99-.57,9.01-.89,2.46-.29,4.8-1.1,6.91-2.33l1.27,1c-2.25,1.41-4.73,2.37-7.38,2.76.14,2.48-.19,4.94-.97,7.28-.81,2.31-2.05,4.51-3.72,6.45-1.56,1.77-3.37,3.24-5.36,4.34l-1.21-1.08c2.03-1.03,3.87-2.47,5.43-4.25,1.52-1.77,2.66-3.78,3.4-5.89.73-2.13,1.03-4.4.91-6.67-6.01.65-12.01,1.14-17.94,1.5-2.5.15-4.81.79-6.88,1.81l-1.21-1.08c2.18-1.15,4.63-1.92,7.28-2.16-.36-7.41,3.3-13.86,9.16-17.47l1.27.99c-5.68,3.25-9.25,9.37-8.94,16.37Z"/>
    </g>
    <g>
      <g>
        <path class="cls-1" d="M263.47,107.99l15.15,13.43c-2.08,1.04-4.42,1.65-6.85,1.82-2.96.2-5.97.42-8.96.68-2.98.28-5.99.57-9.02.9-.42-7.09,3.57-13.73,9.69-16.84Z"/>
        <path class="cls-1" d="M271.06,124.79c.21,4.47-1.12,8.73-3.88,12.16-1.4,1.77-3.04,3.13-5.02,4.29l-15.94-12.48c2.03-1.16,4.42-2.04,6.91-2.33,6.01-.69,11.98-1.25,17.93-1.64Z"/>
      </g>
      <path class="cls-2" d="M253.79,124.82c3.02-.33,6.03-.63,9.02-.9,3-.26,6-.48,8.96-.68,2.43-.17,4.77-.78,6.85-1.82l1.21,1.07c-2.21,1.19-4.7,1.9-7.28,2.19.25,4.87-1.2,9.5-4.19,13.23-1.39,1.75-2.99,3.13-4.92,4.34l-1.28-1c1.97-1.15,3.62-2.52,5.02-4.29,2.76-3.43,4.09-7.69,3.88-12.16-5.95.39-11.92.95-17.93,1.64-2.5.29-4.89,1.17-6.91,2.33l-1.27-1c2.14-1.3,4.68-2.35,7.33-2.75-.5-7.52,3.61-14.6,9.99-18.1l1.21,1.07c-6.12,3.11-10.11,9.75-9.69,16.84Z"/>
    </g>
    <g>
      <g>
        <path class="cls-1" d="M282.12,88.34l14.19,14.44c-2.15.9-4.52,1.35-6.96,1.35-2.97,0-5.98.01-8.99.07-2.99.07-6.02.16-9.06.3.05-7.11,4.49-13.46,10.81-16.16Z"/>
        <path class="cls-1" d="M288.54,105.63c-.08,4.48-1.7,8.63-4.68,11.87-1.49,1.66-3.3,2.94-5.24,3.91l-15.15-13.43c2.13-1.13,4.56-1.77,7.07-1.92,6.04-.3,12.04-.44,17.99-.43Z"/>
      </g>
      <path class="cls-2" d="M271.31,104.5c3.03-.14,6.06-.23,9.06-.3,3.01-.06,6.02-.07,8.99-.07,2.44,0,4.81-.45,6.96-1.35l1.13,1.15c-2.28,1.03-4.81,1.58-7.41,1.68-.07,4.88-1.83,9.39-5.05,12.91-1.47,1.64-3.25,2.94-5.14,3.97l-1.22-1.08c1.94-.98,3.75-2.26,5.24-3.91,2.97-3.24,4.59-7.39,4.68-11.87-5.96-.01-11.95.14-17.99.43-2.52.15-4.95.79-7.07,1.92l-1.21-1.07c2.26-1.28,4.84-2.07,7.53-2.32,0-7.55,4.6-14.33,11.2-17.4l1.13,1.15c-6.32,2.69-10.76,9.05-10.81,16.16Z"/>
    </g>
    <g>
      <g>
        <path class="cls-1" d="M302.11,70.04l13.12,15.42c-2.22.73-4.58,1.04-7.03.85-2.97-.23-5.95-.4-8.97-.56-3-.14-6.01-.25-9.06-.33.53-7.1,5.45-13.11,11.94-15.37Z"/>
        <path class="cls-1" d="M307.29,87.73c-.19,2.24-.77,4.35-1.7,6.29-.91,1.96-2.2,3.7-3.79,5.21-1.6,1.55-3.48,2.71-5.49,3.54l-14.19-14.44c2.21-.97,4.67-1.46,7.19-1.43,6.05.12,12.05.4,17.98.82Z"/>
      </g>
      <path class="cls-2" d="M290.17,85.41c3.05.09,6.06.19,9.06.33,3.02.16,6,.34,8.97.56,2.45.19,4.82-.12,7.03-.85l1.05,1.23c-2.36.85-4.88,1.26-7.51,1.14-.2,2.44-.82,4.75-1.83,6.85-.99,2.13-2.37,4.03-4.1,5.67-1.58,1.53-3.43,2.71-5.39,3.6l-1.14-1.16c2.01-.83,3.89-1.99,5.49-3.54,1.59-1.51,2.88-3.26,3.79-5.21.93-1.94,1.51-4.05,1.7-6.29-5.93-.42-11.93-.7-17.98-.82-2.52-.03-4.98.46-7.19,1.43l-1.13-1.15c2.36-1.11,4.98-1.74,7.67-1.8.52-7.53,5.62-13.97,12.41-16.58l1.04,1.23c-6.48,2.26-11.4,8.27-11.94,15.37Z"/>
    </g>
    <g>
      <g>
        <path class="cls-1" d="M323.43,53.23l11.92,16.36c-2.27.55-4.66.66-7.07.31-2.95-.46-5.92-.86-8.9-1.23-3-.38-5.99-.7-9.01-.99,1.03-7.07,6.41-12.7,13.06-14.46Z"/>
        <path class="cls-1" d="M327.26,71.27c-.72,4.42-2.91,8.29-6.31,11.06-1.73,1.4-3.64,2.47-5.73,3.12l-13.12-15.42c2.3-.79,4.75-1.14,7.28-.92,6.04.57,11.99,1.27,17.87,2.15Z"/>
      </g>
      <path class="cls-2" d="M310.37,67.69c3.02.29,6.02.61,9.01.99,2.98.36,5.95.77,8.9,1.23,2.41.35,4.8.24,7.07-.31l.95,1.31c-2.42.65-4.97.86-7.56.57-.79,4.8-3.14,9.02-6.83,12.02-1.71,1.38-3.59,2.48-5.63,3.19l-1.05-1.24c2.09-.65,4-1.72,5.73-3.12,3.39-2.78,5.58-6.64,6.31-11.06-5.88-.87-11.84-1.58-17.87-2.15-2.53-.22-4.98.13-7.28.92l-1.05-1.23c2.46-.92,5.07-1.4,7.79-1.24,1.06-7.5,6.65-13.53,13.63-15.63l.95,1.3c-6.65,1.76-12.03,7.39-13.06,14.46Z"/>
    </g>
    <g>
      <g>
        <path class="cls-1" d="M346.05,38.11l10.55,17.28c-2.31.34-4.67.3-7.06-.27-5.8-1.37-11.69-2.56-17.68-3.62,1.59-6.95,7.41-12.17,14.2-13.39Z"/>
        <path class="cls-1" d="M348.41,56.39c-1.06,4.36-3.54,8.02-7.13,10.53-1.81,1.28-3.83,2.15-5.93,2.68l-11.92-16.36c2.33-.65,4.84-.78,7.34-.36,5.97,1.01,11.86,2.2,17.64,3.52Z"/>
      </g>
      <path class="cls-2" d="M331.85,51.5c5.99,1.05,11.88,2.24,17.68,3.62,2.39.57,4.75.61,7.06.27l.84,1.38c-2.46.44-4.99.47-7.57-.05-.58,2.36-1.52,4.56-2.84,6.47-1.29,1.95-2.94,3.6-4.88,4.97-1.79,1.26-3.78,2.16-5.84,2.75l-.96-1.31c2.1-.53,4.12-1.4,5.93-2.68,3.58-2.51,6.07-6.17,7.13-10.53-5.78-1.32-11.68-2.52-17.64-3.52-2.5-.41-5-.28-7.34.36l-.95-1.31c2.5-.77,5.19-1,7.87-.66,1.64-7.39,7.71-13,14.86-14.53l.84,1.37c-6.79,1.22-12.6,6.44-14.2,13.39Z"/>
    </g>
    <g>
      <g>
        <path class="cls-1" d="M369.95,24.93l8.95,18.16c-2.32.14-4.67-.13-6.99-.9-2.83-.95-5.67-1.81-8.57-2.69-2.87-.83-5.8-1.66-8.74-2.42,2.17-6.81,8.45-11.53,15.35-12.15Z"/>
        <path class="cls-1" d="M370.68,43.35c-1.43,4.25-4.2,7.67-7.96,9.87-1.92,1.1-3.98,1.83-6.12,2.17l-10.55-17.28c2.39-.44,4.88-.4,7.35.23,5.86,1.49,11.65,3.19,17.28,5.01Z"/>
      </g>
      <path class="cls-2" d="M354.6,37.07c2.94.76,5.87,1.59,8.74,2.42,2.9.88,5.74,1.74,8.57,2.69,2.32.77,4.67,1.04,6.99.9l.72,1.45c-2.48.21-5,0-7.51-.74-1.55,4.61-4.55,8.34-8.62,10.72-1.89,1.09-3.93,1.84-6.03,2.25l-.85-1.39c2.14-.34,4.2-1.07,6.12-2.17,3.76-2.2,6.54-5.62,7.96-9.87-5.63-1.82-11.41-3.52-17.28-5.01-2.47-.63-4.96-.68-7.35-.23l-.84-1.38c2.56-.55,5.25-.6,7.91-.01,2.26-7.24,8.83-12.34,16.12-13.23l.71,1.44c-6.9.61-13.18,5.34-15.35,12.15Z"/>
    </g>
    <g>
      <g>
        <path class="cls-1" d="M395.14,14.06l7,19c-2.29-.07-4.61-.65-6.83-1.62-5.42-2.46-10.99-4.67-16.73-6.77,2.81-6.58,9.59-10.71,16.56-10.61Z"/>
        <path class="cls-1" d="M393.98,32.47c-1.84,4.06-4.89,7.21-8.83,9.02-1.99.93-4.11,1.44-6.26,1.59l-8.95-18.16c2.42-.24,4.92.05,7.32.89,5.72,2.03,11.3,4.25,16.72,6.65Z"/>
      </g>
      <path class="cls-2" d="M378.58,24.66c5.74,2.1,11.31,4.31,16.73,6.77,2.21.97,4.54,1.55,6.83,1.62l.56,1.52c-2.46,0-4.95-.54-7.35-1.5-2,4.4-5.29,7.85-9.55,9.8-1.97.92-4.06,1.46-6.18,1.67l-.72-1.46c2.15-.15,4.27-.66,6.26-1.59,3.94-1.81,6.99-4.97,8.83-9.02-5.42-2.41-11-4.62-16.72-6.65-2.4-.84-4.9-1.13-7.32-.89l-.72-1.45c2.61-.33,5.31-.11,7.91.69,2.94-7,10.04-11.48,17.44-11.63l.56,1.51c-6.97-.1-13.75,4.03-16.56,10.61Z"/>
    </g>
    <g>
      <g>
        <path class="cls-1" d="M421.7,6.14l4.43,19.75c-2.23-.4-4.43-1.24-6.5-2.5-5.05-3.12-10.33-5.97-15.82-8.67,3.54-6.24,10.89-9.6,17.89-8.58Z"/>
        <path class="cls-1" d="M418.19,24.26c-2.3,3.8-5.64,6.54-9.71,7.92-2.07.67-4.19,1-6.35.88l-7-19c2.47.05,4.91.55,7.22,1.67,5.48,2.63,10.78,5.49,15.83,8.54Z"/>
      </g>
      <path class="cls-2" d="M403.81,14.72c5.49,2.7,10.78,5.55,15.82,8.67,2.07,1.26,4.27,2.1,6.5,2.5l.35,1.58c-2.39-.36-4.77-1.2-7.02-2.45-2.49,4.12-6.1,7.12-10.5,8.59-2.04.66-4.14,1.02-6.26.97l-.56-1.53c2.15.12,4.28-.2,6.35-.88,4.06-1.38,7.41-4.12,9.71-7.92-5.05-3.04-10.35-5.91-15.83-8.54-2.31-1.12-4.76-1.62-7.22-1.67l-.56-1.52c2.67-.03,5.33.42,7.84,1.53,3.72-6.64,11.44-10.33,18.92-9.5l.35,1.57c-7-1.01-14.35,2.34-17.89,8.58Z"/>
    </g>
    <g>
      <g>
        <path class="cls-1" d="M449.74,2.43l.57,20.24c-1.02-.43-2.01-.93-2.98-1.53-.97-.61-1.9-1.33-2.8-2.12-4.36-3.93-9.16-7.62-14.25-11.05,4.45-5.67,12.54-7.89,19.46-5.54Z"/>
        <path class="cls-1" d="M443,19.62c-2.85,3.37-6.45,5.53-10.58,6.28-1.05.2-2.1.29-3.15.28-1.05,0-2.1-.09-3.14-.29l-4.43-19.75c1.23.18,2.45.47,3.62.9,1.18.45,2.31,1.02,3.38,1.71,5.1,3.39,9.91,7.01,14.3,10.87Z"/>
      </g>
      <path class="cls-2" d="M430.29,7.97c5.09,3.43,9.89,7.12,14.25,11.05.9.79,1.83,1.51,2.8,2.12.97.6,1.97,1.1,2.98,1.53l.05,1.62c-1.09-.43-2.16-.93-3.21-1.54-1.05-.63-2.07-1.34-3.05-2.16-3.08,3.64-6.96,5.99-11.41,6.8-1.03.2-2.07.3-3.1.3-1.04.02-2.07-.04-3.11-.21l-.36-1.59c1.04.2,2.09.29,3.14.29,1.05.02,2.1-.08,3.15-.28,4.13-.75,7.73-2.92,10.58-6.28-4.39-3.86-9.21-7.48-14.3-10.87-1.07-.7-2.2-1.27-3.38-1.71-1.17-.43-2.38-.72-3.62-.9l-.35-1.58c2.68.28,5.3,1.14,7.65,2.56,4.68-6.06,13.22-8.55,20.71-6.3l.05,1.61c-6.92-2.35-15.01-.13-19.46,5.54Z"/>
    </g>
    <g>
      <g>
        <path class="cls-1" d="M479.38,6.35l-6.63,19.13c-1.36-1.43-2.69-3.14-3.82-5.2-2.77-5.02-6.57-9.81-10.89-14.3,2.9-2.24,6.57-3.46,10.41-3.39,3.82.05,7.79,1.35,10.94,3.76Z"/>
        <path class="cls-1" d="M467.36,20.43c-3.52,2.43-7.21,3.67-11.17,3.53-1-.05-2-.17-2.98-.38-.98-.23-1.95-.52-2.9-.91l-.57-20.24c1.21.4,2.38.92,3.48,1.6,1.1.67,2.11,1.44,3.04,2.38,4.36,4.4,8.21,9.11,11.1,14.03Z"/>
      </g>
      <path class="cls-2" d="M458.03,5.98c4.33,4.49,8.12,9.28,10.89,14.3,1.13,2.06,2.46,3.77,3.82,5.2l-.53,1.53c-1.44-1.46-2.87-3.21-4.13-5.36-3.8,2.62-7.71,3.98-11.95,3.82-.97-.05-1.95-.16-2.91-.35-.96-.21-1.92-.48-2.86-.82l-.05-1.63c.95.39,1.92.68,2.9.91.98.21,1.98.33,2.98.38,3.96.15,7.65-1.09,11.17-3.53-2.89-4.92-6.74-9.63-11.1-14.03-.92-.94-1.94-1.71-3.04-2.38-1.1-.68-2.27-1.2-3.48-1.6l-.05-1.62c1.33.39,2.63.92,3.84,1.61,1.21.67,2.35,1.49,3.38,2.45,3.05-2.45,6.95-3.77,11.07-3.79,4.1-.04,8.42,1.25,11.92,3.75l-.53,1.52c-3.14-2.41-7.12-3.72-10.94-3.76-3.84-.07-7.51,1.15-10.41,3.39Z"/>
    </g>
    <g>
      <g>
        <path class="cls-1" d="M504.89,28.26l-18.44,8.35c.14-.82.27-1.7.48-2.65.09-.47.21-.97.34-1.48.12-.49.25-.99.41-1.53.74-2.57,1.02-5.49.75-8.48-.1-1.54-.38-3.01-.71-4.6-.38-1.5-.82-3.11-1.39-4.62,3.82-.61,8.18.54,11.79,3.39,1.81,1.39,3.36,3.24,4.56,5.25,1.12,1.99,1.91,4.14,2.21,6.36Z"/>
        <path class="cls-1" d="M486.52,30.24c-1.95,0-3.76.01-5.29-.25-1.62-.2-3.01-.66-4.43-1.4-1.45-.73-2.75-1.81-4.06-3.11l6.63-19.13c2.23,1.66,4.01,3.93,5.03,6.42,2.43,6.02,3.35,12.25,2.1,17.47Z"/>
      </g>
      <path class="cls-2" d="M486.33,13.25c.58,1.51,1.02,3.12,1.39,4.62.33,1.59.61,3.06.71,4.6.27,2.99-.01,5.9-.75,8.48-.15.53-.29,1.04-.41,1.53-.14.52-.25,1.01-.34,1.48-.21.96-.35,1.83-.48,2.65l-1.47.67c.25-1.6.62-3.59,1.24-5.76-4.28.04-7.22-.03-10.11-1.59-1.36-.69-2.6-1.7-3.88-2.91l.53-1.54c1.31,1.3,2.61,2.38,4.06,3.11,1.42.74,2.81,1.2,4.43,1.4,1.53.26,3.34.26,5.29.25,1.24-5.22.32-11.45-2.1-17.47-1.03-2.49-2.81-4.76-5.03-6.42l.53-1.53c2.51,1.76,4.58,4.18,5.81,6.88,4.07-.76,8.8.34,12.82,3.35.5.38.99.77,1.46,1.18.47.42.91.89,1.35,1.36.89.92,1.64,1.99,2.34,3.08,1.33,2.16,2.24,4.48,2.67,6.93l-1.47.66c-.3-2.22-1.09-4.37-2.21-6.36-1.2-2.02-2.75-3.86-4.56-5.25-3.61-2.85-7.97-4-11.79-3.39Z"/>
    </g>
    <g>
      <g>
        <path class="cls-1" d="M503.65,62.21l-18.35-8.54c1.53-1.2,3.33-2.2,5.43-3.1,5.06-2.14,10.08-5.81,13.65-11.68,2.83,2.89,4.3,7.4,4.07,11.82-.24,4.41-2.04,8.62-4.79,11.5Z"/>
        <path class="cls-1" d="M490.63,49.13c-1.18-1.68-2.1-3.23-2.82-4.61-.72-1.39-1.2-2.6-1.42-3.85-.22-1.27-.17-2.54.05-4.07l18.44-8.35c.46,3.12-.02,6.22-1.33,8.71-3.19,6.01-8,9.9-12.93,12.16Z"/>
      </g>
      <path class="cls-2" d="M504.37,38.9c-3.56,5.87-8.59,9.54-13.65,11.68-2.09.89-3.9,1.89-5.43,3.1l-1.47-.68c1.56-1.27,3.4-2.32,5.56-3.3-1.22-1.83-2.25-3.48-3.01-4.9-.76-1.44-1.27-2.63-1.48-3.85-.2-1.13-.14-2.27.06-3.66l1.48-.67c-.22,1.53-.28,2.81-.05,4.07.22,1.25.69,2.46,1.42,3.85.72,1.38,1.64,2.93,2.82,4.61,4.93-2.26,9.73-6.16,12.93-12.16,1.31-2.5,1.79-5.6,1.33-8.71l1.47-.67c.63,3.48.21,6.99-1.16,9.8,1.58,1.52,2.8,3.49,3.64,5.71.79,2.2,1.22,4.66,1.13,7.07-.11,4.86-2,9.49-4.86,12.73l-1.46-.68c2.74-2.88,4.55-7.09,4.79-11.5.23-4.42-1.23-8.93-4.07-11.82Z"/>
    </g>
    <g>
      <g>
        <path class="cls-1" d="M485.58,86.19l-13.94-14.68c2.05-.75,4.31-1.12,6.68-1.12,5.82.02,11.8-.54,17.96-2.12.44,3.72-.53,7.54-2.5,10.73-1.96,3.2-4.88,5.74-8.21,7.19Z"/>
        <path class="cls-1" d="M479.03,68.93c-.25-4.35.71-8.18,2.63-11.27.98-1.57,2.22-2.87,3.64-3.99l18.35,8.54c-1.91,2.08-4.27,3.51-6.81,4.26-6.08,1.74-12.04,2.38-17.81,2.46Z"/>
      </g>
      <path class="cls-2" d="M496.29,68.27c-6.16,1.57-12.14,2.13-17.96,2.12-2.37,0-4.63.37-6.68,1.12l-1.11-1.17c2.15-.85,4.53-1.3,7.05-1.39-.23-4.71.76-8.84,2.8-12.09.94-1.51,2.12-2.77,3.44-3.87l1.47.69c-1.42,1.12-2.66,2.42-3.64,3.99-1.92,3.09-2.88,6.92-2.63,11.27,5.77-.07,11.73-.72,17.81-2.46,2.53-.75,4.9-2.18,6.81-4.26l1.47.68c-2.04,2.35-4.57,4.03-7.29,4.93.52,3.98-.47,8.11-2.51,11.58-2.04,3.48-5.11,6.3-8.62,7.96l-1.11-1.17c3.33-1.45,6.25-3.99,8.21-7.19,1.96-3.19,2.94-7.02,2.5-10.73Z"/>
    </g>
    <g>
      <g>
        <path class="cls-1" d="M463.04,103.42l-10.73-17.17c2.23-.36,4.57-.29,6.93.21,5.76,1.24,11.71,2.15,17.88,2.59-1.12,7.2-7.13,13-14.07,14.37Z"/>
        <path class="cls-1" d="M460.28,85.17c.84-4.34,2.95-7.99,6.07-10.64,1.6-1.33,3.35-2.35,5.3-3.02l13.94,14.68c-2.36,1.02-4.89,1.52-7.47,1.37-6.15-.37-12.08-1.2-17.83-2.39Z"/>
      </g>
      <path class="cls-2" d="M477.11,89.05c-6.17-.45-12.12-1.35-17.88-2.59-2.36-.5-4.7-.57-6.93-.21l-.86-1.37c2.37-.45,4.86-.44,7.39,0,.91-4.72,3.19-8.66,6.54-11.5,1.57-1.3,3.27-2.33,5.15-3.05l1.12,1.18c-1.94.67-3.7,1.69-5.3,3.02-3.12,2.65-5.23,6.3-6.07,10.64,5.75,1.19,11.68,2.02,17.83,2.39,2.58.15,5.12-.35,7.47-1.37l1.11,1.17c-2.53,1.18-5.26,1.83-8.04,1.76-1.13,7.68-7.43,13.96-14.77,15.65l-.85-1.37c6.94-1.36,12.95-7.17,14.07-14.37Z"/>
    </g>
    <g>
      <g>
        <path class="cls-1" d="M438.34,116.34l-8.06-18.57c2.28-.02,4.6.38,6.87,1.24,5.53,2.11,11.26,3.97,17.18,5.53-2.31,6.85-8.98,11.5-15.99,11.8Z"/>
        <path class="cls-1" d="M438.39,97.89c1.54-4.17,4.3-7.47,7.96-9.57,1.86-1.07,3.86-1.75,5.94-2.07l10.73,17.17c-2.44.5-4.99.47-7.47-.15-5.92-1.5-11.64-3.32-17.17-5.38Z"/>
      </g>
      <path class="cls-2" d="M454.33,104.53c-5.93-1.56-11.66-3.42-17.18-5.53-2.27-.86-4.59-1.26-6.87-1.24l-.64-1.48c2.44-.09,4.92.27,7.37,1.1,1.68-4.52,4.65-8.11,8.6-10.37,1.83-1.05,3.79-1.75,5.83-2.14l.86,1.38c-2.09.32-4.09,1.01-5.94,2.07-3.67,2.09-6.42,5.4-7.96,9.57,5.52,2.06,11.25,3.88,17.17,5.38,2.48.62,5.03.65,7.47.15l.86,1.37c-2.63.62-5.38.69-8.07.12-2.41,7.27-9.4,12.35-16.85,12.91l-.64-1.48c7.01-.3,13.68-4.96,15.99-11.8Z"/>
    </g>
    <g>
      <g>
        <path class="cls-1" d="M412.19,125.63l-5.46-19.49c2.26.28,4.51,1,6.64,2.16,5.19,2.84,10.61,5.47,16.24,7.87-1.63,3.2-4.22,5.74-7.3,7.39-3.08,1.64-6.64,2.38-10.12,2.08Z"/>
        <path class="cls-1" d="M414.76,107.35c2.11-3.91,5.31-6.81,9.28-8.38,2.01-.79,4.11-1.19,6.24-1.21l8.06,18.57c-2.47.13-4.97-.27-7.33-1.25-5.63-2.35-11.05-4.93-16.24-7.73Z"/>
      </g>
      <path class="cls-2" d="M429.61,116.16c-5.63-2.4-11.05-5.03-16.24-7.87-2.13-1.16-4.38-1.88-6.64-2.16l-.44-1.56c2.43.23,4.84.93,7.16,2.09,2.29-4.25,5.75-7.4,10.03-9.1,1.98-.78,4.05-1.2,6.15-1.29l.65,1.49c-2.13.02-4.23.41-6.24,1.21-3.96,1.56-7.17,4.47-9.28,8.38,5.2,2.8,10.62,5.38,16.24,7.73,2.36.98,4.86,1.38,7.33,1.25l.64,1.48c-2.67.22-5.38-.13-7.95-1.08-3.39,6.86-10.96,10.86-18.41,10.44l-.43-1.55c3.49.3,7.04-.44,10.12-2.08,3.08-1.65,5.67-4.19,7.3-7.39Z"/>
    </g>
    <g>
      <g>
        <path class="cls-1" d="M384.95,131.22l-2.65-20.07c2.21.6,4.31,1.63,6.26,3.08,4.74,3.54,9.75,6.89,15,10.03-2.05,2.97-4.98,5.11-8.26,6.32-3.28,1.21-6.94,1.44-10.35.64Z"/>
        <path class="cls-1" d="M390.07,113.5c2.63-3.57,6.18-6.01,10.31-7.02,2.1-.51,4.23-.62,6.35-.35l5.46,19.49c-2.47-.22-4.89-.95-7.09-2.24-5.26-3.09-10.28-6.4-15.02-9.89Z"/>
      </g>
      <path class="cls-2" d="M403.56,124.26c-5.25-3.14-10.27-6.49-15-10.03-1.95-1.44-4.05-2.48-6.26-3.08l-.21-1.6c2.38.58,4.64,1.61,6.78,3.08,2.85-3.9,6.69-6.54,11.15-7.62,2.07-.51,4.17-.65,6.26-.44l.44,1.57c-2.12-.28-4.25-.17-6.35.35-4.14,1-7.69,3.44-10.31,7.02,4.75,3.49,9.77,6.8,15.02,9.89,2.21,1.29,4.63,2.02,7.09,2.24l.44,1.56c-2.68-.16-5.32-.86-7.73-2.15-2.16,3.14-5.24,5.48-8.72,6.83-3.48,1.34-7.37,1.69-11.01.96l-.21-1.6c3.4.8,7.06.57,10.35-.64,3.29-1.22,6.22-3.35,8.26-6.32Z"/>
    </g>
    <g>
      <g>
        <path class="cls-1" d="M357.83,133.6l-.97-20.22c2.2.76,4.26,1.98,6.08,3.63,4.43,3.96,9.01,7.89,13.76,11.67-4.76,5.35-12.36,7.08-18.87,4.91Z"/>
        <path class="cls-1" d="M364.54,116.42c1.51-1.66,3.26-2.99,5.17-3.94,1.9-.99,3.97-1.62,6.14-1.84,2.19-.24,4.36-.08,6.45.51l2.65,20.07c-2.38-.59-4.64-1.64-6.64-3.19-2.38-1.9-4.71-3.81-7.01-5.73-2.29-1.94-4.55-3.92-6.77-5.88Z"/>
      </g>
      <path class="cls-2" d="M376.7,128.68c-4.75-3.78-9.33-7.71-13.76-11.67-1.82-1.65-3.88-2.87-6.08-3.63l-.08-1.62c2.38.75,4.63,2,6.64,3.69,1.64-1.81,3.54-3.27,5.61-4.31,2.07-1.05,4.3-1.77,6.66-1.99,2.17-.24,4.32-.12,6.4.4l.21,1.61c-2.09-.59-4.26-.75-6.45-.51-2.17.21-4.24.85-6.14,1.84-1.91.96-3.66,2.28-5.17,3.94,2.21,1.96,4.47,3.94,6.77,5.88,2.29,1.91,4.63,3.82,7.01,5.73,2,1.55,4.26,2.61,6.64,3.19l.21,1.6c-2.58-.57-5.06-1.59-7.26-3.2-5.02,5.67-13.03,7.67-20,5.58l-.08-1.61c6.51,2.17,14.11.44,18.87-4.91Z"/>
    </g>
    <g>
      <g>
        <path class="cls-1" d="M330.77,133.98l.38-20.24c2.15.9,4.13,2.25,5.84,4.02,2.08,2.17,4.19,4.27,6.33,6.38,2.14,2.09,4.32,4.25,6.54,6.28-2.57,2.51-5.75,3.98-9.1,4.62-3.34.6-6.83.2-9.99-1.06Z"/>
        <path class="cls-1" d="M338.64,117.3c1.63-1.52,3.48-2.76,5.46-3.59,1.99-.83,4.11-1.27,6.31-1.36,2.22-.09,4.4.32,6.45,1.03l.97,20.22c-2.3-.74-4.46-2.03-6.32-3.73-2.22-2.04-4.39-4.12-6.54-6.24-2.15-2.11-4.26-4.19-6.34-6.33Z"/>
      </g>
      <path class="cls-2" d="M349.86,130.41c-2.21-2.04-4.39-4.19-6.54-6.28-2.14-2.1-4.25-4.21-6.33-6.38-1.71-1.76-3.69-3.11-5.84-4.02l.03-1.62c2.34.91,4.5,2.29,6.4,4.11,1.77-1.65,3.78-3,5.93-3.9,2.16-.91,4.46-1.39,6.84-1.49,2.2-.09,4.37.28,6.42.91l.08,1.62c-2.05-.71-4.23-1.11-6.45-1.03-2.19.09-4.32.54-6.31,1.36-1.99.82-3.83,2.06-5.46,3.59,2.08,2.14,4.19,4.22,6.34,6.33,2.15,2.12,4.32,4.19,6.54,6.24,1.86,1.7,4.02,2.99,6.32,3.73l.08,1.62c-2.5-.73-4.87-2.03-6.92-3.78-5.41,5.31-13.46,6.66-20.25,4.15l.03-1.61c3.16,1.26,6.65,1.66,9.99,1.06,3.34-.64,6.53-2.11,9.1-4.62Z"/>
    </g>
    <g>
      <g>
        <path class="cls-1" d="M303.82,132.63l1.58-20.18c2.1,1.04,4,2.52,5.6,4.39,1.95,2.29,3.93,4.49,5.93,6.74,2.01,2.23,4.04,4.51,6.12,6.69-5.42,4.61-13.09,5.35-19.23,2.36Z"/>
        <path class="cls-1" d="M312.67,116.48c1.73-1.45,3.65-2.54,5.69-3.25,2.04-.69,4.2-1.01,6.4-.96,2.23.07,4.39.58,6.4,1.46l-.38,20.24c-2.23-.92-4.3-2.32-6.04-4.15-4.15-4.35-8.16-8.9-12.06-13.35Z"/>
      </g>
      <path class="cls-2" d="M323.05,130.27c-2.07-2.18-4.11-4.46-6.12-6.69-2.01-2.25-3.99-4.45-5.93-6.74-1.6-1.87-3.5-3.34-5.6-4.39l.13-1.61c2.29,1.06,4.37,2.57,6.15,4.52,1.87-1.56,3.96-2.78,6.18-3.54,2.22-.77,4.56-1.1,6.95-1.05,2.21.06,4.36.54,6.37,1.35l-.03,1.63c-2.01-.88-4.16-1.4-6.4-1.46-2.21-.05-4.36.27-6.4.96-2.04.7-3.96,1.79-5.69,3.25,3.9,4.44,7.91,9,12.06,13.35,1.74,1.83,3.81,3.22,6.04,4.15l-.03,1.62c-2.44-.93-4.71-2.35-6.64-4.24-5.73,4.93-13.81,5.82-20.41,2.88l.13-1.61c6.14,2.99,13.81,2.24,19.23-2.36Z"/>
    </g>
    <g>
      <g>
        <path class="cls-1" d="M277.03,129.78l2.69-20.07c2.04,1.2,3.86,2.74,5.36,4.67l5.54,7.1c1.88,2.36,3.79,4.66,5.72,7-2.84,2.14-6.18,3.34-9.55,3.5-3.37.17-6.79-.5-9.76-2.2Z"/>
        <path class="cls-1" d="M286.76,114.12c1.81-1.34,3.79-2.3,5.87-2.87,2.08-.61,4.26-.83,6.46-.62,2.23.22,4.36.86,6.31,1.82l-1.58,20.18c-2.18-1.02-4.15-2.53-5.78-4.48-1.94-2.32-3.85-4.65-5.73-6.97-1.88-2.33-3.73-4.72-5.55-7.07Z"/>
      </g>
      <path class="cls-2" d="M296.34,128.49c-1.94-2.34-3.85-4.64-5.72-7l-5.54-7.1c-1.5-1.93-3.32-3.48-5.36-4.67l.21-1.6c2.22,1.23,4.23,2.81,5.91,4.83,1.96-1.46,4.12-2.52,6.37-3.15,2.26-.65,4.63-.91,7.02-.67,2.21.22,4.33.82,6.3,1.71l-.13,1.62c-1.96-.96-4.08-1.6-6.31-1.82-2.2-.21-4.38,0-6.46.62-2.08.57-4.06,1.53-5.87,2.87,1.82,2.35,3.67,4.74,5.55,7.07,1.88,2.32,3.79,4.64,5.73,6.97,1.63,1.95,3.61,3.46,5.78,4.48l-.13,1.61c-2.38-1.03-4.55-2.59-6.36-4.6-6,4.6-14.09,5.02-20.51,1.73l.21-1.6c2.97,1.7,6.4,2.37,9.76,2.2,3.37-.16,6.71-1.36,9.55-3.5Z"/>
    </g>
    <g>
      <g>
        <path class="cls-1" d="M250.47,125.51l3.72-19.9c1.98,1.27,3.72,2.94,5.11,4.98,3.4,4.88,6.9,9.8,10.51,14.67-5.89,3.93-13.56,3.91-19.33.25Z"/>
        <path class="cls-1" d="M260.99,110.4c3.76-2.53,8.13-3.46,12.51-2.83,2.22.31,4.32,1.05,6.22,2.15l-2.69,20.07c-2.11-1.17-4-2.77-5.52-4.78-3.63-4.79-7.11-9.76-10.52-14.6Z"/>
      </g>
      <path class="cls-2" d="M269.8,125.25c-3.61-4.87-7.11-9.79-10.51-14.67-1.39-2.04-3.13-3.71-5.11-4.98l.3-1.59c2.17,1.3,4.08,3.05,5.65,5.17,4.08-2.77,8.83-3.8,13.59-3.12,2.2.31,4.29,1.01,6.21,2.04l-.22,1.61c-1.9-1.11-3.99-1.84-6.22-2.15-4.38-.63-8.75.31-12.51,2.83,3.4,4.84,6.89,9.81,10.52,14.6,1.53,2.01,3.42,3.61,5.52,4.78l-.21,1.6c-2.3-1.2-4.4-2.85-6.1-4.93-3.12,2.17-6.68,3.15-10.27,3.27-3.59.13-7.16-.83-10.28-2.63l.3-1.58c5.77,3.66,13.44,3.68,19.33-.25Z"/>
    </g>
    <g>
      <g>
        <path class="cls-1" d="M224.17,119.92l4.69-19.69c1.92,1.36,3.57,3.11,4.86,5.2,1.57,2.58,3.17,5.09,4.8,7.61l4.96,7.58c-3.04,1.82-6.47,2.62-9.84,2.51-3.37-.14-6.66-1.28-9.46-3.2Z"/>
        <path class="cls-1" d="M235.43,105.35c3.87-2.29,8.31-3.12,12.65-2.2,2.2.46,4.27,1.25,6.11,2.45l-3.72,19.9c-2.04-1.27-3.85-2.94-5.27-5.03-3.35-5.06-6.62-10.07-9.77-15.13Z"/>
      </g>
      <path class="cls-2" d="M243.48,120.62l-4.96-7.58c-1.63-2.52-3.23-5.03-4.8-7.61-1.29-2.1-2.95-3.85-4.86-5.2l.37-1.57c2.11,1.4,3.93,3.22,5.4,5.42,4.2-2.46,9.03-3.41,13.74-2.4,2.18.45,4.25,1.21,6.11,2.34l-.3,1.6c-1.84-1.2-3.91-1.99-6.11-2.45-4.34-.92-8.78-.09-12.65,2.2,3.15,5.06,6.41,10.06,9.77,15.13,1.42,2.09,3.23,3.76,5.27,5.03l-.3,1.59c-2.24-1.31-4.25-3.01-5.84-5.22-3.21,1.94-6.83,2.82-10.42,2.75-3.58-.07-7.09-1.22-10.12-3.14l.37-1.57c2.8,1.92,6.09,3.06,9.46,3.2,3.38.12,6.8-.69,9.84-2.51Z"/>
    </g>
    <g>
      <g>
        <path class="cls-1" d="M198.19,113.09l5.6-19.45c1.86,1.44,3.43,3.27,4.62,5.42,2.88,5.3,5.92,10.4,9.02,15.63-3.12,1.67-6.59,2.32-9.95,2.05-3.35-.34-6.59-1.6-9.29-3.65Z"/>
        <path class="cls-1" d="M210.12,99.06c3.97-2.06,8.45-2.72,12.75-1.59,2.17.58,4.2,1.5,5.98,2.76l-4.69,19.69c-1.98-1.35-3.7-3.11-5.01-5.3-3.1-5.22-6.13-10.33-9.03-15.57Z"/>
      </g>
      <path class="cls-2" d="M217.44,114.69c-3.1-5.23-6.14-10.33-9.02-15.63-1.19-2.15-2.76-3.98-4.62-5.42l.45-1.56c2.04,1.5,3.78,3.4,5.14,5.66,4.31-2.23,9.19-2.98,13.85-1.75,2.15.58,4.18,1.45,5.99,2.65l-.38,1.58c-1.79-1.27-3.81-2.18-5.98-2.76-4.29-1.13-8.78-.47-12.75,1.59,2.9,5.24,5.93,10.35,9.03,15.57,1.31,2.19,3.03,3.94,5.01,5.3l-.37,1.57c-2.18-1.39-4.09-3.22-5.56-5.51-3.3,1.79-6.96,2.5-10.53,2.27-3.56-.27-7.02-1.55-9.95-3.62l.45-1.55c2.7,2.05,5.95,3.32,9.29,3.65,3.37.27,6.83-.38,9.95-2.05Z"/>
    </g>
    <g>
      <g>
        <path class="cls-1" d="M172.58,105.07l6.47-19.18c1.79,1.53,3.28,3.43,4.37,5.64l2.01,4.04,2.06,3.98,4.23,8c-3.2,1.53-6.68,2.01-10.03,1.59-3.33-.47-6.5-1.9-9.11-4.07Z"/>
        <path class="cls-1" d="M185.13,91.6c4.06-1.9,8.57-2.33,12.82-1.01,2.15.68,4.12,1.7,5.85,3.04l-5.6,19.45c-1.91-1.44-3.55-3.28-4.75-5.53-2.86-5.35-5.64-10.62-8.31-15.96Z"/>
      </g>
      <path class="cls-2" d="M191.71,107.55l-4.23-8-2.06-3.98-2.01-4.04c-1.09-2.21-2.58-4.11-4.37-5.64l.52-1.53c1.97,1.59,3.63,3.58,4.88,5.9,4.41-2.04,9.32-2.56,13.93-1.11,2.13.68,4.11,1.65,5.87,2.93l-.45,1.56c-1.73-1.35-3.71-2.36-5.85-3.04-4.24-1.32-8.75-.89-12.82,1.01,2.67,5.35,5.45,10.61,8.31,15.96,1.2,2.25,2.84,4.09,4.75,5.53l-.45,1.56c-1.05-.75-2.03-1.6-2.93-2.55-.89-.97-1.68-2.05-2.37-3.21-3.38,1.63-7.06,2.18-10.62,1.79-3.55-.41-6.93-1.87-9.77-4.07l.52-1.53c2.61,2.17,5.78,3.6,9.11,4.07,3.35.42,6.83-.06,10.03-1.59Z"/>
    </g>
    <g>
      <g>
        <path class="cls-1" d="M147.35,95.93l7.3-18.88c1.72,1.61,3.12,3.58,4.12,5.84,2.43,5.46,4.97,10.88,7.58,16.36-6.51,2.76-14.02,1.34-19-3.32Z"/>
        <path class="cls-1" d="M160.47,83.04c4.16-1.77,8.67-1.94,12.85-.44,2.11.79,4.06,1.84,5.72,3.29l-6.47,19.18c-1.84-1.54-3.4-3.42-4.5-5.72-2.62-5.47-5.15-10.91-7.6-16.32Z"/>
      </g>
      <path class="cls-2" d="M166.35,99.26c-2.61-5.49-5.15-10.9-7.58-16.36-.99-2.26-2.4-4.23-4.12-5.84l.58-1.51c1.9,1.68,3.47,3.75,4.62,6.13,4.52-1.92,9.43-2.14,13.98-.5,2.09.78,4.05,1.79,5.74,3.18l-.52,1.54c-1.66-1.45-3.61-2.5-5.72-3.29-4.18-1.51-8.69-1.34-12.85.44,2.45,5.41,4.98,10.85,7.6,16.32,1.1,2.3,2.67,4.17,4.5,5.72l-.52,1.53c-2.03-1.61-3.78-3.56-5.03-5.98-6.88,2.93-14.83,1.57-20.25-3.19l.58-1.5c4.98,4.66,12.48,6.08,19,3.32Z"/>
    </g>
    <g>
      <g>
        <path class="cls-1" d="M122.55,85.76l8.08-18.56c1.64,1.7,2.96,3.74,3.88,5.99,2.21,5.54,4.5,11.11,6.87,16.71-3.31,1.23-6.81,1.39-10.09.65-3.28-.73-6.35-2.34-8.73-4.79Z"/>
        <path class="cls-1" d="M136.22,73.38c4.23-1.59,8.73-1.51,12.85.15,2.1.81,3.98,2.01,5.58,3.52l-7.3,18.88c-1.77-1.62-3.23-3.6-4.25-5.9-2.4-5.52-4.67-11.14-6.89-16.65Z"/>
      </g>
      <path class="cls-2" d="M141.38,89.89c-2.37-5.6-4.66-11.17-6.87-16.71-.92-2.25-2.24-4.29-3.88-5.99l.65-1.48c.91.89,1.74,1.87,2.46,2.93.74,1.04,1.38,2.16,1.91,3.36,4.61-1.75,9.5-1.68,13.98.12,2.08.81,3.97,1.97,5.61,3.41l-.59,1.52c-1.6-1.51-3.48-2.71-5.58-3.52-4.13-1.66-8.62-1.74-12.85-.15,2.22,5.51,4.49,11.13,6.89,16.65,1.02,2.3,2.48,4.29,4.25,5.9l-.58,1.51c-1.95-1.69-3.6-3.76-4.77-6.18-3.52,1.36-7.21,1.53-10.71.82-3.49-.73-6.79-2.35-9.38-4.85l.64-1.48c2.38,2.45,5.45,4.06,8.73,4.79,3.28.73,6.78.57,10.09-.65Z"/>
    </g>
    <g>
      <g>
        <path class="cls-1" d="M98.2,74.58l8.82-18.22c1.59,1.73,2.84,3.79,3.65,6.11,1.98,5.64,4,11.38,6.19,16.96-1.69.57-3.41.86-5.12.92-1.7.02-3.38-.2-5-.64-3.24-.89-6.22-2.66-8.53-5.12Z"/>
        <path class="cls-1" d="M112.36,62.75c2.14-.69,4.33-.97,6.49-.85,2.16.14,4.32.59,6.36,1.5,2.06.91,3.89,2.2,5.42,3.79l-8.08,18.56c-1.7-1.7-3.07-3.76-3.99-6.11-1.08-2.81-2.15-5.6-3.19-8.41l-3.02-8.49Z"/>
      </g>
      <path class="cls-2" d="M116.86,79.43c-2.18-5.59-4.21-11.32-6.19-16.96-.81-2.32-2.06-4.38-3.65-6.11l.7-1.46c1.77,1.81,3.17,3.98,4.13,6.43,4.66-1.53,9.53-1.23,13.98.69,2.04.91,3.88,2.16,5.45,3.68l-.65,1.49c-1.53-1.59-3.36-2.88-5.42-3.79-2.03-.91-4.2-1.37-6.36-1.5-2.16-.13-4.35.15-6.49.85l3.02,8.49c1.04,2.81,2.11,5.6,3.19,8.41.92,2.35,2.29,4.41,3.99,6.11l-.65,1.48c-1.87-1.78-3.43-3.93-4.49-6.41-7.17,2.49-14.84.23-19.92-4.8l.7-1.45c2.32,2.46,5.3,4.24,8.53,5.12,1.62.44,3.3.67,5,.64,1.71-.06,3.44-.36,5.12-.92Z"/>
    </g>
    <g>
      <g>
        <path class="cls-1" d="M74.34,62.42l9.51-17.87c1.52,1.81,2.68,3.93,3.39,6.29.86,2.9,1.77,5.74,2.7,8.58l2.83,8.58c-3.41.98-6.92.88-10.14-.09-3.21-.99-6.08-2.94-8.29-5.5Z"/>
        <path class="cls-1" d="M88.92,51.21c4.33-1.22,8.86-.87,12.84,1.13,2.02,1,3.77,2.42,5.26,4.02l-8.82,18.22c-1.65-1.72-2.91-3.89-3.73-6.27-1.92-5.74-3.79-11.41-5.55-17.11Z"/>
      </g>
      <path class="cls-2" d="M92.77,68.01l-2.83-8.58c-.93-2.85-1.84-5.69-2.7-8.58-.72-2.36-1.87-4.48-3.39-6.29l.76-1.43c1.69,1.9,3,4.14,3.86,6.64,4.7-1.3,9.64-.97,13.96,1.22,2.01.99,3.76,2.37,5.3,3.91l-.71,1.46c-1.49-1.6-3.23-3.02-5.26-4.02-3.98-2.01-8.5-2.35-12.84-1.13,1.76,5.7,3.63,11.37,5.55,17.11.82,2.38,2.08,4.55,3.73,6.27l-.7,1.46c-1.82-1.81-3.26-4.08-4.22-6.59-3.6,1.05-7.32.98-10.75.01-3.43-.97-6.51-2.98-8.94-5.61l.76-1.42c2.21,2.57,5.08,4.51,8.29,5.5,3.22.97,6.73,1.06,10.14.09Z"/>
    </g>
    <g>
      <g>
        <path class="cls-1" d="M50.94,49.44l10.17-17.5c1.44,1.89,2.55,4,3.18,6.37,1.55,5.77,3.16,11.58,4.85,17.41-6.86,1.66-13.98-.99-18.2-6.28Z"/>
        <path class="cls-1" d="M65.96,38.71c4.39-1.08,8.84-.45,12.76,1.68,1.99,1.06,3.72,2.48,5.13,4.17l-9.51,17.87c-1.56-1.82-2.77-3.96-3.51-6.36-1.73-5.75-3.31-11.61-4.87-17.35Z"/>
      </g>
      <path class="cls-2" d="M69.14,55.71c-1.69-5.83-3.3-11.65-4.85-17.41-.63-2.38-1.75-4.48-3.18-6.37l.81-1.4c1.61,1.98,2.87,4.21,3.64,6.73,4.78-1.19,9.63-.53,13.89,1.79,1.98,1.05,3.72,2.43,5.17,4.06l-.76,1.44c-1.41-1.69-3.14-3.11-5.13-4.17-3.92-2.13-8.37-2.76-12.76-1.68,1.56,5.74,3.14,11.6,4.87,17.35.74,2.4,1.95,4.55,3.51,6.36l-.76,1.43c-1.73-1.91-3.12-4.16-3.99-6.7-3.66.95-7.33.67-10.71-.45-3.37-1.14-6.44-3.13-8.75-5.88l.81-1.39c4.23,5.29,11.34,7.94,18.2,6.28Z"/>
    </g>
    <g>
      <g>
        <path class="cls-1" d="M28.08,35.55l10.79-17.13c1.38,1.91,2.39,4.12,2.93,6.52,1.29,5.9,2.75,11.66,4.24,17.53-3.47.72-6.97.39-10.11-.82-3.1-1.26-5.84-3.37-7.85-6.1Z"/>
        <path class="cls-1" d="M43.44,25.42c4.38-.84,8.9-.21,12.72,2.09,1.94,1.16,3.61,2.66,4.94,4.42l-10.17,17.5c-1.48-1.89-2.6-4.1-3.23-6.54-1.48-5.87-2.95-11.61-4.26-17.47Z"/>
      </g>
      <path class="cls-2" d="M46.04,42.47c-1.48-5.87-2.95-11.63-4.24-17.53-.54-2.4-1.55-4.61-2.93-6.52l.86-1.37c1.55,2.02,2.7,4.35,3.37,6.9,4.77-.92,9.68-.24,13.84,2.26,1.93,1.15,3.6,2.61,4.99,4.32l-.82,1.41c-1.34-1.76-3-3.26-4.94-4.42-3.82-2.3-8.34-2.94-12.72-2.09,1.31,5.87,2.78,11.61,4.26,17.47.64,2.45,1.76,4.65,3.23,6.54l-.81,1.4c-1.65-1.99-2.93-4.31-3.7-6.9-3.67.78-7.38.45-10.73-.76-3.31-1.27-6.26-3.45-8.48-6.26l.86-1.36c2.01,2.73,4.75,4.84,7.85,6.1,3.13,1.21,6.63,1.55,10.11.82Z"/>
    </g>
    <g>
      <g>
        <path class="cls-1" d="M5.68,20.96L17.05,4.21c1.33,1.94,2.27,4.16,2.74,6.57,1.14,5.87,2.33,11.78,3.59,17.72-6.96,1.17-13.84-2-17.7-7.53Z"/>
        <path class="cls-1" d="M21.43,11.29c4.46-.76,8.86.19,12.61,2.6,1.92,1.2,3.54,2.74,4.83,4.53l-10.79,17.13c-1.42-1.92-2.48-4.15-3.04-6.6-1.31-5.86-2.47-11.82-3.61-17.66Z"/>
      </g>
      <path class="cls-2" d="M23.38,28.49c-1.26-5.93-2.45-11.85-3.59-17.72-.47-2.41-1.41-4.62-2.74-6.57l.91-1.34c1.49,2.05,2.57,4.4,3.17,6.96,4.85-.84,9.65.17,13.73,2.79,1.9,1.19,3.54,2.69,4.88,4.43l-.87,1.38c-1.29-1.79-2.91-3.33-4.83-4.53-3.76-2.41-8.16-3.36-12.61-2.6,1.15,5.84,2.31,11.8,3.61,17.66.56,2.45,1.61,4.67,3.04,6.6l-.86,1.37c-1.59-2.03-2.81-4.37-3.49-6.96-7.39,1.31-14.67-1.97-18.95-7.67l.9-1.33c3.87,5.53,10.74,8.7,17.7,7.53Z"/>
    </g>
  </g>
  <g>
    <g>
      <g>
        <path class="cls-1" d="M251.79,90.1l-19.35,5.96c.13-2.57.75-5.09,1.86-7.41l8.16-16.99c6.25,3.97,9.7,11.25,9.32,18.45Z"/>
        <path class="cls-1" d="M233.33,87.05c-4-2.55-6.98-6.49-8.44-11.21-.74-2.39-1.03-4.84-.9-7.24l19.35-5.96c-.13,2.54-.73,5.07-1.86,7.45l-8.15,16.96Z"/>
      </g>
      <path class="cls-2" d="M242.47,71.65l-8.16,16.99c-1.11,2.33-1.73,4.84-1.86,7.41l-1.55.48c.07-2.78.65-5.51,1.76-8.06-4.37-2.76-7.63-7.05-9.21-12.19-.73-2.37-1.06-4.81-1.01-7.2l1.55-.48c-.13,2.4.16,4.85.9,7.24,1.45,4.72,4.43,8.66,8.44,11.21l8.15-16.96c1.13-2.37,1.74-4.9,1.86-7.45l1.55-.48c-.07,2.74-.63,5.47-1.75,8.05,6.63,4.18,10.36,11.79,10.19,19.4l-1.54.47c.38-7.2-3.07-14.47-9.32-18.45Z"/>
    </g>
    <g>
      <g>
        <path class="cls-1" d="M260.24,117.55l-19.35,5.96c.13-2.57.75-5.09,1.86-7.41l8.16-16.99c6.25,3.97,9.7,11.25,9.32,18.45Z"/>
        <path class="cls-1" d="M241.78,114.5c-4-2.55-6.98-6.49-8.44-11.21-.74-2.39-1.03-4.84-.9-7.24l19.35-5.96c-.13,2.54-.73,5.07-1.86,7.45l-8.15,16.96Z"/>
      </g>
      <path class="cls-2" d="M250.93,99.1l-8.16,16.99c-1.11,2.33-1.73,4.84-1.86,7.41l-1.55.48c.07-2.78.65-5.51,1.76-8.06-4.37-2.76-7.63-7.05-9.21-12.19-.73-2.37-1.06-4.81-1.01-7.2l1.55-.48c-.13,2.4.16,4.85.9,7.24,1.45,4.72,4.43,8.66,8.44,11.21l8.15-16.96c1.13-2.37,1.74-4.9,1.86-7.45l1.55-.48c-.07,2.74-.63,5.47-1.75,8.05,6.63,4.18,10.36,11.79,10.19,19.4l-1.54.47c.38-7.2-3.07-14.47-9.32-18.45Z"/>
    </g>
    <g>
      <g>
        <path class="cls-1" d="M268.7,145l-19.35,5.96c.13-2.57.75-5.09,1.86-7.41l8.16-16.99c6.25,3.97,9.7,11.25,9.32,18.45Z"/>
        <path class="cls-1" d="M250.23,141.95c-4-2.55-6.98-6.49-8.44-11.21-.74-2.39-1.03-4.84-.9-7.24l19.35-5.96c-.13,2.54-.73,5.07-1.86,7.45l-8.15,16.96Z"/>
      </g>
      <path class="cls-2" d="M259.38,126.55l-8.16,16.99c-1.11,2.33-1.73,4.84-1.86,7.41l-1.55.48c.07-2.78.65-5.51,1.76-8.06-4.37-2.76-7.63-7.05-9.21-12.19-.73-2.37-1.06-4.81-1.01-7.2l1.55-.48c-.13,2.4.16,4.85.9,7.24,1.45,4.72,4.43,8.66,8.44,11.21l8.15-16.96c1.13-2.37,1.74-4.9,1.86-7.45l1.55-.48c-.07,2.74-.63,5.47-1.75,8.05,6.63,4.18,10.36,11.79,10.19,19.4l-1.54.47c.38-7.2-3.07-14.47-9.32-18.45Z"/>
    </g>
    <g>
      <g>
        <path class="cls-1" d="M277.15,172.46l-19.35,5.96c.13-2.57.75-5.09,1.86-7.41l8.16-16.99c6.25,3.97,9.7,11.25,9.32,18.45Z"/>
        <path class="cls-1" d="M258.68,169.4c-4-2.55-6.98-6.49-8.44-11.21-.74-2.39-1.03-4.84-.9-7.24l19.35-5.96c-.13,2.54-.73,5.07-1.86,7.45l-8.15,16.96Z"/>
      </g>
      <path class="cls-2" d="M267.83,154.01l-8.16,16.99c-1.11,2.33-1.73,4.84-1.86,7.41l-1.55.48c.07-2.78.65-5.51,1.76-8.06-4.37-2.76-7.63-7.05-9.21-12.19-.73-2.37-1.06-4.81-1.01-7.2l1.55-.48c-.13,2.4.16,4.85.9,7.24,1.45,4.72,4.43,8.66,8.44,11.21l8.15-16.96c1.13-2.37,1.74-4.9,1.86-7.45l1.55-.48c-.07,2.74-.63,5.47-1.75,8.05,6.63,4.18,10.36,11.79,10.19,19.4l-1.54.47c.38-7.2-3.07-14.47-9.32-18.45Z"/>
    </g>
    <g>
      <g>
        <path class="cls-1" d="M285.6,199.91l-19.35,5.96c.13-2.57.75-5.09,1.86-7.41l8.16-16.99c6.25,3.97,9.7,11.25,9.32,18.45Z"/>
        <path class="cls-1" d="M267.13,196.86c-4-2.55-6.98-6.49-8.44-11.21-.74-2.39-1.03-4.84-.9-7.24l19.35-5.96c-.13,2.54-.73,5.07-1.86,7.45l-8.15,16.96Z"/>
      </g>
      <path class="cls-2" d="M276.28,181.46l-8.16,16.99c-1.11,2.33-1.73,4.84-1.86,7.41l-1.55.48c.07-2.78.65-5.51,1.76-8.06-4.37-2.76-7.63-7.05-9.21-12.19-.73-2.37-1.06-4.81-1.01-7.2l1.55-.48c-.13,2.4.16,4.85.9,7.24,1.45,4.72,4.43,8.66,8.44,11.21l8.15-16.96c1.13-2.37,1.74-4.9,1.86-7.45l1.55-.48c-.07,2.74-.63,5.47-1.75,8.05,6.63,4.18,10.36,11.79,10.19,19.4l-1.54.47c.38-7.2-3.07-14.47-9.32-18.45Z"/>
    </g>
  </g>
</svg>