<?xml version="1.0" encoding="UTF-8"?>
<svg id="_图层_1" data-name="图层 1" xmlns="http://www.w3.org/2000/svg" viewBox="0 0 424.89 424.89">
  <defs>
    <style>
      .cls-1 {
        fill: #009fe8;
      }

      .cls-1, .cls-2 {
        opacity: .5;
      }

      .cls-2 {
        fill: #182987;
      }
    </style>
  </defs>
  <rect class="cls-1" x="177.65" y="0" width="69.6" height="424.88"/>
  <path class="cls-1" d="M247.25,424.89H0v-122.16c25.87,0,49.84,8.03,69.6,21.78,12.02,8.3,22.47,18.75,30.77,30.77h63.1c-17.94-42.13-51.72-75.91-93.87-93.87-21.36-9.12-44.89-14.17-69.6-14.17V0h69.6v187.6c102.67,30.06,177.64,124.92,177.64,237.29Z"/>
  <path class="cls-2" d="M424.89,0v424.89h-247.25c0-98.53,57.63-183.58,141.03-223.3v80.91c-24.98,18.65-44.89,43.73-57.26,72.78h63.12c8.3-12.02,18.73-22.45,30.75-30.75V91.05c0-3.96-.08-9.39-.08-14.91V0c7.96,0,20.33,0,29.03,0,22.95,0,16.95,0,40.65,0Z"/>
</svg>