<?xml version="1.0" encoding="UTF-8"?>
<svg id="_图层_1" data-name="图层 1" xmlns="http://www.w3.org/2000/svg" xmlns:xlink="http://www.w3.org/1999/xlink" viewBox="0 0 356.7 503.58">
  <defs>
    <style>
      .cls-1 {
        fill: url(#_未命名的渐变_36);
      }
    </style>
    <linearGradient id="_未命名的渐变_36" data-name="未命名的渐变 36" x1="42.64" y1="70.11" x2="302.09" y2="468.28" gradientUnits="userSpaceOnUse">
      <stop offset=".01" stop-color="#fbc82b"/>
      <stop offset="1" stop-color="#ef8200"/>
    </linearGradient>
  </defs>
  <path class="cls-1" d="M293.75,154.96l-6.45,12.92-10.5,20.97-2.64,5.28c-.88,1.54-1.39,3.32-1.39,5.22,0,5.79,4.69,10.48,10.48,10.48h41.97c5.81,0,10.5-4.69,10.5-10.48s-4.69-10.5-10.5-10.5h-24.98l10.5-20.97,3.99-7.99,6.51-13,10.48-20.97,2.74-5.49.18-.33c.7-1.41,1.09-2.99,1.09-4.67,0-5.79-4.69-10.48-10.5-10.48h-28.56l5.26-20.99,5.24-20.97,5.26-20.99,1.84-7.37.25-1c.14-.68.22-1.39.22-2.11,0-5.81-4.69-10.5-10.48-10.5-4.85,0-8.91,3.26-10.13,7.7l-.16.66-.21.82-2.95,11.79-5.24,20.99-5.24,20.97-5.26,20.99-2.01,8.09c-.18.76-.27,1.56-.27,2.38,0,5.81,4.69,10.5,10.48,10.5h25.02l-10.48,20.97-4.05,8.07ZM41.63,154.96l-6.45,12.92-10.5,20.97-2.64,5.28c-.88,1.54-1.39,3.32-1.39,5.22,0,5.79,4.69,10.48,10.48,10.48h41.97c5.81,0,10.5-4.69,10.5-10.48s-4.69-10.5-10.5-10.5h-24.98l10.5-20.97,3.99-7.99,6.51-13,10.48-20.97,2.74-5.49.18-.33c.7-1.41,1.09-2.99,1.09-4.67,0-5.79-4.69-10.48-10.5-10.48h-28.56l5.26-20.99,5.24-20.97,5.26-20.99,1.84-7.37.25-1c.14-.68.22-1.39.22-2.11,0-5.81-4.69-10.5-10.48-10.5-4.85,0-8.91,3.26-10.13,7.7l-.16.66-.22.82-2.95,11.79-5.24,20.99-5.24,20.97-5.26,20.99-2.01,8.09c-.18.76-.27,1.56-.27,2.38,0,5.81,4.69,10.5,10.48,10.5h25.02l-10.48,20.97-4.05,8.07ZM230.81,405.83c-1.67-2.52-3.53-4.92-5.55-7.17-4.43-4.95-9.63-9.2-15.43-12.56-6.38-3.68-13.46-6.29-20.98-7.55-3.41-.58-6.92-.87-10.49-.87s-7.08.29-10.49.87c-7.53,1.26-14.61,3.87-20.98,7.55-5.79,3.36-11,7.6-15.43,12.56-2.02,2.26-3.88,4.66-5.55,7.19-2.83,4.26-5.16,8.88-6.89,13.79-2.34,6.56-3.59,13.62-3.59,20.98s1.26,14.42,3.59,20.98c1.73,4.91,4.05,9.54,6.89,13.79,1.67,2.53,3.53,4.93,5.55,7.19,4.43,4.96,9.64,9.21,15.43,12.56,6.38,3.69,13.46,6.29,20.98,7.55,3.41.59,6.92.88,10.49.88s7.08-.29,10.49-.88c7.53-1.26,14.61-3.86,20.98-7.55,5.8-3.35,11-7.59,15.43-12.56,2.02-2.25,3.88-4.65,5.55-7.17,2.83-4.27,5.17-8.9,6.9-13.82,2.34-6.56,3.59-13.62,3.59-20.98s-1.26-14.42-3.59-20.98c-1.73-4.92-4.06-9.55-6.9-13.82ZM214.7,461.61c-1.4,2.42-3.04,4.69-4.88,6.78-5.47,6.19-12.74,10.76-20.98,12.88-3.36.87-6.88,1.33-10.49,1.33s-7.14-.46-10.49-1.33c-8.24-2.12-15.51-6.69-20.98-12.88-1.84-2.09-3.48-4.36-4.88-6.78-3.57-6.17-5.62-13.34-5.62-20.98s2.04-14.81,5.62-20.98c1.4-2.42,3.04-4.69,4.88-6.78,5.47-6.19,12.74-10.76,20.98-12.88,3.36-.87,6.88-1.32,10.49-1.32s7.14.46,10.49,1.32c8.24,2.12,15.51,6.69,20.98,12.88,1.84,2.09,3.48,4.36,4.88,6.78,3.57,6.17,5.61,13.34,5.61,20.98s-2.04,14.81-5.61,20.98ZM115.41,62.95h52.45v20.98h-31.48c-5.79,0-10.49,4.69-10.49,10.49s4.7,10.49,10.49,10.49h83.93c5.79,0,10.49-4.7,10.49-10.49s-4.7-10.49-10.49-10.49h-31.48v-20.98h52.46c5.79,0,10.49-4.7,10.49-10.49s-4.7-10.49-10.49-10.49h-52.46V10.49c0-5.79-4.69-10.49-10.49-10.49s-10.49,4.7-10.49,10.49v31.48h-52.45c-5.8,0-10.49,4.69-10.49,10.49s4.69,10.49,10.49,10.49ZM251.79,230.82c-.1-.01-.21-.01-.3-.01-4.93,0-9.06,3.4-10.19,7.97-.15.64-.26,1.3-.29,1.98-.21,3.74-.53,7.42-.98,11.03-.89,7.29-2.23,14.31-3.98,20.97h-115.41c-1.75-6.66-3.1-13.68-3.99-20.97-.43-3.5-.74-7.05-.96-10.67,0-.03,0-.08-.01-.11,0-.16-.01-.33-.02-.49v-.05c-.04-.55-.13-1.11-.26-1.63-1.11-4.6-5.25-8.03-10.2-8.03-.1,0-.2,0-.29.01-5.64.15-10.17,4.75-10.2,10.43v.05c.02.42.04.84.08,1.25.18,3.12.46,6.19.8,9.23.79,7.22,2.01,14.23,3.61,20.97,1.55,6.61,3.46,12.97,5.71,19.01.24.66.49,1.32.74,1.98,2.8,7.27,6.07,14.07,9.75,20.32.12.22.25.45.39.66,3.08,5.18,6.46,9.98,10.09,14.34,1.94,2.36,3.98,4.57,6.06,6.65,4.67,4.66,9.67,8.63,14.92,11.83,6.61,4.02,13.65,6.81,20.98,8.18,3.43.64,6.94.98,10.49.98s7.06-.34,10.49-.98c7.33-1.37,14.37-4.16,20.98-8.18,5.26-3.19,10.25-7.17,14.92-11.83,2.09-2.07,4.12-4.29,6.06-6.65,3.63-4.36,7.01-9.16,10.09-14.34.14-.23.28-.46.4-.68,3.68-6.24,6.95-13.04,9.74-20.3.26-.66.51-1.33.75-2,2.24-6.04,4.15-12.38,5.7-18.99,1.6-6.74,2.81-13.75,3.61-20.97.36-3.03.62-6.11.8-9.22v-.03c.03-.41.05-.83.08-1.24v-.04c-.02-5.67-4.55-10.29-10.19-10.44ZM216.11,314.73c-2,2.52-4.11,4.84-6.29,6.94-6.38,6.15-13.46,10.48-20.98,12.59-3.41.96-6.92,1.46-10.49,1.46s-7.08-.5-10.49-1.46c-7.53-2.1-14.61-6.44-20.98-12.59-2.18-2.1-4.29-4.42-6.3-6.94-4.77-5.96-9.01-13.03-12.59-20.98h100.73c-3.58,7.95-7.83,15.02-12.6,20.98ZM225.26,146.87c-4.43-4.96-9.63-9.21-15.43-12.56-6.38-3.69-13.46-6.29-20.98-7.55-3.41-.59-6.92-.88-10.49-.88s-7.08.29-10.49.88c-7.53,1.26-14.61,3.86-20.98,7.55-5.79,3.35-11,7.59-15.43,12.56-2.02,2.26-3.88,4.66-5.55,7.19-2.83,4.26-5.16,8.88-6.89,13.79-2.34,6.56-3.59,13.62-3.59,20.98,0,5.43.68,10.69,1.98,15.72.46,1.78,1,3.54,1.62,5.27,1.73,4.91,4.05,9.54,6.89,13.79,1.67,2.53,3.53,4.93,5.55,7.19,4.43,4.96,9.64,9.21,15.43,12.56,6.38,3.69,13.46,6.29,20.98,7.55,3.41.59,6.92.88,10.49.88s7.08-.29,10.49-.88c7.53-1.26,14.61-3.86,20.98-7.55,5.8-3.35,11-7.59,15.43-12.56,2.02-2.25,3.88-4.65,5.55-7.17,2.83-4.27,5.17-8.9,6.9-13.82.62-1.71,1.15-3.44,1.6-5.21,1.3-5.04,2-10.33,2-15.77,0-7.36-1.26-14.42-3.59-20.98-1.73-4.92-4.06-9.55-6.9-13.82-1.67-2.52-3.53-4.92-5.55-7.17ZM214.7,209.83c-1.4,2.42-3.04,4.69-4.88,6.78-5.47,6.19-12.74,10.76-20.98,12.88-3.36.87-6.88,1.32-10.49,1.32s-7.14-.46-10.49-1.32c-8.24-2.12-15.51-6.69-20.98-12.88-1.84-2.09-3.48-4.36-4.88-6.78-3.57-6.17-5.62-13.34-5.62-20.98s2.04-14.81,5.62-20.98c1.4-2.42,3.04-4.69,4.88-6.78,5.47-6.19,12.74-10.76,20.98-12.88,3.36-.87,6.88-1.33,10.49-1.33s7.14.46,10.49,1.33c8.24,2.12,15.51,6.69,20.98,12.88,1.84,2.09,3.48,4.36,4.88,6.78,3.57,6.17,5.61,13.34,5.61,20.98s-2.04,14.81-5.61,20.98ZM73.44,272.77H10.49c-5.79,0-10.49,4.7-10.49,10.49s4.7,10.49,10.49,10.49h50.17l-8.41,41.97-4.19,20.98-4.2,20.98-1.89,9.47-2.3,11.5-4.19,20.98-4.2,20.98-4.19,20.98-4.2,20.98-1.67,8.37c-.14.68-.22,1.39-.22,2.12,0,5.79,4.7,10.49,10.49,10.49,5.06,0,9.29-3.58,10.26-8.34l.11-.55.12-.59,2.3-11.5,4.19-20.98,4.2-20.98,4.19-20.98,4.19-20.98,1.9-9.47,2.3-11.5,4.19-20.98,4.2-20.98,8.38-41.97,1.57-7.87.16-.79c.11-.59.16-1.21.16-1.82,0-5.79-4.7-10.49-10.49-10.49ZM346.21,272.77h-62.95c-5.79,0-10.49,4.7-10.49,10.49,0,.4.02.79.07,1.17v.02l.36,1.76,1.51,7.54,4.19,20.98,4.19,20.98,8.38,41.97,2.28,11.39,1.91,9.58,4.19,20.98,4.2,20.98,4.19,20.98,4.19,20.98,2.29,11.47.11.56v.05s.22,1.01.22,1.01c1.16,4.53,5.28,7.89,10.17,7.89,5.8,0,10.49-4.7,10.49-10.49,0-.73-.08-1.43-.22-2.12l-1.67-8.37-4.19-20.98-4.2-20.98-4.19-20.98-4.2-20.98-2.3-11.53-1.89-9.44-4.19-20.98-4.2-20.98-4.19-20.98-4.2-20.98h50.16c5.79,0,10.49-4.69,10.49-10.49s-4.7-10.49-10.49-10.49Z"/>
</svg>