<?xml version="1.0" encoding="UTF-8"?>
<svg id="_图层_1" data-name="图层 1" xmlns="http://www.w3.org/2000/svg" viewBox="0 0 495.24 460.38">
  <defs>
    <style>
      .cls-1 {
        fill: none;
        stroke: #9b2726;
        stroke-linecap: round;
        stroke-linejoin: round;
        stroke-width: 16.26px;
      }

      .cls-2 {
        fill: #9b2726;
      }
    </style>
  </defs>
  <polyline class="cls-1" points="163.88 316.97 190.85 333.43 163.88 349.9 136.91 333.43 163.88 316.97"/>
  <polygon class="cls-1" points="341.26 333.43 314.29 349.9 287.32 333.43 314.29 316.97 341.26 333.43"/>
  <line class="cls-1" x1="93.43" y1="410.77" x2="65.66" y2="428.48"/>
  <polyline class="cls-1" points="49.85 125.04 115.63 84.34 197.45 134.97 233.51 110.73 153.33 61.12 239.27 8.13 326.62 61.63 268.24 95.54 212.27 61.41 239.27 44.94 266.27 61.41 239.27 77.87"/>
  <polyline class="cls-1" points="239.27 157.17 266.27 173.63 239.27 190.1 212.27 173.63 239.27 157.17 358.91 81.41"/>
  <path class="cls-2" d="M425.96,240.08l-17.35,10.59c-1.6.98-3.62.98-5.22,0l-17.35-10.59c-3.2-1.95-3.2-6.6,0-8.56l17.35-10.59c1.6-.98,3.62-.98,5.22,0l17.35,10.59c3.2,1.95,3.2,6.6,0,8.56Z"/>
  <path class="cls-2" d="M93.13,199.91l-17.35,10.59c-1.6.98-3.62.98-5.22,0l-17.35-10.59c-3.2-1.95-3.2-6.6,0-8.56l17.35-10.59c1.6-.98,3.62-.98,5.22,0l17.35,10.59c3.2,1.95,3.2,6.6,0,8.56Z"/>
  <polyline class="cls-1" points="333.84 202.33 364.22 183.78 324.87 159.76 352.86 142.66 389.23 164.91 389.23 203.56 336.05 236.03 389.23 268.5 389.23 299.85"/>
  <line class="cls-1" x1="349.84" y1="299.85" x2="349.84" y2="273.4"/>
  <polygon class="cls-1" points="432.97 126.69 406 143.15 379.03 126.69 406 110.22 432.97 126.69"/>
  <polyline class="cls-1" points="422.74 299.85 422.74 268.5 475.93 236.03 422.74 203.56 422.74 164.91 459.11 142.66 487.11 159.76 447.75 183.78 478.13 202.33 487.11 196.85"/>
  <line class="cls-1" x1="462.14" y1="299.85" x2="462.14" y2="273.4"/>
  <polygon class="cls-1" points="46.19 127.2 73.16 143.67 100.13 127.2 73.16 110.74 46.19 127.2"/>
  <line class="cls-1" x1="358.91" y1="81.41" x2="406" y2="110.22"/>
  <polyline class="cls-1" points="17.02 145.16 53.41 167.72 8.13 196.15 56.41 225.65 17.02 250.04 17.02 300.36"/>
  <polyline class="cls-1" points="55 300.36 55 269.85 73.39 259 92.42 270.52 92.42 300.36"/>
  <polyline class="cls-1" points="221.4 212.49 209.18 205.01 209.18 235.44 177.45 254.81 177.45 174.66 142.85 153.46 129.62 145.16 93.24 167.72 138.43 196.15 89.93 225.46 129.62 250.04 129.62 300.36"/>
  <polyline class="cls-1" points="136.93 333.47 201.37 294.04 201.37 275.12 239.27 251.75 239.27 228.16 269.58 209.48 269.58 235.21 299.73 253.68 299.73 182.62 333.84 202.33"/>
  <polyline class="cls-1" points="32.11 405.58 84.85 372.48 113.78 386.81 113.89 351.16 142.64 368.77"/>
  <polyline class="cls-1" points="445.95 405.58 393.21 372.48 364.29 386.81 364.17 351.16 335.42 368.77"/>
  <line class="cls-1" x1="384.63" y1="410.77" x2="412.4" y2="428.48"/>
  <polyline class="cls-1" points="249.73 342.2 239.27 335.71 208.19 354.7 208.19 386.81"/>
  <polyline class="cls-1" points="259.92 264.52 277.44 275.25 277.44 294.21 336.48 330.54"/>
  <polyline class="cls-1" points="188.66 411.96 208.19 411.96 208.19 435.26"/>
  <polyline class="cls-1" points="340.26 411.96 354.55 411.96 354.55 435.26 381.07 452.25"/>
  <polyline class="cls-1" points="184.22 369.35 163.88 381.78 163.88 411.96 119.57 411.96 119.57 435.26 97 452.25"/>
  <polyline class="cls-1" points="269.88 386.81 269.88 354.7 314.29 381.78 314.29 411.96 289.33 411.96 269.8 411.96 269.8 435.26"/>
</svg>