<?xml version="1.0" encoding="UTF-8"?>
<svg id="_图层_1" data-name="图层 1" xmlns="http://www.w3.org/2000/svg" viewBox="0 0 426.68 424.89">
  <defs>
    <style>
      .cls-1 {
        fill: #dc3c2f;
      }
    </style>
  </defs>
  <g>
    <path class="cls-1" d="M64.46,64.13c-.88.67-1.71,1.41-2.5,2.2-5.13,5.13-7.93,11.94-7.93,19.18H10.68c-5.91,0-10.68-4.8-10.68-10.68s4.78-10.7,10.68-10.7h53.78Z"/>
    <path class="cls-1" d="M149.62,32.07c0,5.89-4.78,10.68-10.68,10.68h-32.05v16.01c-3.83.62-7.44,2.06-10.65,4.23-3.23-2.19-6.88-3.63-10.74-4.25v-15.99h-32.05c-5.91,0-10.68-4.8-10.68-10.68s4.78-10.7,10.68-10.7h32.05v-10.68c0-5.89,4.8-10.68,10.7-10.68s10.68,4.8,10.68,10.68v10.68h32.05c5.91,0,10.68,4.8,10.68,10.7Z"/>
    <path class="cls-1" d="M192.38,74.83c0,5.89-4.78,10.68-10.68,10.68h-43.23c0-7.25-2.82-14.05-7.93-19.18-.79-.79-1.62-1.53-2.5-2.2h53.67c5.91,0,10.68,4.8,10.68,10.7Z"/>
    <path class="cls-1" d="M149.62,117.43v.28c-.07,5.84-4.83,10.54-10.68,10.54h-32l21.37-21.37h10.63c5.85,0,10.61,4.71,10.68,10.54Z"/>
    <path class="cls-1" d="M170.99,160.64c-.17,5.85-5.27,10.37-11.12,10.37h-52.98s0,10.68,0,10.68c0,6.38-5.59,11.44-12.11,10.59-5.39-.7-9.27-5.55-9.27-10.98v-10.3s-52.98,0-52.98,0c-5.85,0-10.95-4.52-11.12-10.37-.17-6.05,4.67-11,10.68-11h53.42v-21.39h-31.61c-5.85,0-10.95-4.52-11.12-10.37-.17-6.05,4.67-11,10.68-11h10.74l28.8,28.82c1.8,1.8,4.71,1.8,6.51,0l7.39-7.39v21.33h53.42c6.01,0,10.85,4.95,10.68,11Z"/>
    <path class="cls-1" d="M106.88,128.25v.05l.05-.05h-.05Z"/>
    <path class="cls-1" d="M70.05,74.44c2.96-2.96,6.89-4.58,11.07-4.58s8.11,1.62,11.06,4.58l4.06,4.06,3.69-3.69c2.8-2.8,6.48-4.68,10.44-4.92,4.54-.28,8.87,1.36,12.06,4.55,3.28,3.28,4.92,7.76,4.53,12.44-.3,3.58-1.89,6.97-4.39,9.55-.04.05-.09.09-.13.14l-22.93,22.93c-1.8,1.8-4.71,1.8-6.51,0l-22.93-22.93c-.49-.51-.95-1.02-1.38-1.59-2.06-2.7-3.19-6.07-3.19-9.47,0-4.18,1.62-8.11,4.57-11.07Z"/>
  </g>
  <g>
    <path class="cls-1" d="M150.22,242.61c0,2.46-.83,4.73-2.23,6.54-1.96,2.54-5.03,4.19-8.49,4.19h-32.22s-.01,0-.01,0,0,0,0,0c-2.9,5.79-4.66,12.25-4.99,19.09-.04.78-.06,1.56-.06,2.35,0,5.09.79,9.99,2.26,14.6.4,1.26.85,2.49,1.35,3.7.35.85.72,1.69,1.12,2.51,0,0,0,0,0,.01.07.2.14.41.21.62.05.17.11.33.16.5,1.02,3.18,1.82,6.45,2.37,9.82h0c.33,2.07.58,4.17.72,6.29.1,1.54.16,3.09.16,4.66v.18c0,1.69-.07,3.36-.2,5.02-.16,2.1-.42,4.18-.77,6.23-.54,3.2-1.31,6.31-2.28,9.34-.09.29-.19.57-.28.86-.04.13-.08.25-.13.38-.34.99-.7,1.97-1.09,2.94-.02.05-.04.11-.06.16-.08.19-.15.37-.23.56-1.91,4.85-3.05,10.08-3.28,15.55-.03.61-.04,1.24-.04,1.86v.18c0,.61.01,1.21.04,1.82.18,4.91,1.1,9.63,2.65,14.05.47,1.35,1.01,2.68,1.6,3.97.14.39.28.79.42,1.19.03.08.06.16.08.24.12.33.22.66.33.99,2.08,6.45,3.21,13.32,3.24,20.45,0,.1,0,.21,0,.32,0,1.64-.06,3.27-.18,4.88-.15,2.12-.4,4.21-.74,6.27-.09.52-.18,1.04-.28,1.55-.06.3-.12.6-.18.91,0,.04-.02.09-.03.13-.35,1.37-.99,2.62-1.85,3.69-1.8,2.25-4.57,3.7-7.68,3.7-5.44,0-9.84-4.41-9.84-9.84,0-.64.06-1.26.18-1.86,0-.06.02-.12.04-.18.46-2.34.74-4.73.84-7.17.03-.68.04-1.36.04-2.05,0-.1,0-.21,0-.32-.03-5.45-.97-10.68-2.68-15.55,0-.01,0-.02-.01-.03-.32-.92-.67-1.83-1.05-2.73-.17-.41-.35-.81-.54-1.21h0c-.23-.64-.45-1.28-.67-1.92-.02-.07-.05-.15-.07-.22-1.07-3.26-1.89-6.64-2.46-10.1-.33-2.06-.58-4.16-.72-6.28-.1-1.54-.16-3.1-.16-4.67v-.18c0-1.58.06-3.15.18-4.71.15-2.11.4-4.2.74-6.26.56-3.39,1.38-6.7,2.42-9.9.06-.19.13-.38.19-.58.01-.03.02-.05.03-.08.33-.98.69-1.96,1.07-2.92.06-.15.12-.31.18-.46,0,0,0-.01,0-.02.07-.18.15-.36.22-.54,0-.03.02-.05.03-.07,1.85-4.73,2.98-9.83,3.24-15.17.04-.72.05-1.45.06-2.18v-.18c0-.61-.01-1.23-.04-1.83-.17-4.44-.93-8.72-2.23-12.77,0,0,0,0,0,0-.68-2.14-1.51-4.21-2.47-6.2,0,0,0,0,0-.01-.02-.06-.04-.12-.06-.18h0c-.03-.09-.06-.18-.09-.26-.05-.13-.09-.27-.13-.4-2.16-6.62-3.34-13.7-3.34-21.04,0-1.75.07-3.49.2-5.2.16-2.1.42-4.18.77-6.22.56-3.29,1.36-6.51,2.37-9.62.04-.13.09-.27.13-.4h-21.52s-.03-.01-.05-.02c.02-.04.04-.09.06-.13-.03.01-.05.02-.07.03-.05.01-.1.03-.15.05-.07.02-.14.04-.21.07h-10.37c-3.12,0-5.92-1.33-7.88-3.45-.33-.36-.64-.74-.92-1.14-1.21-1.74-1.92-3.85-1.92-6.13,0-5.92,4.8-10.72,10.72-10.72.43,0,.86.03,1.27.08l.06-.08h84.44c.37,0,.74.02,1.11.06,5.4.55,9.61,5.12,9.61,10.67Z"/>
    <path class="cls-1" d="M192.53,312.74c-.61-2.64-1.72-5.09-3.22-7.25-.34-.48-.68-.97-1.07-1.43-3.76-4.58-9.38-7.56-15.73-7.83h-30.11c-2.72,0-5.19,1.09-6.96,2.88-1.62,1.62-2.67,3.78-2.86,6.18,0,.27-.02.51-.02.78,0,.65.07,1.31.19,1.94,0,.02,0,.05.02.07.44,2.25.73,4.56.85,6.91,0,.22.02.44.02.68.02.61.05,1.21.05,1.82v.17c-.02.73-.02,1.45-.07,2.18,0,.22-.02.44-.02.65-.32,5.07-1.43,9.94-3.2,14.45v.07s-.02.05-.05.07c-.07.17-.15.36-.22.53v.02s-.02.02-.02.05c-.44,1.07-.82,2.16-1.21,3.25v.07s-.02.05-.05.1c-.02.07-.05.15-.07.22-1.09,3.32-1.94,6.74-2.52,10.25-.61,3.56-.92,7.22-.92,10.96v.17c0,3.73.29,7.39.87,10.96.58,3.54,1.43,6.98,2.52,10.33.02.02.05.07.05.1.19.61.41,1.21.63,1.82v.02s.02.02.02.02c.58,1.26,1.09,2.57,1.58,3.93,1.45,4.12,2.35,8.51,2.59,13.07.05.82.07,1.65.07,2.47.02.12.02.22.02.32,0,.68-.02,1.36-.05,2.04-.1,2.45-.39,4.82-.85,7.15,0,.07-.02.15-.02.22-.02,0-.02.02-.02.05s0,.07-.02.1c-.1.56-.15,1.14-.15,1.72,0,2.84,1.19,5.41,3.13,7.2,1.75,1.65,4.12,2.67,6.74,2.67h29.36c6.96-.05,13.12-3.39,16.99-8.56,1.7-2.23,2.93-4.82,3.64-7.61.44-1.7.68-3.47.68-5.28v-85.77c0-1.7-.22-3.35-.58-4.92ZM171.66,392.72c0,3.52-1.7,6.64-4.32,8.58-1.77,1.36-4,2.13-6.4,2.13h-7.59c0-1.09-.05-2.16-.1-3.25-.12-2.21-.34-4.41-.65-6.57-.32-1.99-.68-3.95-1.16-5.87v-.02c-.36-1.48-.78-2.93-1.21-4.39-.07-.19-.12-.36-.19-.56-.07-.27-.17-.53-.27-.78-.15-.48-.32-.95-.48-1.41v-.02c-.58-1.28-1.12-2.59-1.6-3.95v-.02c-1.75-4.97-2.69-10.3-2.69-15.88v-.17c.02-6.13,1.21-12.02,3.32-17.41.07-.17.15-.36.22-.56.02-.05.05-.1.07-.15.44-1.12.85-2.21,1.21-3.32.07-.19.12-.36.19-.53.07-.22.15-.46.22-.68.46-1.48.87-2.98,1.24-4.49.36-1.5.68-2.98.92-4.51.1-.46.15-.92.22-1.41.15-.9.27-1.79.36-2.69.07-.7.12-1.41.19-2.13.05-.58.07-1.19.1-1.79.07-1.07.1-2.13.1-3.22h7.59c2.33,0,4.48.75,6.25,2.01.15.1.27.19.41.32,2.47,1.96,4.05,4.99,4.05,8.39v64.34Z"/>
    <path class="cls-1" d="M59.45,358.68c.01-.32.03-.64.05-.96.32-5.07,1.42-9.94,3.18-14.46.09-.22.18-.44.27-.67.39-.98.76-1.97,1.11-2.97.02-.05.03-.1.05-.14.04-.12.09-.24.13-.37.07-.21.14-.43.22-.64,1.01-3.09,1.8-6.28,2.35-9.55.63-3.66.95-7.42.96-11.25v-.18c0-3.73-.3-7.39-.88-10.95-.07-.44-.14-.88-.23-1.32-.13-.72-.28-1.44-.43-2.16-.38-1.2-.99-2.29-1.77-3.24-1.8-2.2-4.54-3.6-7.61-3.6h-13.63c.05.15.1.3.15.45-.07-.15-.14-.3-.22-.45h-21.71c-11.78.07-21.31,9.64-21.31,21.45v64.33H.12v21.45c0,11.78,9.5,21.34,21.27,21.44.06,0,.12,0,.18,0h35.28c3.07,0,5.81-1.4,7.61-3.6.86-1.04,1.51-2.26,1.88-3.6h0c.1-.5.2-.99.29-1.49,0-.01,0-.03,0-.04.08-.41.15-.83.22-1.25.6-3.63.91-7.35.91-11.14,0-.1,0-.21,0-.32-.03-7.21-1.19-14.16-3.31-20.67-.09-.26-.17-.52-.26-.78-.03-.08-.05-.15-.08-.23-.01-.05-.03-.1-.05-.14-.12-.34-.24-.68-.36-1.02h0c-.59-1.3-1.13-2.63-1.6-3.98,0-.01,0-.02-.01-.03-1.45-4.13-2.34-8.51-2.61-13.06-.02-.32-.03-.64-.04-.97-.03-.61-.04-1.22-.04-1.83v-.18c0-.63.02-1.25.04-1.87ZM39.89,365.39c.05.69.1,1.38.17,2.07.14,1.42.32,2.83.55,4.22.55,3.39,1.35,6.69,2.38,9.89.01.04.03.09.04.13.03.1.06.2.1.29.22.65.44,1.28.67,1.92h0c.18.41.36.81.54,1.22.38.9.73,1.8,1.05,2.73,0,0,0,.01.01.03,1.71,4.87,2.65,10.11,2.68,15.55h-15.81c-5.92,0-10.72-4.8-10.72-10.72v-64.33c0-5.92,4.8-10.72,10.72-10.72h15.81c-.02,6.12-1.19,11.97-3.3,17.35-.08.21-.17.42-.26.63-.06.15-.12.31-.18.46-.39.99-.75,1.99-1.1,3-.06.17-.12.35-.17.52-.03.09-.06.18-.09.27-1.01,3.13-1.8,6.37-2.35,9.69h0c-.23,1.38-.41,2.77-.56,4.18h0c-.07.7-.13,1.39-.18,2.09-.12,1.56-.17,3.12-.18,4.71v.18c0,1.57.05,3.12.16,4.66Z"/>
  </g>
  <g>
    <path class="cls-1" d="M285.7,264.28c0,3.75-.43,7.36-1.24,10.7-.59,2.47-1.38,4.81-2.34,6.96-.7,1.17-1.39,2.47-2.05,3.91h0c-1.38,2.99-2.65,6.52-3.79,10.51-.6,2.09-1.16,4.31-1.69,6.64-1.02,4.51-1.89,9.45-2.6,14.74-.89,6.65-1.51,13.83-1.81,21.38-.14,3.49-.21,7.06-.21,10.69s.07,7.19.21,10.68c.3,7.55.92,14.73,1.81,21.38.47,3.52,1.01,6.87,1.62,10.06,0,.01,0,.03,0,.04.05.21.09.42.13.63,0,.02,0,.04.01.06.04.19.07.39.11.59,0,.03.01.06.02.09.45,2.56.7,5.33.7,8.23,0,.57-.01,1.12-.03,1.68-.4,11.95-5.02,21.38-10.66,21.38s-10.26-9.43-10.66-21.38c-.01-.3-.02-.59-.02-.89v-1.58c.03-1.97.18-3.87.42-5.69,0-.01,0-.02,0-.03.33-1.56.65-3.16.95-4.82h0c.49-2.68.92-5.47,1.31-8.37.89-6.65,1.51-13.83,1.81-21.38.14-3.5.22-7.07.22-10.71s-.07-7.19-.21-10.67c-.3-7.55-.92-14.74-1.81-21.38-.73-5.45-1.63-10.53-2.69-15.15-.5-2.18-1.03-4.26-1.59-6.22-1.31-4.59-2.8-8.57-4.41-11.82-.24-.49-.49-.96-.74-1.41,0,0,0,0,0-.01-1.21-2.47-2.19-5.21-2.89-8.14-.8-3.35-1.24-6.95-1.24-10.7s.43-7.34,1.23-10.68c1.73-7.27,5.19-13.35,9.64-17.14,2.95-2.51,6.34-4.03,9.96-4.23h1.68c3.53.2,6.84,1.64,9.73,4.04,4.56,3.78,8.11,9.94,9.87,17.33.8,3.34,1.23,6.93,1.23,10.68Z"/>
    <path class="cls-1" d="M424.25,371.18v21.38c0,3.75-.64,7.35-1.83,10.69-3.22,9.11-10.44,16.33-19.55,19.55-3.34,1.18-6.94,1.83-10.69,1.83h-64.14c-5.9,0-10.69-4.79-10.69-10.69v-53.45c0-11.81,9.57-21.38,21.38-21.38h32.07c1.57,0,3.05-.34,4.39-.94,3.71-1.68,6.3-5.41,6.3-9.75s-2.58-8.07-6.3-9.75c-1.34-.61-2.83-.94-4.39-.94h-10.69v-.02s-.01.01-.02.02h-15.1c-1.73,0-3.29.7-4.42,1.83-1.13,1.14-1.83,2.7-1.83,4.43v3.86c0,1.28-.99,2.34-2.27,2.44-5.65.42-10.88,2.39-15.24,5.49-1.62,1.15-3.87,0-3.87-1.99v-26.74c0-5.9,4.79-10.69,10.69-10.69h53.45c11.8,0,21.37,9.56,21.38,21.36v21.4c0,.61-.03,1.2-.08,1.8-.91,10.97-10.1,19.58-21.3,19.58h-36.48c-1.73,0-3.3.7-4.43,1.84h0c-1.14,1.14-1.84,2.7-1.84,4.43v30.21c0,1.73.7,3.31,1.84,4.44,1.14,1.14,2.7,1.84,4.43,1.84h47.17c5.9,0,10.69-4.79,10.69-10.69v-21.38c0-2.24-.69-4.31-1.86-6.03-.72-1.05-.55-2.45.41-3.29,0,0,.01-.01.02-.02.49-.43.97-.87,1.43-1.34,0,0,.01-.01.02-.02,3.24-3.25,5.75-7.22,7.26-11.67.57-1.69,2.7-2.23,4-1,3.69,3.47,6.55,7.8,8.27,12.67,1.18,3.34,1.83,6.94,1.83,10.69Z"/>
    <path class="cls-1" d="M424.25,274.98v10.69c0,5.91-4.79,10.69-10.69,10.69-1.56,0-3.04-.34-4.38-.94h0c-3.72-1.67-6.3-5.41-6.3-9.75v-4.43c0-1.73-.7-3.29-1.83-4.42-1.13-1.13-2.69-1.83-4.42-1.83h-73c-1.73,0-3.29.7-4.43,1.83-1.13,1.14-1.83,2.7-1.83,4.43v4.43c0,4.34-2.58,8.08-6.3,9.75-1.34.61-2.82.94-4.39.94-.33,0-.66-.01-.99-.05-5.44-.5-9.7-5.07-9.7-10.64v-10.69c0-11.81,9.57-21.38,21.38-21.38h32.18v-10.66c0-5.87,4.72-10.63,10.58-10.68.04,0,.08,0,.11,0,5.9,0,10.69,4.79,10.69,10.69v10.66h31.95c11.81,0,21.38,9.57,21.38,21.38Z"/>
  </g>
  <g>
    <path class="cls-1" d="M312.68,96.53c0,2.31-.73,4.45-1.98,6.2-.17.23-.35.46-.53.69-1.01,1.29-2.04,2.56-3.11,3.8-3.25,3.78-6.78,7.32-10.56,10.56-4.73,4.07-9.86,7.7-15.31,10.82-1.98,1.13-4,2.2-6.07,3.19v50.26c0,5.91-4.79,10.69-10.69,10.69s-10.69-4.79-10.69-10.69v-57.82c.21-4.15,2.77-7.67,6.38-9.25.29-.11.59-.23.88-.34,4.97-1.99,9.68-4.48,14.08-7.42h.05v-.03c6.97-4.66,13.14-10.42,18.25-17.04.11-.15.22-.29.34-.44.79-.95,1.73-1.76,2.8-2.39,1.43-.85,3.07-1.38,4.82-1.48h1.3c5.61.33,10.06,4.99,10.06,10.69Z"/>
    <path class="cls-1" d="M296.5,32.38v10.69c0,7.5-1.29,14.69-3.65,21.38-2.81,7.97-7.16,15.21-12.69,21.38-1.59,1.77-3.27,3.46-5.04,5.04-6.17,5.52-13.42,9.87-21.39,12.69-2.57.91-5.21,1.66-7.92,2.23-.4.09-.79.17-1.2.25-.51.08-1.03.12-1.56.12-5.82,0-10.56-4.65-10.7-10.43v-.55c.1-4.11,2.52-7.64,6-9.35.66-.33,1.37-.59,2.1-.77.3-.05.6-.12.9-.18,4.42-.94,8.58-2.57,12.38-4.77,6.49-3.75,11.91-9.17,15.66-15.66,3.64-6.29,5.72-13.59,5.72-21.38h-32.08c-5.91,0-10.69-4.79-10.69-10.69s4.79-10.69,10.69-10.69h3.58c0-2.51,1.28-3.84,2.21-4.82.83-.86,1.19-1.29,1.19-2.28s-.36-1.42-1.19-2.29c-.93-.97-2.21-2.31-2.21-4.83,0-1.97.79-3.22,1.58-4.14.22-.25.43-.48.63-.69.47-.49.78-.84.97-1.22.29-.63.93-1.06,1.66-1.06,1.01,0,1.83.82,1.83,1.83,0,.24-.04.47-.13.67,0,0,0,0,0,0-.03.07-.05.13-.09.19,0,0,0,.01,0,.01-.38.77-.89,1.36-1.36,1.85-.08.09-.16.18-.24.26-.82.86-1.19,1.29-1.19,2.28s.37,1.42,1.19,2.29c.93.97,2.21,2.31,2.21,4.83s-1.28,3.85-2.21,4.83c-.82.86-1.19,1.28-1.19,2.27h7.06c0-2.51,1.28-3.84,2.21-4.82.83-.86,1.19-1.29,1.19-2.28s-.36-1.42-1.19-2.29c-.81-.85-1.88-1.96-2.15-3.89-.04-.29-.06-.6-.06-.93,0-2.52,1.28-3.85,2.21-4.82.47-.49.78-.84.97-1.22.29-.63.93-1.06,1.66-1.06,1.01,0,1.83.82,1.83,1.83,0,.25-.05.49-.14.71t0,0c-.46,1-1.13,1.7-1.69,2.28-.82.86-1.19,1.29-1.19,2.28s.37,1.42,1.19,2.29c.93.97,2.21,2.31,2.21,4.83,0,.06,0,.11,0,.17-.05,2.41-1.3,3.7-2.21,4.66-.82.86-1.19,1.28-1.19,2.27h7.06c0-.67.09-1.26.25-1.78.42-1.42,1.29-2.32,1.97-3.04.82-.86,1.19-1.29,1.19-2.28s-.37-1.42-1.19-2.29c-.93-.97-2.21-2.31-2.21-4.83s1.28-3.85,2.21-4.82c.47-.49.78-.84.97-1.22.29-.62.93-1.05,1.66-1.05,1.01,0,1.83.82,1.83,1.83,0,.24-.05.48-.14.69-.03.06-.05.12-.08.18-.45.91-1.08,1.57-1.6,2.11-.82.86-1.19,1.29-1.19,2.28s.37,1.42,1.19,2.29c.9.95,2.13,2.23,2.21,4.59v.47c-.08,2.37-1.3,3.65-2.21,4.59-.82.86-1.19,1.28-1.19,2.27h14.09c3.35,0,6.33,1.54,8.29,3.95,1.5,1.84,2.4,4.19,2.4,6.75Z"/>
  </g>
  <path class="cls-1" d="M403.38,10.94c0,5.92-4.81,10.71-10.71,10.71h-42.87c-5.9,0-10.71-4.79-10.71-10.71S343.9.23,349.81.23h42.87c5.9,0,10.71,4.79,10.71,10.71Z"/>
  <path class="cls-1" d="M395.14,43.07c-3.55-3.95-8.07-7.01-13.18-8.81-3.33-1.19-6.93-1.85-10.66-1.85h-.12c-3.75,0-7.33.66-10.66,1.83-5.11,1.82-9.64,4.88-13.18,8.83-5.11,5.68-8.22,13.18-8.24,21.42v.07c0,5.47,1.37,10.61,3.78,15.11.95,1.78,3.07,2.55,4.94,1.79,4.04-1.63,8.29-2.85,12.7-3.6,3.48-.61,7.06-.92,10.71-.92s7.25.32,10.73.92c4.41.75,8.66,1.97,12.7,3.6,1.87.75,3.99-.02,4.94-1.79,2.41-4.5,3.78-9.64,3.78-15.11v-.07c-.02-8.24-3.13-15.74-8.24-21.42ZM381.96,64.57c0,5.9-4.81,10.71-10.73,10.71s-10.71-4.81-10.71-10.71v-.07c.03-5.89,4.83-10.64,10.71-10.64s10.7,4.76,10.73,10.64v.07Z"/>
  <g>
    <path class="cls-1" d="M371.23,194.92c-3.73,0-7.46-.37-11.08-1.11-8.11-1.64-15.57-5-22.18-9.99-4.19-3.14-7.92-6.86-11.08-11.08-4.92-6.57-8.37-14.23-9.97-22.18-.74-3.62-1.12-7.35-1.12-11.08s.38-7.47,1.12-11.1c1.6-7.94,5.05-15.6,9.97-22.17,3.16-4.22,6.9-7.94,11.09-11.09,3.85-2.91,8.1-5.31,12.64-7.12,3.03-1.23,6.24-2.2,9.54-2.86,7.25-1.48,14.94-1.48,22.18,0,3.19.64,6.4,1.61,9.54,2.86,4.55,1.83,8.8,4.23,12.65,7.14,4.15,3.09,7.88,6.81,11.08,11.06,4.99,6.63,8.34,14.08,9.97,22.17h0c.74,3.63,1.12,7.36,1.12,11.1s-.38,7.46-1.12,11.09c-1.63,8.08-4.99,15.54-9.97,22.17-3.2,4.25-6.93,7.98-11.09,11.07-6.62,5-14.08,8.36-22.17,10-3.62.74-7.36,1.11-11.1,1.11ZM371.23,87.79c-3.48,0-6.96.35-10.34,1.04-3.07.62-6.06,1.51-8.88,2.66-4.24,1.69-8.2,3.92-11.78,6.64-3.92,2.93-7.4,6.41-10.35,10.34-4.59,6.12-7.8,13.27-9.3,20.67-.69,3.38-1.03,6.86-1.03,10.35s.35,6.96,1.03,10.33c1.5,7.4,4.71,14.55,9.3,20.67,2.95,3.93,6.43,7.41,10.34,10.33,6.16,4.65,13.11,7.78,20.67,9.31,6.77,1.38,13.95,1.38,20.7,0,7.53-1.52,14.49-4.65,20.67-9.32,3.89-2.89,7.36-6.36,10.34-10.32,4.65-6.18,7.78-13.13,9.3-20.67.69-3.38,1.03-6.86,1.03-10.34s-.35-6.97-1.03-10.34h0c-1.52-7.54-4.65-14.49-9.3-20.67-2.98-3.96-6.45-7.44-10.33-10.32-3.59-2.72-7.55-4.96-11.79-6.66-2.93-1.17-5.91-2.08-8.88-2.67-3.39-.69-6.87-1.04-10.36-1.04Z"/>
    <path class="cls-1" d="M371.23,173.49c-3.91,0-7.72-.65-11.34-1.94-9.73-3.45-17.29-11-20.73-20.73-1.29-3.6-1.94-7.42-1.94-11.33s.65-7.74,1.94-11.35c3.44-9.73,11-17.28,20.74-20.72,7.24-2.59,15.51-2.57,22.7.02,9.72,3.43,17.28,10.98,20.72,20.71,1.29,3.61,1.95,7.43,1.95,11.34s-.66,7.72-1.95,11.34c-3.45,9.73-11,17.28-20.73,20.71-3.59,1.3-7.42,1.95-11.35,1.95ZM371.23,109.22c-3.48,0-6.87.58-10.08,1.72-8.67,3.07-15.39,9.79-18.46,18.45-1.14,3.21-1.72,6.61-1.72,10.09s.58,6.88,1.72,10.08c3.07,8.67,9.79,15.39,18.45,18.46,6.45,2.29,13.81,2.29,20.18-.02,8.54-3.01,15.44-9.9,18.46-18.43h0c1.14-3.22,1.72-6.61,1.72-10.09s-.58-6.88-1.72-10.09c-3.02-8.54-9.92-15.43-18.45-18.44-3.21-1.16-6.6-1.74-10.11-1.74Z"/>
    <path class="cls-1" d="M371.23,173.49c-6.94,0-12.59-5.65-12.59-12.58v-8.84h-8.83c-6.94,0-12.59-5.65-12.59-12.59s5.65-12.58,12.59-12.58h8.83v-8.84c0-6.94,5.65-12.58,12.59-12.58s12.6,5.65,12.6,12.58v8.84h8.84c6.94,0,12.59,5.65,12.59,12.58s-5.65,12.59-12.59,12.59h-8.84v8.84c0,6.94-5.65,12.58-12.6,12.58ZM349.81,130.64c-4.88,0-8.84,3.96-8.84,8.84s3.96,8.85,8.84,8.85h12.59v12.58c0,4.88,3.96,8.84,8.84,8.84s8.85-3.96,8.85-8.84v-12.58h12.59c4.87,0,8.83-3.97,8.83-8.85s-3.96-8.84-8.83-8.84h-12.59v-12.58c0-4.88-3.97-8.84-8.85-8.84s-8.84,3.96-8.84,8.84v12.58h-12.59Z"/>
  </g>
</svg>