<?xml version="1.0" encoding="UTF-8"?>
<svg id="_图层_1" data-name="图层 1" xmlns="http://www.w3.org/2000/svg" viewBox="0 0 483.05 406.26">
  <defs>
    <style>
      .cls-1 {
        fill: #595757;
      }
    </style>
  </defs>
  <g>
    <path class="cls-1" d="M334.42,305.12c-5.14,5.77-11.58,11.39-19.18,16.39-2.06,1.35-4.22,2.66-6.46,3.92-6.1,3.43-12.86,6.47-20.22,8.91-2.11.68-4.26,1.33-6.46,1.92-6.35,1.74-13.08,3-20.22,3.72-2.11.23-4.29.41-6.46.52-6.46.36-13.22.27-20.22-.36-1.44-.11-2.89-.27-4.35-.43-6.55-.74-13.31-1.94-20.28-3.65-4.6-1.1-9.29-2.44-14.09-4.01-1.82-.59-3.64-1.22-5.47-1.87-5.27-1.78-10.16-3.97-14.72-6.52-5.14-2.8-9.83-6.04-14.16-9.56-7.74-6.31-14.32-13.53-19.93-20.95-12.39-16.28-20.24-33.47-26.3-43.68-12-23.84-47.25-50.76-115.89-13.52v63.53s29.63-37.92,71.17-28.97c40.31,15.12,25.34,48.67,59.2,92.58,33.86,43.93,120.02,43.18,120.02,43.18,0,0-3.39-39.58,18.78-42.67,22.15-3.11,20.62,18.85,21.23,36.8,26.48-5.89,58.47-32.47,62.18-75.79,2.04-24.04.58-37.19-1.93-49.3-2.96,8.39-6.57,18.51-15.19,28.64-.34.38-.67.79-1.03,1.17Z"/>
    <path class="cls-1" d="M402.43,205.85c-46.78-10.82-63.1,7.42-58.47,37.41,2.04,13.35,4.71,22.35,6.69,32.05,4.71-13.35,7.74-22.28,26.54-19.66,16.31,3.41,36.01,4.94,97.88,51.35,0,0,2.15-17.63,7.99-59.08-11.38-10.22-33.86-31.23-80.62-42.06Z"/>
  </g>
  <path class="cls-1" d="M146.9,55.9h183.01c8.27-2.72,25.45-15.7,34.19-38.26-16.3,11.1-45.76,12.28-65.72,7.2l-4.26,8.74V13.84c.08.02.19.02.3.02,3.83,0,6.93-3.1,6.93-6.93s-3.1-6.93-6.93-6.93-6.93,3.1-6.93,6.93c0,1,.21,1.98.62,2.83h-99.47c.4-.85.62-1.83.62-2.83,0-3.83-3.1-6.93-6.93-6.93s-6.93,3.1-6.93,6.93,3.1,6.93,6.93,6.93c.11,0,.21,0,.3-.02v19.75l-4.55-8.74c-19.96,5.08-49.12,3.9-65.42-7.2,8.74,22.55,25.98,35.53,34.24,38.26Z"/>
  <path class="cls-1" d="M329.91,74.32h-183.01c-13.69,6.14-76.99,9.77-104.71-6.92,30.86,38.41,55.41,42.81,74.31,43.45,18.28.62,115.59.04,121.87,0,6.28.04,103.59.62,121.87,0,18.9-.64,43.45-5.04,74.31-43.45-27.72,16.69-90.96,13.06-104.65,6.92Z"/>
  <path class="cls-1" d="M254.81,283.09v47.78c-6.12.34-12.52.26-19.15-.34v-47.44s0-.02.02-.02h19.11s.02,0,.02.02Z"/>
  <path class="cls-1" d="M280.09,283.09v43.79c-6.02,1.64-12.39,2.83-19.15,3.51v-47.29s0-.02.02-.02h19.11s.02,0,.02.02Z"/>
  <path class="cls-1" d="M305.36,283.09v33.58c-5.78,3.23-12.18,6.1-19.15,8.4v-41.98s0-.02.02-.02h19.11s.02,0,.02.02Z"/>
  <path class="cls-1" d="M330.63,283.09v13.33c-.32.36-.64.74-.98,1.11-4.87,5.44-10.97,10.73-18.17,15.45v-29.89s0-.02.02-.02h19.11s.02,0,.02.02Z"/>
  <path class="cls-1" d="M324.04,201.85c2.58-3.17,4.48-6.73,5.55-10.52,0-.01,0-.03-.03-.03h-19.93s-.02,0-.02.01c-3.25,5.79-10.19,9.92-18.43,10.54-.01,0-.02,0-.02.02v15.12s.01.02.03.02c13.8-.55,25.82-6.45,32.84-15.16Z"/>
  <path class="cls-1" d="M231.54,196.71v5.89c0,.06.02.11,0,.17v2.44c-.64,9.82-8.33,18.17-19.19,22-4.06,1.45-8.57,2.23-13.33,2.23h-.02v.11h32.52s.02,0,.02.02v15.01s0,.02-.02.02h-30.74c4.1.17,8.01.91,11.56,2.17,5.27,1.83,9.8,4.72,13.14,8.33,3.36,3.61,5.51,7.95,6.06,12.65v62.39c-6.21-.7-12.6-1.83-19.22-3.44v-49.57h.02v-8.5c-.87-5.1-6.46-9.03-13.24-9.03h-.11v53.05s0,.02-.02.02v10.25c-1.72-.55-3.44-1.15-5.19-1.76-5-1.68-9.63-3.74-13.94-6.14v-9.03s-.02-.02-.02-.02c0,0-.02,0-.02-.02v-46.34h-.08c-6.78,0-12.37,3.93-13.26,9.03v30.67s-.02.02-.02.02v6.67c-7.33-5.95-13.56-12.75-18.87-19.75v-9.12h.04v-9.97c1.3-9.08,8.67-16.69,18.85-20.3,3.17-1.13,6.65-1.89,10.27-2.17.53-.02,1.04-.06,1.57-.08h-30.67s-.02,0-.02-.02v-15.01s0-.02.02-.02h32.18v-.11c-4.76,0-9.29-.81-13.35-2.25-5.02-1.76-9.37-4.53-12.65-7.93-3.25-3.4-5.46-7.48-6.21-11.95v-10.61s0-.02.02-.02h18.81s.02.02.02.02v7.21c0,5.78,5.97,10.46,13.33,10.5t.02-.02v-17.68s.02-.02.04-.02h19.13s.02.02.02.02v17.71h.02c6.93,0,12.65-4.12,13.33-9.44v-8.27s.02-.02.04-.02h19.13s.02.02.02.02Z"/>
  <path class="cls-1" d="M330.64,136.63v-15.22s-.01-.02-.03-.02h-138s-.03-.01-.02-.03c1.61-3.79,2.47-7.85,2.48-12.08,0-.01-.01-.02-.03-.02h-19.5s-.02,0-.02.02c-.01,12.29-12.46,22.3-27.9,22.43-.01,0-.02,0-.02.02v15.52s.01.02.03.02c12.75-.07,24.29-4.1,32.79-10.62,0,0,.01,0,.02,0h51.06s.03,0,.03.02v9.17s-.01.02-.03.02h-25.49c-.58-.02-1.17-.04-1.75-.04-15.76,0-28.54,10.15-28.58,22.69,0,.01-.01.02-.02.02h-28.02s-.03,0-.03.02v15.24s.01.02.03.02h83.94v.14c0,6.59,2.41,12.73,6.6,17.88,0,.04.03.06.05.08,7.05,8.68,19.1,14.56,32.9,15.07.01,0,.03,0,.03-.02v-15.1s-.02-.01-.03-.02c-11.01-.78-19.74-7.86-20.43-16.69v-1.27h39.9v-.02h40.03s.03,0,.03-.02v-15.3s-.01-.02-.03-.02h-79.91s-.03,0-.03-.02v-7.38s.01-.02.03-.02h51.77v-15.26h-51.77s-.03,0-.03-.02v-9.17s.01-.02.03-.02h79.91s.03,0,.03-.02ZM231.52,168.52s-.01.02-.03.02h-36.15s-.03,0-.03-.02c0-4.08,4.16-7.4,9.29-7.4h26.88s.03,0,.03.02v7.38Z"/>
  <path class="cls-1" d="M330.62,221.89h-95v15.26h35.9s.03,0,.03.02v4.73s-.01.02-.03.02h-35.9v15.28h35.9s.03,0,.03.02v4.71s-.01.02-.03.02h-35.9v15.28h94.94s.03,0,.03-.02v-15.24s-.01-.02-.03-.02h-39.83s-.03,0-.03-.02v-4.71s.01-.02.03-.02h39.83s.03,0,.03-.02v-15.24s-.01-.02-.03-.02h-39.83s-.03,0-.03-.02v-4.73s.01-.02.03-.02h39.88s.03,0,.03-.02v-15.22s-.01-.02-.03-.02Z"/>
</svg>