<?xml version="1.0" encoding="UTF-8"?>
<svg id="_图层_1" data-name="图层 1" xmlns="http://www.w3.org/2000/svg" xmlns:xlink="http://www.w3.org/1999/xlink" viewBox="0 0 482.46 482.46">
  <defs>
    <style>
      .cls-1 {
        fill: url(#_未命名的渐变_8);
      }

      .cls-2, .cls-3 {
        fill: #fff;
      }

      .cls-4 {
        fill: url(#_未命名的渐变_9);
      }

      .cls-3 {
        font-family: FZCHSJW--GB1-0, FZCuHeiSongS-B-GB;
        font-size: 43.25px;
        glyph-orientation-vertical: 0deg;
        text-orientation: upright;
        writing-mode: tb;
      }

      .cls-5 {
        fill: url(#_未命名的渐变_7);
      }

      .cls-6 {
        fill: none;
        stroke: #fff;
        stroke-miterlimit: 10;
        stroke-width: 2.16px;
      }
    </style>
    <linearGradient id="_未命名的渐变_9" data-name="未命名的渐变 9" x1="41.09" y1="119.13" x2="441.16" y2="363.2" gradientUnits="userSpaceOnUse">
      <stop offset="0" stop-color="#43a0da"/>
      <stop offset="1" stop-color="#0d246e"/>
    </linearGradient>
    <linearGradient id="_未命名的渐变_7" data-name="未命名的渐变 7" x1="266.63" y1="219.6" x2="382.7" y2="283.47" gradientUnits="userSpaceOnUse">
      <stop offset="0" stop-color="#43a0da"/>
      <stop offset=".98" stop-color="#0d246e"/>
    </linearGradient>
    <linearGradient id="_未命名的渐变_8" data-name="未命名的渐变 8" x1="99.16" y1="218.98" x2="356.78" y2="337.57" gradientUnits="userSpaceOnUse">
      <stop offset="0" stop-color="#43a0da"/>
      <stop offset=".32" stop-color="#337bba"/>
      <stop offset="1" stop-color="#0d246e"/>
    </linearGradient>
  </defs>
  <g>
    <circle class="cls-4" cx="241.23" cy="241.23" r="241.23"/>
    <text class="cls-3" transform="translate(52.06 119.01) rotate(-51.59)"><tspan x="0" y="0">中</tspan></text>
    <text class="cls-3" transform="translate(88.29 75.94) rotate(-37.3)"><tspan x="0" y="0">共</tspan></text>
    <text class="cls-3" transform="translate(134.1 43.1) rotate(-22.91)"><tspan x="0" y="0">松</tspan></text>
    <text class="cls-3" transform="translate(186.63 22.7) rotate(-8.46)"><tspan x="0" y="0">阳</tspan></text>
    <text class="cls-3" transform="translate(242.52 16.05) rotate(5.78)"><tspan x="0" y="0">县</tspan></text>
    <text class="cls-3" transform="translate(298.39 23.35) rotate(20.21)"><tspan x="0" y="0">委</tspan></text>
    <text class="cls-3" transform="translate(350.66 44.37) rotate(34.62)"><tspan x="0" y="0">组</tspan></text>
    <text class="cls-3" transform="translate(396.04 77.69) rotate(48.92)"><tspan x="0" y="0">织</tspan></text>
    <text class="cls-3" transform="translate(431.82 121.22) rotate(63.27)"><tspan x="0" y="0">部</tspan></text>
    <circle class="cls-6" cx="241.23" cy="241.23" r="233.86"/>
    <text class="cls-3" transform="translate(69.16 301.3) rotate(63.88)"><tspan x="0" y="0">干</tspan></text>
    <text class="cls-3" transform="translate(91.57 345.13) rotate(48.37)"><tspan x="0" y="0">部</tspan></text>
    <text class="cls-3" transform="translate(124.9 381.41) rotate(32.9)"><tspan x="0" y="0">人</tspan></text>
    <text class="cls-3" transform="translate(166.67 407.47) rotate(17.29)"><tspan x="0" y="0">事</tspan></text>
    <text class="cls-3" transform="translate(213.94 421.3) rotate(1.73)"><tspan x="0" y="0">档</tspan></text>
    <text class="cls-3" transform="translate(263.18 422.01) rotate(-13.73)"><tspan x="0" y="0">案</tspan></text>
    <text class="cls-3" transform="translate(310.81 409.52) rotate(-29.37)"><tspan x="0" y="0">管</tspan></text>
    <text class="cls-3" transform="translate(353.33 384.64) rotate(-44.86)"><tspan x="0" y="0">理</tspan></text>
    <text class="cls-3" transform="translate(387.66 349.35) rotate(-60.34)"><tspan x="0" y="0">中</tspan></text>
    <text class="cls-3" transform="translate(411.32 306.16) rotate(-75.98)"><tspan x="0" y="0">心</tspan></text>
    <polygon class="cls-2" points="38.36 204.02 41.94 215.01 53.49 215.01 44.14 221.8 47.71 232.79 38.36 226 29.02 232.79 32.59 221.8 23.24 215.01 34.79 215.01 38.36 204.02"/>
    <polygon class="cls-2" points="443.76 204.02 447.33 215.01 458.89 215.01 449.54 221.8 453.11 232.79 443.76 226 434.42 232.79 437.99 221.8 428.64 215.01 440.19 215.01 443.76 204.02"/>
  </g>
  <circle class="cls-2" cx="241.23" cy="241.23" r="173.63"/>
  <g>
    <g>
      <path class="cls-5" d="M382.06,212.25l-.17-46.09v-1.96s-13.78,4.95-13.78,4.95v-25.11l-109.28,38.47c-3.83,1.58-6,4.76-6.07,8.46h-.06v.52s0,0,0,0l.12,143.85c-.04,3.57,1.67,7.23,4.68,10.05,3.68,3.44,8.89,5.25,15.1,5.25,0,0,0,0,0,0s0,0,0,0c1.72,0,3.53-.14,5.4-.42l104.43-37.05-.37-100.91ZM259.74,185.16l105.71-37.21v22.15l-88.05,31.65c-1.45.22-2.83.32-4.16.36-.38.01-.72,0-1.09-.01-.95,0-1.87-.04-2.74-.12-.34-.03-.67-.08-.99-.12-.85-.12-1.66-.28-2.43-.47-.28-.07-.58-.13-.84-.2-.85-.25-1.64-.54-2.39-.87-.49-.22-.93-.46-1.35-.7-.19-.1-.37-.21-.55-.32-.9-.56-1.64-1.13-2.18-1.63-2.09-1.93-3.29-4.36-3.31-6.66.05-2.56,1.63-4.72,4.36-5.84Z"/>
      <path class="cls-1" d="M223.56,182.47l-109.21-38.44v25.11l-13.77-4.95-.54,148.97,104.67,37.11c1.76.26,3.48.39,5.13.39,6.16,0,11.42-1.82,15.13-5.28,3.02-2.82,4.72-6.49,4.68-10.04l.12-143.87c0-.23,0-.46,0-.69h0c-.14-3.63-2.37-6.72-6.2-8.3ZM117.01,147.95l105.65,37.19c2.79,1.15,4.38,3.32,4.43,5.88-.02,2.3-1.22,4.72-3.31,6.65-.55.51-1.3,1.09-2.23,1.66-.15.09-.29.18-.44.26-.44.25-.9.5-1.41.73-.74.33-1.53.63-2.37.88-.22.07-.47.12-.71.18-.83.21-1.7.39-2.62.52-.24.03-.48.06-.72.09-.99.11-2.02.15-3.1.15-.24,0-.45.02-.7,0-1.33-.03-2.71-.14-4.17-.35l-88.3-31.71v-22.15Z"/>
    </g>
    <g>
      <path class="cls-2" d="M140.74,233.47c9.2-9.79,7.74-37.17,7.67-38.33-.11-1.96-1.34-3.92-2.86-4.18-1.46-.36-2.56.94-2.45,2.88.01.25,1.35,25.47-6.28,33.58-1.72,1.82-3.74,2.57-6.15,2.3v-40.41c0-1.92-1.2-3.89-2.67-4.4-1.47-.51-2.67.65-2.67,2.56v40.18c-2.13-1.4-3.99-3.4-5.59-6.15-7.82-13.43-6.9-37.89-6.89-38.13.08-1.89-1.05-3.92-2.52-4.52-1.43-.46-2.73.43-2.81,2.32-.05,1.12-1.05,27.62,8.33,43.77,2.63,4.53,5.82,7.78,9.47,9.81v25.14c-3.93-.71-7.33.28-10.06,3.19-9.2,9.79-7.74,37.17-7.67,38.33.1,1.86,1.28,3.66,2.66,4.13.07.02.13.04.2.05,1.46.36,2.56-.94,2.45-2.88-.01-.25-1.35-25.47,6.28-33.58,1.72-1.82,3.74-2.57,6.15-2.3v40.41c0,1.92,1.2,3.89,2.67,4.4,1.47.51,2.67-.65,2.67-2.56v-40.18c2.13,1.4,3.99,3.4,5.59,6.15,7.82,13.43,6.9,37.89,6.89,38.13-.08,1.89,1.05,3.92,2.52,4.52,1.39.5,2.72-.43,2.81-2.32.05-1.12,1.05-27.62-8.33-43.77-2.63-4.53-5.82-7.78-9.47-9.81v-25.14c3.93.71,7.33-.28,10.06-3.19Z"/>
      <path class="cls-2" d="M164.69,245.35c11.36-11.44,7.71-41.1,7.56-42.35-.25-1.97-1.64-3.71-3.09-3.9-1.45-.17-2.42,1.31-2.17,3.28.04.28,3.37,27.26-6.13,36.82-11.39,11.45-8.61,32.91-8.49,33.82.24,1.76,1.36,3.3,2.62,3.73.16.06.33.09.49.11,1.45.15,2.4-1.33,2.14-3.31-.03-.19-2.36-18.72,7.08-28.2Z"/>
      <path class="cls-2" d="M195.18,250.99c-9.47-16.04-6.18-40.78-6.15-41.03.25-1.81-.72-3.94-2.17-4.76-1.44-.88-2.83-.05-3.09,1.77-.16,1.14-3.8,28.31,7.56,47.55,9.43,15.97,7.1,32.89,7.08,33.06-.26,1.8.7,3.94,2.14,4.78.16.1.33.17.49.23,1.26.43,2.38-.35,2.62-1.94.12-.82,2.89-20.37-8.48-39.65Z"/>
      <path class="cls-2" d="M186.36,299.14c-1.22-1.5-2.87-1.65-3.7-.34-.83,1.3-.51,3.58.72,5.07,5.79,7.1,10.36,18.36,9.53,21.59-.31,1.22-2.2.76-3.3.39l-22.16-7.61c-1.56-.53-3.54-1.52-4.13-3.19-.96-2.72.22-9.09,6.44-18.81,11.52-17.97,10.94-32.51,10.92-33.12-.1-1.94-1.27-3.9-2.82-4.19-1.46-.39-2.58.86-2.51,2.8,0,.12.36,12.92-9.99,29.08-6.9,10.77-9.11,19.24-6.76,25.87,1.47,4.14,4.45,7.01,8.85,8.52l22.16,7.61c6,2.06,7.84-1.35,8.4-3.56,1.99-7.77-5.63-22.74-11.65-30.12Z"/>
    </g>
    <g>
      <path class="cls-2" d="M331.89,290.38c-.09-6.97-4.66-8.42-7.99-9.47-3.62-1.14-5.2-1.94-5.2-4.75,0-6.07,10.71-12.76,18.53-17.64,8.78-5.48,15.13-9.44,15.13-15.81,0-7.1-6.06-6.54-10.94-6.09-3.13.29-7.43.69-7.79-.66,1.05-2.23,8.76-6.76,13.36-9.47,6.73-3.96,13.69-8.05,17.69-12.74,3.63-4.25,5.1-10.59,3.74-16.15-1.91-7.84-9.82-15.13-25.81-9.9-13.73,4.49-20.94,16.08-20.97,25.2-.02,6.82,4.15,12.82,13.35,9.91,8.41-2.35,11.94-7.72,13.35-11.48,1.34-3.57,1.27-7.38-.19-9.96-1.32-2.34-3.44-3.29-5.91-2.29-1.5.6-2.64,2.65-2.56,4.58.08,1.92,1.19,3,2.86,2.4.48-.13.79.2,1,.57.16.28.62,1.28.06,2.78-.35.94-1.99,4.14-8.33,6.21-.08.03-.16.05-.25.07-4.78,1.52-7.98-.31-7.96-4.55.01-4.53,4.17-12.63,15.54-16.35,12.17-3.98,19.12.39,20.61,6.51.68,2.78.12,5.57-1.49,7.45-3.13,3.67-9.86,7.63-15.81,11.13-10.35,6.09-18.52,10.89-17.55,18.28.89,6.77,7.1,6.2,12.09,5.74,1.93-.17,6.47-.59,6.59-.06-.92,1.85-7,5.64-11.02,8.15-10.14,6.32-22.77,14.19-22.77,25.94,0,7.52,4.76,9.03,8.23,10.12,3.42,1.08,4.93,1.8,4.95,4.22.08,6.14-9.57,16.31-28.7,30.22-7.45,5.43-10.16,5.28-11.1,4.7-1.43-.88-1.51-4.65-1.59-8.29l-.03-83.03v-1.8c-.05-5.17-.13-14.78,2.79-19.61.9-1.48,2.03-2.39,3.56-2.9,6.7-2.19,17.36.72,17.36,8.32,0,2.54-4.1,5.74-7.72,8.55-5.13,3.99-11.5,8.95-11.5,16.67s6.96,7.28,13.08,6.68c5.58-.54,9.86-.72,9.86,2.28,0,2.52-2.6,5.25-6.84,9.47-7.01,7-16.61,16.58-16.61,34.65,0,1.96,1.22,3.15,2.72,2.66,1.5-.49,2.72-2.48,2.72-4.44,0-13.74,6.94-20.67,13.66-27.38,4.81-4.8,9.78-9.77,9.78-16.75,0-9.18-7.96-8.41-14.35-7.79-3.42.33-8.59.84-8.59-1.17,0-2.67,4.16-5.91,7.84-8.76,5.33-4.15,11.38-8.86,11.38-16.46,0-12.68-13.72-16.61-22.79-13.64-2.99.98-5.48,3.09-7.41,6.27-4.52,7.45-4.43,18.55-4.37,25.19v83.4s.05,1.54.05,1.54c.11,4.85.23,10.9,3.85,13.11,1.6.97,3.65,1.06,6.25.21,2.62-.86,5.79-2.66,9.61-5.43,17-12.37,32.7-25.57,32.54-38.38Z"/>
      <path class="cls-2" d="M377.42,267.56c-1.07-10.66-7.9-17.08-18.73-17.61-1.41-.02-2.94,1.52-3.36,3.53-.41,2.01.42,3.71,1.86,3.78,8.65.42,14.06,5.15,14.85,12.96.98,9.77-5.37,23.23-16.99,36.01-1.29,1.42-1.72,3.74-.95,5.18.51.95,1.41,1.28,2.34.97.47-.15.95-.47,1.38-.95,13.74-15.12,20.89-31.11,19.6-43.86Z"/>
      <path class="cls-2" d="M363.32,275.48c-.74-9.12-7.07-14.9-17.36-15.89-1.41-.11-2.95,1.39-3.42,3.4-.46,2.01.32,3.75,1.75,3.89,8.04.76,13.13,4.91,13.64,11.09.65,7.97-5.92,19.81-18.49,33.33-1.3,1.39-1.75,3.71-1,5.16.5.98,1.41,1.32,2.35,1.01.46-.15.92-.46,1.35-.92,18.64-20.04,21.81-33.4,21.18-41.09Z"/>
      <path class="cls-2" d="M349.24,282.89c-.62-11.02-12.17-12.99-15.96-13.64-1.38-.24-2.97,1.19-3.5,3.2-.53,2,.17,3.82,1.57,4.06,8.04,1.37,12.23,4.29,12.48,8.66.2,3.56-2.13,12.35-20,31.23-1.3,1.39-1.78,3.7-1.05,5.17.5,1,1.42,1.35,2.37,1.04.45-.15.9-.44,1.32-.88,15.85-16.75,23.29-29.45,22.76-38.84Z"/>
    </g>
  </g>
</svg>