<?xml version="1.0" encoding="UTF-8"?>
<svg id="_图层_1" data-name="图层 1" xmlns="http://www.w3.org/2000/svg" xmlns:xlink="http://www.w3.org/1999/xlink" viewBox="0 0 438.75 439.45">
  <defs>
    <style>
      .cls-1 {
        fill: url(#_未命名的渐变_2);
      }
    </style>
    <linearGradient id="_未命名的渐变_2" data-name="未命名的渐变 2" x1="3.97" y1="86.17" x2="455.97" y2="374.17" gradientUnits="userSpaceOnUse">
      <stop offset="0" stop-color="#ff94f6"/>
      <stop offset=".3" stop-color="#b582e0"/>
      <stop offset="1" stop-color="#0056aa"/>
    </linearGradient>
  </defs>
  <path class="cls-1" d="M438.75,383.01c-3.52,11.06-7.99,21.9-17.74,28.89-14.03,10.06-27.43,8.55-43.12,4.53-50.94-13.02-103.77-33.68-154.68-48.86-12.06-3.6-24.33-6.66-36.43-10.1l-45.84,44.47c-26.43,23.94-47.5,44.13-86.33,35.46-39.32-8.78-63.43-49-51.59-87.53,12.07-39.24,46.42-56.21,85.75-49.4,30.35,5.26,59.63,16.21,89.54,23.22l96.73-102.95-96.43-104.1c-4.53-.95-13.61,3.52-18.01,4.69-13.9,3.68-27.97,7.59-41.92,10.96-33.91,8.2-62.44,18.05-92.48-6.72C-15.45,91.2-5.04,25.32,44.8,5.52c40.78-16.2,66.31,5.96,94.64,31.76,15.6,14.21,30.16,29.79,45.33,44.46l2.1.96,3.7-.23c57.58-16.65,114.22-36.66,171.57-53.94,26.2-7.9,52.59-16.22,70.04,12.34,3.54,5.8,3.77,10.98,6.57,16.88v9.98c-3.28,8.02-4.47,15.35-10,22.43-15.26,19.52-37.05,39.93-53.8,59.19-17.98,20.67-38.32,43.06-54.9,64.59-1.38,1.8-4.27,4.84-4.07,6.9,31.58,37.84,63.44,75.57,96.32,112.31,7.08,7.91,16.63,14.7,21.34,24.55,2.24,4.68,2.56,9.94,5.11,14.34v10.98ZM130.8,70.36c-14.59-13.79-35.89-38.9-56.74-40.54-57.87-4.54-60.14,79-7.85,83.67,12.64,1.13,42.02-7.47,55.47-11.14,10.52-2.87,20.95-7.39,31.72-8.69l-.93-3.56c-7.14-6.63-14.6-13.05-21.67-19.73ZM365.53,115.24c8.31-9.46,16.35-19.23,24.81-28.57,7.16-7.9,21.1-16.42,16.93-28.87-3.87-11.55-19.26-5.46-27.16-3.31-28.11,7.67-56.81,18.3-84.83,26.92-25.76,7.93-58.16,14.67-82.5,24.26-.96.38-1.87.35-2.5,1.47l84.43,89.23c1.37.24,2.99-2,3.86-2.91,22.49-23.37,45.02-53.26,66.95-78.21ZM397.2,360.71c-13.93-16.13-28.76-31.49-42.77-47.53-20.02-22.92-39.05-46.78-58.96-69.81l-84.19,89.28c-.35,2.19.35,1.16,1.44,1.49,59.6,18.39,119.11,36.23,178.72,54.78,11.28,2.17,19.72-5.32,15.84-16.83-1.13-3.36-7.76-8.68-10.08-11.37ZM153.4,347.1l-75.58-19.71c-63.87-9.22-65.17,89.53-1.84,82.45,17.75-1.98,49.38-33.74,63.02-46.74,2.92-2.79,10.91-10.39,12.92-13.02.76-1,1.94-1.26,1.49-2.99Z"/>
</svg>