<?xml version="1.0" encoding="UTF-8"?>
<svg id="_图层_1" data-name="图层_1" xmlns="http://www.w3.org/2000/svg" version="1.1" viewBox="0 0 566.9 566.9">
  <!-- Generator: Adobe Illustrator 29.0.0, SVG Export Plug-In . SVG Version: 2.1.0 Build 186)  -->
  <defs>
    <style>
      .st0 {
        fill: #888;
      }
    </style>
  </defs>
  <path class="st0" d="M186.8,112.6c-.4.6-.8,1.2-1.2,1.8-3,4.5-5.5,9.2-7.5,14.1-2.6,6.2-4.5,12.6-5.5,19.2-.3,1.7-.5,3.5-.7,5.2-.5,4.7-.6,9.5-.4,14.2,0,1.5.2,3.1.4,4.6,0,.1,0,.2,0,.3-6.4-.7-12.8-.7-19.2,0-1.5.2-3,.4-4.5.6-6.5,1.1-13,2.9-19.2,5.5-5.3,2.2-10.5,5-15.4,8.3-.2.1-.4.2-.5.4,0,0,0,0,0,0-1.4,1-2.8,2-4.2,3.1l.9.4h0s3.6,1.6,3.6,1.6l8.7,3.9,4.7,2.1,34,15.4,6.5,3,10.5,4.7,17,7.7,17,7.7.8.4,7.4,3.3s0,0,0,0l5.1,2.3,3.7,1.7,16.3,7.4.7.3,3.8,1.7,5,2.2,3.2,1.4-3.6-7.9v-.3c-.1,0-1.8-3.7-1.8-3.7l-.3-.8-3-6.6-4.4-9.6-1.8-4-1.8-3.9-3.9-8.5-.2-.5-7.2-15.8-.5-1.2-7.7-17-4.9-10.7-2.8-6.3-15.4-34-2.3-5-.8-1.7-3-6.6-1-2.2-.7-1.4-.5-1.1c-1.1,1.3-2.1,2.7-3,4.1ZM222.2,201.4c4.2,4.3,7.7,9,10.8,13.9,3.3,5.4,5.9,11,7.9,16.8.5,1.6,1,3.3,1.5,4.9.6,2.2,1.1,4.4,1.5,6.7h0s0,0,0,0c-3.9-.7-7.8-1.7-11.6-3-2.4-.8-4.7-1.7-7.1-2.7,0,0,0,0-.1,0-.3-.1-.5-.2-.8-.3-.3-.1-.5-.2-.8-.3,0,0-.2,0-.3-.1-2.7-1.3-5.3-2.7-7.9-4.3-4.9-3-9.6-6.6-13.9-10.8-.4-.4-.9-.8-1.3-1.2-3.8-3.8-7.1-7.9-10-12.1-3.5-5.1-6.3-10.6-8.5-16.2-1.9-5-3.4-10.1-4.3-15.3,0,0,0,0,0,0h0c2.2.4,4.5.9,6.7,1.5,2.9.8,5.8,1.7,8.6,2.8,5.6,2.2,11.1,5,16.2,8.5,4.3,2.9,8.4,6.3,12.1,10,.4.4.8.8,1.2,1.3Z"/>
  <path class="st0" d="M460,378.7l-1.1-.5-1.4-.7-2.2-1-6.6-3-1.7-.8-5-2.3-34-15.4-6.3-2.8-10.7-4.9-17-7.7-1.2-.5-15.8-7.2-.5-.2-8.5-3.9-3.9-1.8-4-1.8-9.6-4.4-6.6-3-.8-.3-3.7-1.7h-.3c0-.1-7.9-3.7-7.9-3.7l1.4,3.2,2.2,5,1.7,3.8.3.7,7.4,16.3,1.7,3.7,2.3,5.1s0,0,0,0l3.3,7.4.4.8,7.7,17,7.7,17,4.7,10.5,3,6.5,15.4,34,2.1,4.7,3.9,8.7,1.6,3.6h0s.4.9.4.9c1.1-1.4,2.1-2.7,3.1-4.2,0,0,0,0,0,0,.1-.2.3-.4.4-.5,3.3-4.9,6.1-10.1,8.3-15.4,2.6-6.2,4.4-12.7,5.5-19.2.3-1.5.5-3,.6-4.5.7-6.4.7-12.8,0-19.2.1,0,.2,0,.3,0,1.5.2,3.1.3,4.6.4,4.7.3,9.5.1,14.2-.4,1.7-.2,3.5-.4,5.2-.7,6.5-1.1,13-2.9,19.2-5.5,4.9-2,9.6-4.5,14.1-7.5.6-.4,1.2-.8,1.8-1.2,1.4-1,2.7-2,4.1-3ZM368.5,347.7c3.8,3.8,7.1,7.9,10,12.1,3.5,5.1,6.3,10.6,8.5,16.2,1.1,2.8,2,5.7,2.8,8.6.6,2.2,1.1,4.4,1.5,6.7h0s0,0,0,0c-5.2-.9-10.3-2.4-15.3-4.3-5.6-2.2-11.1-5-16.2-8.5-4.3-2.9-8.4-6.3-12.1-10-.4-.4-.8-.8-1.2-1.3-4.2-4.3-7.7-9-10.8-13.9-1.6-2.6-3-5.2-4.3-7.9,0,0,0-.2-.1-.3-.1-.2-.2-.5-.3-.8-.1-.2-.2-.5-.3-.8,0,0,0,0,0-.1-1-2.3-1.9-4.7-2.7-7.1-1.3-3.8-2.3-7.7-3-11.6,0,0,0,0,0,0h0c2.2.4,4.5.9,6.7,1.5,1.6.4,3.3.9,4.9,1.5,5.8,2,11.5,4.6,16.8,7.9,4.9,3,9.6,6.6,13.9,10.8.4.4.9.8,1.3,1.2Z"/>
  <path class="st0" d="M349,44.8c-.9.2-1.8.3-2.7.5-6.6,1.4-13,3.3-19.1,5.8-7.8,3.2-15.1,7.2-21.8,12-1.8,1.3-3.5,2.6-5.2,4-4.6,3.7-8.9,7.8-12.9,12.2-1.3,1.4-2.5,2.9-3.7,4.4,0,.1-.2.2-.3.3-5-6.2-10.7-11.9-17-16.9-1.5-1.2-3-2.3-4.6-3.5-6.7-4.8-14.1-8.9-21.8-12.1-6.7-2.8-13.7-4.9-21-6.3-.3,0-.5-.1-.8-.1,0,0,0,0,0,0-2.1-.4-4.2-.7-6.4-1l.4,1.1h0l1.7,4.6,4.2,11.2,2.3,6,16.4,43.6,3.2,8.4,5,13.4,8.2,21.8,8.2,21.8.4,1,3.6,9.5s0,0,0,0l2.5,6.5,1.8,4.8,7.8,20.9.4.9,1.8,4.8,2.4,6.4,1.6,4,3.8-10.1v-.3c.1,0,1.9-4.7,1.9-4.7l.4-1,3.2-8.5,4.6-12.3,1.9-5.2,1.9-5c.2-.5.4-1,.5-1.6,0,0,0,0,0,0,1.1-3.3,2-6.6,2.8-10,.3-1.3.5-2.5.8-3.8.9-5,1.5-10.2,1.8-15.5h0c0-.9,0-1.7,0-2.6,0-.7,0-1.5,0-2.2,0-6.7-.6-13.2-1.8-19.6,0-.2,0-.5-.1-.7-1.4-7.3-3.5-14.4-6.3-21.1-2.2-5.2-4.7-10.2-7.6-15-1.2,1.6-2.3,3.2-3.4,4.9,1.9,3.3,3.6,6.6,5.1,10.1,3,6.9,5.3,14.2,6.8,21.8,1.2,6.3,1.9,12.9,1.9,19.6s0,1.5,0,2.2c-.1,7.5-1.1,14.8-2.8,21.8-1.8,7.6-4.5,14.9-7.9,21.8-1,1.9-2,3.8-3,5.7-1.4,2.5-2.9,4.9-4.6,7.2,0,0,0,0,0,0-2.8-4.1-5.4-8.4-7.6-12.9-1.4-2.8-2.7-5.7-3.8-8.7,0,0,0-.1,0-.2-.1-.3-.2-.7-.4-1-.1-.3-.2-.7-.4-1,0-.1,0-.2-.1-.3-1.2-3.5-2.3-7.1-3.2-10.7-1.7-7-2.6-14.3-2.8-21.8,0-.7,0-1.5,0-2.2,0-6.7.6-13.2,1.9-19.6,1.5-7.6,3.7-14.9,6.8-21.8,2.7-6.1,5.9-11.9,9.7-17.4,0,0,0,0,0,0,1.1-1.5,2.1-3,3.3-4.4,0,0,0,0,.1-.1,1.3-1.7,2.6-3.3,4-4.8,4.4-5,9.2-9.5,14.5-13.6,1.5-1.1,2.9-2.2,4.4-3.3,5.4-3.8,11.3-7,17.4-9.7,6.3-2.7,12.8-4.9,19.7-6.3l-3.3,8.9-2.7,7.2-8.2,21.8-5.5,14.6-2.7,7.2-8.2,21.8-3.4,9.2c.3,3.4.5,6.9.5,10.4s0,1.5,0,2.2h.5l8.2-21.8,5.2-13.8,3-8,16.4-43.6,2.4-6.4.8-2.2,3.2-8.5,1.1-2.8.7-1.8.5-1.5c-2.1.2-4.2.6-6.3.9ZM279.6,89c-4.8,6.7-8.8,14.1-12,21.8-2.6,6.2-4.5,12.8-5.9,19.5-.2.8-.3,1.5-.4,2.3-1.1,6.2-1.7,12.7-1.7,19.3s0,1.7,0,2.6c0,.6,0,1.2,0,1.8l-.7-1.8-8.2-21.8-8.2-21.8-2.7-7.3-5.5-14.5-8.2-21.8-6-16c6.8,1.5,13.4,3.6,19.6,6.3,6.1,2.7,11.9,5.9,17.3,9.7,1.5,1.1,3,2.2,4.5,3.3,6.8,5.3,12.9,11.3,18.2,18.1-.1.1-.2.3-.3.4Z"/>
  <path class="st0" d="M44.8,218c.2.9.3,1.8.5,2.7,1.4,6.6,3.3,13,5.8,19.1,3.2,7.8,7.2,15.1,12,21.8,1.3,1.8,2.6,3.5,4,5.2,3.7,4.6,7.8,8.9,12.2,12.9,1.4,1.3,2.9,2.5,4.4,3.7.1,0,.2.2.3.3-6.2,5-11.9,10.7-16.9,17-1.2,1.5-2.3,3-3.5,4.6-4.8,6.7-8.9,14.1-12.1,21.8-2.8,6.7-4.9,13.7-6.3,21,0,.3-.1.5-.1.8,0,0,0,0,0,0-.4,2.1-.7,4.2-1,6.4l1.1-.4h0c0,0,4.6-1.8,4.6-1.8l11.2-4.2,6-2.3,43.6-16.4,8.4-3.2,13.4-5,21.8-8.2,21.8-8.2,1-.4,9.5-3.6s0,0,0,0l6.5-2.5,4.8-1.8,20.9-7.8.9-.4,4.8-1.8,6.4-2.4,4-1.6-10.1-3.8h-.3c0-.1-4.7-1.9-4.7-1.9l-1-.4-8.5-3.2-12.3-4.6-5.2-1.9-5-1.9c-.5-.2-1-.4-1.6-.5,0,0,0,0,0,0-3.3-1.1-6.6-2-10-2.8-1.3-.3-2.5-.5-3.8-.8-5-.9-10.2-1.5-15.5-1.8h0c-.9,0-1.7,0-2.6,0-.7,0-1.5,0-2.2,0-6.7,0-13.2.6-19.6,1.8-.2,0-.5,0-.7.1-7.3,1.4-14.4,3.5-21.1,6.3-5.2,2.2-10.2,4.7-15,7.6,1.6,1.2,3.2,2.3,4.9,3.4,3.3-1.9,6.6-3.6,10.1-5.1,6.9-3,14.2-5.3,21.8-6.8,6.3-1.2,12.9-1.9,19.6-1.9.7,0,1.5,0,2.2,0,7.5.1,14.8,1.1,21.8,2.8,7.6,1.8,14.9,4.5,21.8,7.9,1.9,1,3.8,2,5.7,3,2.5,1.4,4.9,2.9,7.2,4.6,0,0,0,0,0,0-4.1,2.8-8.4,5.4-12.9,7.6-2.8,1.4-5.7,2.7-8.7,3.8,0,0-.1,0-.2,0-.3.1-.7.2-1,.4-.3.1-.7.2-1,.4-.1,0-.2,0-.3.1-3.5,1.2-7.1,2.3-10.7,3.2-7,1.7-14.3,2.6-21.8,2.8-.7,0-1.5,0-2.2,0-6.7,0-13.2-.6-19.6-1.9-7.6-1.5-14.9-3.7-21.8-6.8-6.1-2.7-11.9-5.9-17.4-9.7,0,0,0,0,0,0-1.5-1.1-3-2.1-4.4-3.3,0,0,0,0-.1-.1-1.7-1.3-3.3-2.6-4.8-4-5-4.4-9.5-9.2-13.6-14.5-1.1-1.5-2.2-2.9-3.3-4.4-3.8-5.4-7-11.3-9.7-17.4-2.7-6.3-4.9-12.8-6.3-19.7l8.9,3.3,7.2,2.7,21.8,8.2,14.6,5.5,7.2,2.7,21.8,8.2,9.2,3.4c3.4-.3,6.9-.5,10.4-.5.7,0,1.5,0,2.2,0v-.5s-21.8-8.2-21.8-8.2l-13.8-5.2-8-3-43.6-16.4-6.4-2.4-2.2-.8-8.5-3.2-2.8-1.1-1.8-.7-1.5-.5c.2,2.1.6,4.2.9,6.3ZM89,287.4c6.7,4.8,14.1,8.8,21.8,12,6.2,2.6,12.8,4.5,19.5,5.9.8.2,1.5.3,2.3.4,6.2,1.1,12.7,1.7,19.3,1.7.9,0,1.7,0,2.6,0,.6,0,1.2,0,1.8,0l-1.8.7-21.8,8.2-21.8,8.2-7.3,2.7-14.5,5.5-21.8,8.2-16,6c1.5-6.8,3.6-13.4,6.3-19.6,2.7-6.1,5.9-11.9,9.7-17.3,1.1-1.5,2.2-3,3.3-4.5,5.3-6.8,11.3-12.9,18.1-18.2.1.1.3.2.4.3Z"/>
  <path class="st0" d="M217.9,522.1c.9-.2,1.8-.3,2.7-.5,6.6-1.4,13-3.3,19.1-5.8,7.8-3.2,15.1-7.2,21.8-12,1.8-1.3,3.5-2.6,5.2-4,4.6-3.7,8.9-7.8,12.9-12.2,1.3-1.4,2.5-2.9,3.7-4.4,0-.1.2-.2.3-.3,5,6.2,10.7,11.9,17,16.9,1.5,1.2,3,2.3,4.6,3.5,6.7,4.8,14.1,8.9,21.8,12.1,6.7,2.8,13.7,4.9,21,6.3.3,0,.5.1.8.1,0,0,0,0,0,0,2.1.4,4.2.7,6.4,1l-.4-1.1h0l-1.7-4.6-4.2-11.2-2.3-6-16.4-43.6-3.2-8.4-5-13.4-8.2-21.8-8.2-21.8-.4-1-3.6-9.5s0,0,0,0l-2.5-6.5-1.8-4.8-7.8-20.9-.4-.9-1.8-4.8-2.4-6.4-1.6-4-3.8,10.1v.3c-.1,0-1.9,4.7-1.9,4.7l-.4,1-3.2,8.5-4.6,12.3-1.9,5.2-1.9,5c-.2.5-.4,1-.5,1.6,0,0,0,0,0,0-1.1,3.3-2,6.6-2.8,10-.3,1.3-.5,2.5-.8,3.8-.9,5-1.5,10.2-1.8,15.5h0c0,.9,0,1.7,0,2.6,0,.7,0,1.5,0,2.2,0,6.7.6,13.2,1.8,19.6,0,.2,0,.5.1.7,1.4,7.3,3.5,14.4,6.3,21.1,2.2,5.2,4.7,10.2,7.6,15,1.2-1.6,2.3-3.2,3.4-4.9-1.9-3.3-3.6-6.6-5.1-10.1-3-6.9-5.3-14.2-6.8-21.8-1.2-6.3-1.9-12.9-1.9-19.6s0-1.5,0-2.2c.1-7.5,1.1-14.8,2.8-21.8,1.8-7.6,4.5-14.9,7.9-21.8,1-1.9,2-3.8,3-5.7,1.4-2.5,2.9-4.9,4.6-7.2,0,0,0,0,0,0,2.8,4.1,5.4,8.4,7.6,12.9,1.4,2.8,2.7,5.7,3.8,8.7,0,0,0,.1,0,.2.1.3.2.7.4,1,.1.3.2.7.4,1,0,.1,0,.2.1.3,1.2,3.5,2.3,7.1,3.2,10.7,1.7,7,2.6,14.3,2.8,21.8,0,.7,0,1.5,0,2.2,0,6.7-.6,13.2-1.9,19.6-1.5,7.6-3.7,14.9-6.8,21.8-2.7,6.1-5.9,11.9-9.7,17.4,0,0,0,0,0,0-1.1,1.5-2.1,3-3.3,4.4,0,0,0,0-.1.1-1.3,1.7-2.6,3.3-4,4.8-4.4,5-9.2,9.5-14.5,13.6-1.5,1.1-2.9,2.2-4.4,3.3-5.4,3.8-11.3,7-17.4,9.7-6.3,2.7-12.8,4.9-19.7,6.3l3.3-8.9,2.7-7.2,8.2-21.8,5.5-14.6,2.7-7.2,8.2-21.8,3.4-9.2c-.3-3.4-.5-6.9-.5-10.4s0-1.5,0-2.2h-.5l-8.2,21.8-5.2,13.8-3,8-16.4,43.6-2.4,6.4-.8,2.2-3.2,8.5-1.1,2.8-.7,1.8-.5,1.5c2.1-.2,4.2-.6,6.3-.9ZM287.4,478c4.8-6.7,8.8-14.1,12-21.8,2.6-6.2,4.5-12.8,5.9-19.5.2-.8.3-1.5.4-2.3,1.1-6.2,1.7-12.7,1.7-19.3s0-1.7,0-2.6c0-.6,0-1.2,0-1.8l.7,1.8,8.2,21.8,8.2,21.8,2.7,7.3,5.5,14.5,8.2,21.8,6,16c-6.8-1.5-13.4-3.6-19.6-6.3-6.1-2.7-11.9-5.9-17.3-9.7-1.5-1.1-3-2.2-4.5-3.3-6.8-5.3-12.9-11.3-18.2-18.1.1-.1.2-.3.3-.4Z"/>
  <path class="st0" d="M522.1,348.9c-.2-.9-.3-1.8-.5-2.7-1.4-6.6-3.3-13-5.8-19.1-3.2-7.8-7.2-15.1-12-21.8-1.3-1.8-2.6-3.5-4-5.2-3.7-4.6-7.8-8.9-12.2-12.9-1.4-1.3-2.9-2.5-4.4-3.7-.1,0-.2-.2-.3-.3,6.2-5,11.9-10.7,16.9-17,1.2-1.5,2.3-3,3.5-4.6,4.8-6.7,8.9-14.1,12.1-21.8,2.8-6.7,4.9-13.7,6.3-21,0-.3.1-.5.1-.8,0,0,0,0,0,0,.4-2.1.7-4.2,1-6.4l-1.1.4h0c0,0-4.6,1.8-4.6,1.8l-11.2,4.2-6,2.3-43.6,16.4-8.4,3.2-13.4,5-21.8,8.2-21.8,8.2-1,.4-9.5,3.6s0,0,0,0l-6.5,2.5-4.8,1.8-20.9,7.8-.9.4-4.8,1.8-6.4,2.4-4,1.6,10.1,3.8h.3c0,.1,4.7,1.9,4.7,1.9l1,.4,8.5,3.2,12.3,4.6,5.2,1.9,5,1.9c.5.2,1,.4,1.6.5,0,0,0,0,0,0,3.3,1.1,6.6,2,10,2.8,1.3.3,2.5.5,3.8.8,5,.9,10.2,1.5,15.5,1.8h0c.9,0,1.7,0,2.6,0,.7,0,1.5,0,2.2,0,6.7,0,13.2-.6,19.6-1.8.2,0,.5,0,.7-.1,7.3-1.4,14.4-3.5,21.1-6.3,5.2-2.2,10.2-4.7,15-7.6-1.6-1.2-3.2-2.3-4.9-3.4-3.3,1.9-6.6,3.6-10.1,5.1-6.9,3-14.2,5.3-21.8,6.8-6.3,1.2-12.9,1.9-19.6,1.9-.7,0-1.5,0-2.2,0-7.5-.1-14.8-1.1-21.8-2.8-7.6-1.8-14.9-4.5-21.8-7.9-1.9-1-3.8-2-5.7-3-2.5-1.4-4.9-2.9-7.2-4.6,0,0,0,0,0,0,4.1-2.8,8.4-5.4,12.9-7.6,2.8-1.4,5.7-2.7,8.7-3.8,0,0,.1,0,.2,0,.3-.1.7-.2,1-.4.3-.1.7-.2,1-.4.1,0,.2,0,.3-.1,3.5-1.2,7.1-2.3,10.7-3.2,7-1.7,14.3-2.6,21.8-2.8.7,0,1.5,0,2.2,0,6.7,0,13.2.6,19.6,1.9,7.6,1.5,14.9,3.7,21.8,6.8,6.1,2.7,11.9,5.9,17.4,9.7,0,0,0,0,0,0,1.5,1.1,3,2.1,4.4,3.3,0,0,0,0,.1.1,1.7,1.3,3.3,2.6,4.8,4,5,4.4,9.5,9.2,13.6,14.5,1.1,1.5,2.2,2.9,3.3,4.4,3.8,5.4,7,11.3,9.7,17.4,2.7,6.3,4.9,12.8,6.3,19.7l-8.9-3.3-7.2-2.7-21.8-8.2-14.6-5.5-7.2-2.7-21.8-8.2-9.2-3.4c-3.4.3-6.9.5-10.4.5-.7,0-1.5,0-2.2,0v.5l21.8,8.2,13.8,5.2,8,3,43.6,16.4,6.4,2.4,2.2.8,8.5,3.2,2.8,1.1,1.8.7,1.5.5c-.2-2.1-.6-4.2-.9-6.3ZM477.9,279.5c-6.7-4.8-14.1-8.8-21.8-12-6.2-2.6-12.8-4.5-19.5-5.9-.8-.2-1.5-.3-2.3-.4-6.2-1.1-12.7-1.7-19.3-1.7-.9,0-1.7,0-2.6,0-.6,0-1.2,0-1.8,0l1.8-.7,21.8-8.2,21.8-8.2,7.3-2.7,14.5-5.5,21.8-8.2,16-6c-1.5,6.8-3.6,13.4-6.3,19.6-2.7,6.1-5.9,11.9-9.7,17.3-1.1,1.5-2.2,3-3.3,4.5-5.3,6.8-11.3,12.9-18.1,18.2-.1-.1-.3-.2-.4-.3Z"/>
  <path class="st0" d="M112.6,381.7c.6.4,1.2.8,1.8,1.2,4.5,3,9.2,5.5,14.1,7.5,6.2,2.6,12.6,4.5,19.2,5.5,1.7.3,3.5.5,5.2.7,4.7.5,9.5.6,14.2.4,1.5,0,3.1-.2,4.6-.4.1,0,.2,0,.3,0-.7,6.4-.7,12.8,0,19.2.2,1.5.4,3,.6,4.5,1.1,6.5,2.9,13,5.5,19.2,2.2,5.3,5,10.5,8.3,15.4.1.2.2.4.4.5,0,0,0,0,0,0,1,1.4,2,2.8,3.1,4.2l.4-.9h0s1.6-3.7,1.6-3.7l3.9-8.7,2.1-4.7,15.4-34,3-6.5,4.7-10.5,7.7-17,7.7-17,.4-.8,3.3-7.4s0,0,0,0l2.3-5.1,1.7-3.7,7.4-16.3.3-.7,1.7-3.8,2.2-5,1.4-3.2-7.9,3.6h-.3c0,.1-3.7,1.8-3.7,1.8l-.8.3-6.6,3-9.6,4.4-4,1.8-3.9,1.8-8.5,3.9-.5.2-15.8,7.2-1.2.5-17,7.7-10.7,4.9-6.3,2.8-34,15.4-5,2.3-1.7.8-6.6,3-2.2,1-1.4.7-1.1.5c1.3,1.1,2.7,2.1,4.1,3ZM201.4,346.4c4.3-4.2,9-7.7,13.9-10.8,5.4-3.3,11-5.9,16.8-7.9,1.6-.5,3.3-1,4.9-1.5,2.2-.6,4.4-1.1,6.7-1.5h0s0,0,0,0c-.7,3.9-1.7,7.8-3,11.6-.8,2.4-1.7,4.7-2.7,7.1,0,0,0,0,0,.1-.1.3-.2.5-.3.8-.1.3-.2.5-.3.8,0,0,0,.2-.1.3-1.3,2.7-2.7,5.3-4.3,7.9-3,4.9-6.6,9.6-10.8,13.9-.4.4-.8.9-1.2,1.3-3.8,3.8-7.9,7.1-12.1,10-5.1,3.5-10.6,6.3-16.2,8.5-5,1.9-10.1,3.4-15.3,4.3,0,0,0,0,0,0h0c.4-2.3.9-4.5,1.5-6.7.8-2.9,1.7-5.8,2.8-8.6,2.2-5.6,5-11.1,8.5-16.2,2.9-4.3,6.3-8.4,10-12.1s.8-.8,1.3-1.2Z"/>
  <path class="st0" d="M378.7,108.5l-.5,1.1-.7,1.4-1,2.2-3,6.6-.8,1.7-2.3,5-15.4,34-2.8,6.3-4.9,10.7-7.7,17-.5,1.2-7.2,15.8-.2.5-3.9,8.5-1.8,3.9-1.8,4-4.4,9.6-3,6.6-.3.8-1.7,3.7v.3c-.1,0-3.7,7.9-3.7,7.9l3.2-1.4,5-2.2,3.8-1.7.7-.3,16.3-7.4,3.7-1.7,5.1-2.3s0,0,0,0l7.4-3.3.8-.4,17-7.7,17-7.7,10.5-4.7,6.5-3,34-15.4,4.7-2.1,8.7-3.9,3.6-1.6h0s.9-.3.9-.3c-1.4-1.1-2.7-2.1-4.2-3.1,0,0,0,0,0,0-.2-.1-.4-.3-.5-.4-4.9-3.3-10.1-6.1-15.4-8.3-6.2-2.6-12.7-4.4-19.2-5.5-1.5-.3-3-.5-4.5-.6-6.4-.7-12.8-.7-19.2,0,0-.1,0-.2,0-.3.2-1.5.3-3.1.4-4.6.3-4.7.1-9.5-.4-14.2-.2-1.7-.4-3.5-.7-5.2-1.1-6.5-2.9-13-5.5-19.2-2-4.9-4.5-9.6-7.5-14.1-.4-.6-.8-1.2-1.2-1.8-1-1.4-2-2.7-3-4.1ZM347.6,200.1c3.8-3.8,7.9-7.1,12.1-10,5.1-3.5,10.6-6.3,16.2-8.5,2.8-1.1,5.7-2,8.6-2.8,2.2-.6,4.4-1.1,6.7-1.5h0s0,0,0,0c-.9,5.2-2.4,10.3-4.3,15.3-2.2,5.6-5,11.1-8.5,16.2-2.9,4.3-6.3,8.4-10,12.1-.4.4-.8.8-1.3,1.2-4.3,4.2-9,7.7-13.9,10.8-2.6,1.6-5.2,3-7.9,4.3,0,0-.2,0-.3.1-.2.1-.5.2-.8.3-.2.1-.5.2-.8.3,0,0,0,0-.1,0-2.3,1-4.7,1.9-7.1,2.7-3.8,1.3-7.7,2.3-11.6,3,0,0,0,0,0,0h0c.4-2.3.9-4.5,1.5-6.7.4-1.6.9-3.3,1.5-4.9,2-5.8,4.6-11.5,7.9-16.8,3-4.9,6.6-9.6,10.8-13.9.4-.4.8-.9,1.2-1.3Z"/>
</svg>