<?xml version="1.0" encoding="UTF-8"?>
<svg id="_图层_1" data-name="图层 1" xmlns="http://www.w3.org/2000/svg" xmlns:xlink="http://www.w3.org/1999/xlink" viewBox="0 0 329.03 460.38">
  <defs>
    <style>
      .cls-1 {
        fill: url(#_未命名的渐变_2);
      }
    </style>
    <linearGradient id="_未命名的渐变_2" data-name="未命名的渐变 2" x1="164.52" y1="455.12" x2="164.52" y2="3.6" gradientUnits="userSpaceOnUse">
      <stop offset="0" stop-color="#4e070b"/>
      <stop offset=".99" stop-color="#dc1d24"/>
    </linearGradient>
  </defs>
  <path class="cls-1" d="M164.59,460.38h-32.88c.12-1.09,3.01-28.17,16.08-54.3,18.15-36.29,46.7-55.48,82.58-55.48s64.43,19.18,82.58,55.48c13.07,26.14,15.96,53.22,16.08,54.3h-32.88c-.02-.22,8.08-22.23-3.36-44.85-14.32-28.32-35.32-42.68-62.41-42.68s-48.09,14.36-62.41,42.68c-11.44,22.62-3.33,44.61-3.36,44.85ZM317.64,43.85h11.37v32.88s-6.68-3.34-25.58-6.33c-17.97,25.85-42.94,39.39-73.08,39.39s-55.1-13.54-73.08-39.39c-18.89,2.99-25.58,6.33-25.58,6.33v-32.88h11.37C134,21.4,131.81.94,131.71,0h32.88c.03.23-7.83,21.58,2.88,43.85h125.79C303.96,21.58,296.1.23,296.13,0h32.88c-.1.94-2.29,21.4-11.37,43.85ZM277.29,67.41c-12.69-.99-28.16-1.65-46.92-1.65s-34.25.66-46.94,1.65c12.66,13.36,28.36,20.11,46.93,20.11s34.27-6.75,46.93-20.11ZM109.95,361.73c0-38.45-25.66-57.69-48.3-74.67-21.14-15.85-39.56-29.54-39.56-56.86s18.43-41.01,39.56-56.86c22.64-16.98,48.3-36.22,48.3-74.67C109.95,24.85,4.55,1,.17,0v32.88c.9.21,87.52,9.71,87.52,65.77,0,27.32-18.26,41.01-39.39,56.86C25.66,172.49,0,191.74,0,230.19s25.66,57.69,48.3,74.67c21.14,15.85,39.39,29.54,39.39,56.86C87.69,417.8,1.06,427.29.17,427.49v32.88c4.38-1.01,109.78-24.87,109.78-98.65ZM219.4,219.23h-34.78l144.41-65.73-.02-.04v-32.88s-21.92,10.96-98.64,10.96-98.66-10.96-98.66-10.96v32.88h144.48l-144.48,65.76h0s0,0,0,0v32.88s19.82-9.9,87.69-10.88v65.69h-87.69v32.88s21.92-10.96,98.65-10.96,98.65,10.96,98.65,10.96v-32.88h-87.69v-65.69c67.89.98,87.69,10.89,87.69,10.89v-43.85s-21.92,10.96-98.65,10.96h-10.96Z"/>
</svg>