<?xml version="1.0" encoding="UTF-8"?>
<svg id="_图层_1" data-name="图层_1" xmlns="http://www.w3.org/2000/svg" version="1.1" xmlns:xlink="http://www.w3.org/1999/xlink" viewBox="0 0 566.9 566.9">
  <!-- Generator: Adobe Illustrator 29.0.0, SVG Export Plug-In . SVG Version: 2.1.0 Build 186)  -->
  <defs>
    <style>
      .st0 {
        fill: url(#_未命名的渐变_112);
      }

      .st1 {
        fill: url(#_未命名的渐变_137);
      }

      .st2 {
        fill: url(#_未命名的渐变_173);
      }

      .st3 {
        fill: url(#_未命名的渐变_148);
      }

      .st4 {
        fill: url(#_未命名的渐变_15);
      }

      .st5 {
        fill: url(#_未命名的渐变_1865);
      }

      .st6 {
        fill: url(#_未命名的渐变_1859);
      }

      .st7 {
        fill: url(#_未命名的渐变_3681);
      }

      .st8 {
        fill: url(#_未命名的渐变_3);
      }

      .st9 {
        fill: url(#_未命名的渐变_3682);
      }

      .st10 {
        fill: url(#_未命名的渐变_102);
      }

      .st11 {
        fill: url(#_未命名的渐变_368);
      }

      .st12 {
        fill: url(#_未命名的渐变_16);
      }

      .st13 {
        fill: url(#_未命名的渐变_1855);
      }
    </style>
    <linearGradient id="_未命名的渐变_3" data-name="未命名的渐变 3" x1="438.9" y1="475.6" x2="330.9" y2="290.7" gradientUnits="userSpaceOnUse">
      <stop offset="0" stop-color="#12553a"/>
      <stop offset=".3" stop-color="#427b5f"/>
      <stop offset="1" stop-color="#bfdfbe"/>
    </linearGradient>
    <linearGradient id="_未命名的渐变_102" data-name="未命名的渐变 102" x1="131.3" y1="127.9" x2="213.1" y2="200.3" gradientUnits="userSpaceOnUse">
      <stop offset="0" stop-color="#d38fb4"/>
      <stop offset=".2" stop-color="#d9a2b9"/>
      <stop offset=".7" stop-color="#ebd6c8"/>
      <stop offset="1" stop-color="#f5f2d0"/>
    </linearGradient>
    <linearGradient id="_未命名的渐变_15" data-name="未命名的渐变 15" x1="250.5" y1="78.1" x2="275.6" y2="194.5" gradientUnits="userSpaceOnUse">
      <stop offset="0" stop-color="#e52253"/>
      <stop offset=".2" stop-color="#dd495f"/>
      <stop offset=".8" stop-color="#cbab7e"/>
      <stop offset="1" stop-color="#c2dc8e"/>
    </linearGradient>
    <linearGradient id="_未命名的渐变_16" data-name="未命名的渐变 16" x1="322.8" y1="200.8" x2="417.1" y2="118.5" gradientUnits="userSpaceOnUse">
      <stop offset="0" stop-color="#f09eb9"/>
      <stop offset=".1" stop-color="#ec96b2"/>
      <stop offset=".3" stop-color="#e282a0"/>
      <stop offset=".6" stop-color="#d26182"/>
      <stop offset=".9" stop-color="#bc3459"/>
      <stop offset="1" stop-color="#b01a42"/>
    </linearGradient>
    <linearGradient id="_未命名的渐变_148" data-name="未命名的渐变 148" x1="80.4" y1="258.8" x2="207.2" y2="258.8" gradientUnits="userSpaceOnUse">
      <stop offset="0" stop-color="#e95866"/>
      <stop offset=".2" stop-color="#ea676f"/>
      <stop offset=".5" stop-color="#ee9187"/>
      <stop offset=".9" stop-color="#f5d4ae"/>
      <stop offset="1" stop-color="#f7e4b8"/>
    </linearGradient>
    <linearGradient id="_未命名的渐变_137" data-name="未命名的渐变 137" x1="138.2" y1="409.4" x2="219.2" y2="322.4" gradientUnits="userSpaceOnUse">
      <stop offset="0" stop-color="#834998"/>
      <stop offset="1" stop-color="#f1ec5a"/>
    </linearGradient>
    <linearGradient id="_未命名的渐变_112" data-name="未命名的渐变 112" x1="308.4" y1="266.9" x2="467.3" y2="233.4" gradientUnits="userSpaceOnUse">
      <stop offset="0" stop-color="#d1e8dd"/>
      <stop offset="1" stop-color="#00456e"/>
    </linearGradient>
    <linearGradient id="_未命名的渐变_1855" data-name="未命名的渐变 1855" x1="304.5" y1="465.2" x2="290.3" y2="317.5" gradientUnits="userSpaceOnUse">
      <stop offset="0" stop-color="#057d82"/>
      <stop offset=".3" stop-color="#2c9288"/>
      <stop offset="1" stop-color="#8fc997"/>
      <stop offset="1" stop-color="#93cc98"/>
    </linearGradient>
    <linearGradient id="_未命名的渐变_1865" data-name="未命名的渐变 1865" x1="264.8" y1="253" x2="335.5" y2="214.4" gradientUnits="userSpaceOnUse">
      <stop offset="0" stop-color="#61b6e6"/>
      <stop offset=".3" stop-color="#94c8a8"/>
      <stop offset=".6" stop-color="#bcd777"/>
      <stop offset=".9" stop-color="#d5e05a"/>
      <stop offset="1" stop-color="#dfe44f"/>
    </linearGradient>
    <linearGradient id="_未命名的渐变_1859" data-name="未命名的渐变 1859" x1="257" y1="265.5" x2="261.6" y2="349.7" gradientUnits="userSpaceOnUse">
      <stop offset="0" stop-color="#de5467"/>
      <stop offset=".2" stop-color="#df6e67"/>
      <stop offset=".7" stop-color="#e4c567"/>
      <stop offset="1" stop-color="#e7e867"/>
    </linearGradient>
    <linearGradient id="_未命名的渐变_173" data-name="未命名的渐变 173" x1="176.6" y1="212.1" x2="252.7" y2="256.4" gradientUnits="userSpaceOnUse">
      <stop offset="0" stop-color="#dee352"/>
      <stop offset=".2" stop-color="#ddce47"/>
      <stop offset=".7" stop-color="#dd9a2c"/>
      <stop offset="1" stop-color="#dd771b"/>
    </linearGradient>
    <linearGradient id="_未命名的渐变_368" data-name="未命名的渐变 368" x1="214.6" y1="284.1" x2="238.2" y2="270.2" gradientUnits="userSpaceOnUse">
      <stop offset="0" stop-color="#fff000"/>
      <stop offset=".3" stop-color="#f7be06"/>
      <stop offset=".8" stop-color="#ed720f"/>
      <stop offset="1" stop-color="#e95513"/>
    </linearGradient>
    <linearGradient id="_未命名的渐变_3681" data-name="未命名的渐变 368" x1="257.4" y1="211.4" x2="257.2" y2="237.8" xlink:href="#_未命名的渐变_368"/>
    <linearGradient id="_未命名的渐变_3682" data-name="未命名的渐变 368" x1="298.7" y1="282" x2="276.9" y2="268.6" xlink:href="#_未命名的渐变_368"/>
  </defs>
  <path class="st8" d="M308,285c115.2,17.3,140.4,75.5,111.4,242.3-.3,1.7-2.9,1.6-2.9-.2-4.1-84.6-16.7-176.3-109.5-239.4-1.3-.9-.5-2.9,1-2.7Z"/>
  <path class="st10" d="M129.9,125.5c62.1,18.9,79.6,23.7,85.2,69.3,4,33-69.4,9.3-85.2-69.3Z"/>
  <path class="st4" d="M258.3,71.5c36.6,61.1,47.3,77.8,18,118.9-21.2,29.7-63.5-43.6-18-118.9Z"/>
  <path class="st12" d="M419.2,112.5c-24.8,67.1-31.1,85.9-87.7,92-41,4.4-10-75,87.7-92Z"/>
  <path class="st3" d="M80.4,262.9c63.1-33.7,80.4-43.6,120.4-12.7,29,22.3-46.6,61.1-120.4,12.7Z"/>
  <path class="st1" d="M133.9,420.7c17.5-71.6,21.8-91.6,77-103.1,39.9-8.3,17.6,76.5-77,103.1Z"/>
  <path class="st0" d="M309.6,266.4c67.5-25.5,95-55.7,121.2-44.5,25.8,11.1,71.7,27.9,44.7,34.6-51.5,12.8-166.9,22.7-165.9,9.9Z"/>
  <path class="st13" d="M288,300.2c19,67.7,46.8,92.1,32.1,122.6-12.1,25.1-37.7,69.7-41.2,42.3-6.7-52.3-3.4-167.3,9.1-164.9Z"/>
  <path class="st5" d="M278.1,223.7c-17.7,10.9-20.5,28.7-17.5,33.5s20.1,10.4,37.9-.5c23.7-14.5,41.6-48.2,41.6-48.2,0,0-38.4.8-62,15.3Z"/>
  <path class="st6" d="M278,293.8c-.4-20.7-14.5-32.1-20-32-5.5.1-19.2,12-18.8,32.8.5,27.7,20.6,60.1,20.6,60.1,0,0,18.8-33.4,18.3-60.9Z"/>
  <path class="st2" d="M217,258c18.2,10,35.2,3.6,37.9-1.3,2.7-4.8-.9-22.6-19.1-32.6-24.4-13.4-62.6-12.3-62.6-12.3,0,0,19.6,32.9,43.8,46.2Z"/>
  <path class="st11" d="M240.8,269.7c-3.9,5.4-7.2,12.6-8.3,21.5-.1.8-.9,1.3-1.6,1.1-4.8-1.6-9.5-3.7-13.9-6.3-2.1-1.2-3.4-3.3-3.4-5.7,0-4.8.6-9.6,1.6-14.3.2-.8,1-1.2,1.7-.9,8.4,3.1,16.3,3.5,22.8,2.6,1.1-.1,1.8,1,1.2,1.9Z"/>
  <path class="st7" d="M271.4,220.9c-6.3,5.3-10.4,11.4-12.9,17.1-.4,1-1.8,1-2.2,0-2.6-5.5-6.8-11.3-13.1-16.4-.6-.5-.7-1.4,0-1.9,3.7-3.2,7.7-6,12.1-8.5,0,0,0,0,0,0,1.6-.9,3.6-.9,5.2,0,3.8,2.2,7.5,4.9,10.9,7.8.6.5.6,1.4,0,1.9Z"/>
  <path class="st9" d="M300.9,281.4c0,1.8-1.1,3.5-2.7,4.5,0,0,0,0,0,0-3.9,2.2-8,4.1-12.1,5.5-.7.3-1.5-.2-1.7-1-1.4-8.6-4.7-15.6-8.5-20.8-.6-.8,0-2,1.1-2,6.1.4,13.2-.5,20.6-3.4.7-.3,1.6.1,1.7.9,1.1,5.4,1.6,10.9,1.6,16.3Z"/>
</svg>