<?xml version="1.0" encoding="UTF-8"?>
<svg id="_图层_1" data-name="图层 1" xmlns="http://www.w3.org/2000/svg" viewBox="0 0 480.98 311.67">
  <defs>
    <style>
      .cls-1 {
        fill: #3e3a39;
      }

      .cls-2 {
        fill: #036eb7;
      }
    </style>
  </defs>
  <path class="cls-1" d="M480.98,144.87c0,8.15-.4,16.2-1.2,24.15-.81,8.17-2.03,16.23-3.64,24.14-1.67,8.21-3.74,16.26-6.22,24.15-2.59,8.24-5.61,16.3-9.04,24.14-1.29,2.96-2.64,5.88-4.05,8.78-2.54,5.23-5.27,10.36-8.17,15.37-4.84,8.38-10.17,16.45-15.97,24.14h0v.02c-.69.92-1.39,1.82-2.09,2.73-.02,0-.03.03-.03.04-.49.62-.95,1.22-1.44,1.83-2.21,2.31-5.31,3.75-8.75,3.75-3.24,0-6.17-1.27-8.34-3.34l-1.4-1.61-2.09-2.4-.91-1.03-2.78-3.18-18.32-20.96-2.14-2.44-18.98-21.71-5.16-5.9-15.95-18.24-8.2-9.37-12.92-14.78,12.92,8.55,23.58,15.6.57.38,24.14,15.97,11.79,7.8,10,6.61s.03.02.04.03c.56.42,1.15.81,1.75,1.17l.57.38v-.05c2.9,1.61,6.23,2.51,9.78,2.51,5.61,0,10.69-2.27,14.36-5.95,1.27-1.27,2.36-2.69,3.25-4.25.03-.03.04-.07.06-.11.07-.11.13-.22.19-.33.05-.1.1-.2.15-.31.05-.07.09-.15.12-.23,4.12-7.64,7.85-15.51,11.15-23.61,3.21-7.86,6.02-15.91,8.41-24.15.28-.94.55-1.88.81-2.84,1.95-6.98,3.59-14.09,4.92-21.31,1.46-7.92,2.55-15.97,3.23-24.15.58-6.92.88-13.92.88-20.99,0-1.05,0-2.1-.02-3.15-.1-8.15-.6-16.2-1.47-24.15-.89-8.17-2.19-16.23-3.86-24.14-1.06-5.06-2.29-10.07-3.67-15.01-.85-3.07-1.76-6.12-2.73-9.14-2.64-8.24-5.71-16.3-9.17-24.14-3.65-8.29-7.74-16.33-12.25-24.11v-.04h0c5.79,7.7,11.13,15.77,15.97,24.15,2.91,5.01,5.63,10.13,8.17,15.36,1.4,2.9,2.76,5.82,4.05,8.78,3.43,7.84,6.45,15.9,9.04,24.15,2.48,7.88,4.55,15.93,6.22,24.14,1.61,7.91,2.83,15.97,3.64,24.15.79,7.94,1.2,15.99,1.2,24.14Z"/>
  <path class="cls-1" d="M164.26,75.96c0,1.27-.25,2.49-.72,3.59,0,.02,0,.03-.02.05l-.54,1.06s-.02.03-.03.05l-4.25,8.5-.39.79s-.02.02-.03.03c-1.57,2.89-4.07,5.19-7.1,6.53-.97.44-2,.77-3.06.99h0s-.03,0-.04,0l-1.65.24h0l-3.46.5-24.14,3.45-24.15,3.45-24.14,3.45,24.14-9.66,6.04-2.42,18.11-7.25,2.94-1.18s.06-.02.1-.03l.71-.28s.02,0,.02,0c.03,0,.04-.02.06-.03.1-.04.2-.1.3-.15.13-.07.25-.15.38-.24.09-.05.17-.1.25-.17.11-.08.23-.17.33-.26.09-.07.17-.14.26-.23.05-.04.1-.1.15-.15.1-.1.21-.21.31-.32.05-.06.1-.13.15-.19.1-.12.19-.24.28-.38.1-.14.19-.29.27-.44.03-.07.07-.13.1-.2.07-.13.14-.27.19-.41.09-.18.16-.38.21-.57.05-.16.1-.32.13-.49v-.02c.03-.1.04-.19.05-.29.03-.15.05-.3.06-.45.03-.19.03-.38.03-.58s0-.43-.03-.64c-.02-.18-.04-.37-.08-.55-.03-.17-.07-.34-.12-.51,0-.02,0-.03-.02-.06-.03-.09-.05-.17-.09-.25-.03-.13-.09-.27-.15-.4-.06-.16-.14-.31-.22-.47-.08-.14-.16-.28-.25-.41h0c-.1-.17-.2-.32-.32-.47-.11-.16-.24-.3-.37-.44-.1-.11-.22-.23-.33-.33l-53.59-53.59L46.37,0l24.15,14.49,16.1,9.66,8.04,4.82,24.15,14.49,8.04,4.82,31.93,19.16s0,0,0,0l1.77,1.06h0c1.32,1.01,2.36,2.36,2.99,3.93.44,1.09.69,2.28.69,3.52Z"/>
  <path class="cls-2" d="M443.03,110.61l-24.18,2-24.18,2-24.18,1.99-24.19,2.01-17.51,1.45c-2.68.22-4.9-2.02-4.66-4.7.39-4.55.46-9.08.2-13.57-.15-2.69,2.14-4.87,4.82-4.55l17.48,2.05,24.11,2.83,24.1,2.82,24.1,2.83,24.09,2.83Z"/>
  <path class="cls-2" d="M428.64,192.14l-23.42-6.34-23.42-6.34-23.42-6.35-23.43-6.34-16.96-4.59c-2.59-.7-3.92-3.56-2.79-6,1.92-4.14,3.52-8.38,4.8-12.69.77-2.58,3.67-3.85,6.08-2.64l15.74,7.87,21.71,10.86,21.7,10.84,21.7,10.86,21.7,10.85Z"/>
  <path class="cls-1" d="M142.95,144.87v6.78c0,3.51-1.39,6.68-3.66,9.01-.07.08-.14.15-.22.23-.02.02-.04.04-.06.06t-.02.02l-7.92,8.05-12.27,12.47-11.47,11.67-12.68,12.89,6.33-12.89,11.87-24.14,3.89-7.9c.04-.09.09-.18.13-.27.13-.33.21-.7.21-1.08,0-1.56-1.27-2.83-2.82-2.83H28.04c-1.99-.12-3.93-.43-5.81-.89-2.07-.51-4.06-1.2-5.95-2.09l-2.06-1.03-11.94-5.97-.75-.38c-.61-.42-1.08-1.02-1.33-1.73-.09-.24-.15-.5-.17-.76-.02-.13-.03-.26-.03-.4,0-.72.21-1.37.58-1.91,0-.02,0-.03.02-.03l.4-.49s.02-.02.03-.03l.52-.65,2.43-2.99c.03-.05.07-.1.11-.15l.77-.94s.02-.02.02-.03c.03-.03.05-.06.07-.09,3.5-4.09,7.97-7.32,13.05-9.34.31-.11,42.31-15.05,42.31-15.05l-20.13,15.72c-.63.51-1.03,1.3-1.03,2.18,0,1.55,1.27,2.82,2.83,2.82l4.39-.03,5.23-.04,10.52-.08,8.39-.07,24.14-.19,24.15-.19,10.08-.08s.02,0,.03,0l1.96-.02c6.72.44,12.03,6.02,12.07,12.84Z"/>
  <path class="cls-1" d="M281.36,203.83c-4.24-7.33-10.35-13.44-17.68-17.68-7.1-4.11-15.35-6.46-24.15-6.46s-17.04,2.36-24.14,6.46c-7.33,4.24-13.44,10.36-17.68,17.68-4.11,7.1-6.46,15.35-6.46,24.15,0,4.17.53,8.22,1.52,12.08h0c1.1,4.28,2.77,8.32,4.93,12.06,4.24,7.33,10.36,13.44,17.69,17.68,7.1,4.11,15.35,6.46,24.14,6.46s17.05-2.36,24.15-6.47c7.33-4.23,13.44-10.35,17.68-17.68,2.15-3.73,3.83-7.78,4.93-12.06h0c.99-3.86,1.52-7.91,1.52-12.08,0-8.8-2.36-17.05-6.46-24.15ZM242.71,251.91c-15.81,2.02-29.12-11.28-27.12-27.09,1.36-10.75,10.04-19.44,20.8-20.8,15.78-1.99,29.07,11.27,27.1,27.06-1.34,10.76-10.02,19.46-20.78,20.83Z"/>
  <path class="cls-1" d="M155.86,193.18l-12.91,18.78-3.68,5.36-16.6,24.14-3.86,5.62-7.81,11.36-4.94,7.17-11.4,16.59-5.19,7.55-12.03,17.5c-.1.16-.21.31-.33.47-1.23,1.65-2.96,2.9-4.96,3.52-.52.17-1.06.29-1.62.36-.43.06-.86.09-1.31.09-2.62,0-4.98-1.02-6.75-2.67-.02-.02-.03-.03-.05-.05-.28-.3-.53-.57-.81-.86-.03-.03-.05-.07-.09-.1-2.21-2.41-4.36-4.86-6.46-7.35-.4-.46-.79-.92-1.18-1.4-.06-.08-.12-.16-.18-.23-2.18-2.78-3.96-5.91-5.23-9.27-1.06-2.8-1.76-5.77-2.08-8.85-.12-1.18-.18-2.38-.18-3.59s.06-2.42.18-3.59c.29-2.82.9-5.53,1.81-8.11.74-2.1,1.67-4.11,2.78-6.01.23-.39.5-.76.79-1.1l35.6-41.18-13,32.95c-.05.16-.1.31-.12.48-.24,1.09-.07,2.37.49,3.52.42.86,1.16,1.55,2.02,1.95,1.88.88,3.76.65,5.14-.26,0,0,0,0,0,0,0,0,.03-.02.03-.03l.86-.72s.03-.03.04-.04t0,0l.07-.05s0,0,0,0l.93-.79s0,0,0,0l10.8-9.16.28-.24,4.04-3.43,19.83-16.83,8.61-7.31,15.53-13.17,12.91-10.96Z"/>
  <path class="cls-2" d="M290.05,105.7v10.38c0,4.11-3.33,7.44-7.44,7.44h-25.43c-2.77,0-5.02,2.25-5.02,5.02v26.43c0,4.11-3.33,7.44-7.44,7.44h-10.37c-4.11,0-7.44-3.33-7.44-7.44v-26.43c0-2.77-2.25-5.02-5.02-5.02h-25.44c-4.11,0-7.44-3.33-7.44-7.44v-10.38c0-4.11,3.33-7.44,7.44-7.44h25.44c2.77,0,5.02-2.25,5.02-5.02v-25.43c0-4.11,3.33-7.44,7.44-7.44h10.37c4.11,0,7.44,3.33,7.44,7.44v25.43c0,2.77,2.25,5.02,5.02,5.02h25.43c4.11,0,7.44,3.33,7.44,7.44Z"/>
  <path class="cls-2" d="M428.64,25.17l-23.42,6.34-23.42,6.34-23.42,6.35-23.43,6.34-16.96,4.59c-2.59.7-3.92,3.56-2.79,6,1.92,4.14,3.52,8.38,4.8,12.69.77,2.58,3.67,3.85,6.08,2.64l15.74-7.87,21.71-10.86,21.7-10.84,21.7-10.86,21.7-10.85Z"/>
</svg>