<?xml version="1.0" encoding="UTF-8"?>
<svg id="_图层_1" data-name="图层 1" xmlns="http://www.w3.org/2000/svg" xmlns:xlink="http://www.w3.org/1999/xlink" viewBox="0 0 566.93 566.93">
  <defs>
    <style>
      .cls-1 {
        fill: #fff;
      }

      .cls-2 {
        fill: url(#_未命名的渐变_2);
      }
    </style>
    <linearGradient id="_未命名的渐变_2" data-name="未命名的渐变 2" x1="98.35" y1="106.24" x2="484.02" y2="475.47" gradientUnits="userSpaceOnUse">
      <stop offset="0" stop-color="#73bc60"/>
      <stop offset="1" stop-color="#2a4b9e"/>
    </linearGradient>
  </defs>
  <rect class="cls-2" x="65.67" y="65.67" width="435.6" height="435.6" rx="76.15" ry="76.15"/>
  <path class="cls-1" d="M285.58,281.28l-.06.06-.23-.23c-12.17-12.18-22.53-24.28-30.79-35.96-1.82-2.58-3.55-5.16-5.15-7.65-6.23-9.75-10.98-19.25-14.1-28.23-4.52-12.98-5.68-24.76-3.45-35.01,2.24-10.3,8.01-18.88,16.71-24.81,9.08-6.19,21.16-9.47,34.95-9.47s25.21,2.93,35.13,8.7c10.33,6.01,18.35,15.05,23.2,26.14,4.71,10.78,6.19,23.18,4.18,34.93l-3.17,18.61,94.44-94.37H129.69l151.34,151.34c.1.11.21.21.32.32l.06-.06.28.28c12.15,12.16,22.49,24.24,30.74,35.91,1.82,2.57,3.55,5.15,5.15,7.65,6.23,9.75,10.98,19.25,14.1,28.23,4.52,12.98,5.68,24.76,3.45,35.01-2.24,10.31-8.01,18.88-16.71,24.81-9.08,6.19-21.16,9.47-34.95,9.47s-25.21-2.93-35.13-8.7c-10.33-6.01-18.35-15.05-23.2-26.14-4.71-10.78-6.19-23.18-4.19-34.93l3.18-18.61-94.44,94.37h307.55l-151.31-151.31c-.12-.12-.23-.23-.35-.35Z"/>
</svg>