<?xml version="1.0" encoding="UTF-8"?>
<svg id="_图层_1" data-name="图层 1" xmlns="http://www.w3.org/2000/svg" xmlns:xlink="http://www.w3.org/1999/xlink" viewBox="0 0 502.77 164.79">
  <defs>
    <style>
      .cls-1 {
        fill: url(#_未命名的渐变_5);
      }
    </style>
    <linearGradient id="_未命名的渐变_5" data-name="未命名的渐变 5" x1="12.94" y1="8.62" x2="493.25" y2="157.23" gradientUnits="userSpaceOnUse">
      <stop offset="0" stop-color="#b2cce0"/>
      <stop offset=".51" stop-color="#6a83b7"/>
      <stop offset="1" stop-color="#223b8e"/>
    </linearGradient>
  </defs>
  <path class="cls-1" d="M423.87,100.53c.76-.97,1.7-1.77,2.8-2.36l.11-.06.06-.04.08-.04.02-.02.11-.06.51-.23.11-.04.02-.02,12.08-5.51,18.1-8.25,3.54-1.62h.02l.76-.32,17.07-7.81.46-.21c3.01-1.45,5.09-4.52,5.09-8.08V28.02h17.97v-10.06h-17.97V0h-26.94v17.97h-35.91V0h-26.94v17.97h-35.89V0h-26.94v17.97h-35.91V0h-26.94v17.97h-35.91V0h-26.94v17.97h-35.91V0h-26.94v17.97h-35.91V0h-26.94v17.97h-35.91V0h-26.94v17.97H0v10.06h17.95v108.74H0v10.08h17.95v17.95h26.94v-17.95h35.91v17.95h26.94v-17.95h35.91v17.95h26.94v-17.95h35.91v17.95h26.94v-17.95h35.91v17.95h26.94v-17.95h35.91v17.95h26.94v-17.95h35.89v17.95h26.94v-17.95h35.91v17.95h26.94v-17.95h17.97v-10.08h-17.97v-38.03c0-3.49-1.98-6.53-4.9-8.02h-.04l-.55-.27s-.08-.02-.11-.04l-6.78-3.11-14.55,6.63-7.11,3.24,1.54.7c.19.08.36.15.55.25,1.16.57,2.19,1.39,2.99,2.4,1.26,1.52,2.02,3.51,2.02,5.66v30.58h-35.91v-30.71c0-2.08.72-4,1.91-5.52ZM421.96,37.02c0-4.97,4.02-8.99,8.97-8.99h17.97c4.95,0,8.97,4.02,8.97,8.99v21.39c0,2.25-.82,4.29-2.17,5.87-.8.93-1.79,1.68-2.9,2.23l-.42.19-12.61,5.75-4.8,2.17-.04.02-.5.23-.11.06c-1.05.42-2.19.65-3.39.65-4.95,0-8.97-4.02-8.97-8.97v-29.59ZM206.49,127.79c0,4.95-4.02,8.97-8.97,8.97h-17.97c-4.95,0-8.97-4.02-8.97-8.97v-27.26h-26.94v36.24h-35.91v-36.24h-26.94v27.26c0,4.95-4.02,8.97-8.97,8.97h-17.95c-4.97,0-8.99-4.02-8.99-8.97V37.02c0-4.97,4.02-8.99,8.99-8.99h17.95c4.95,0,8.97,4.02,8.97,8.99v27.26h26.94V28.02h35.91v38.03c0,3.54,2.06,6.61,5.05,8.08.17.08.32.15.5.21l21.39,9.75,30.02,13.7c.06.02.1.04.13.06.29.11.55.23.82.36.02.02.06.02.1.06,1.09.55,2.02,1.33,2.8,2.27,1.28,1.56,2.04,3.54,2.04,5.7v21.57ZM332.19,127.79c0,4.95-4.02,8.97-8.99,8.97h-17.95c-4.95,0-8.97-4.02-8.97-8.97v-27.26h-26.94v36.24h-35.91v-37.99c0-3.56-2.06-6.63-5.07-8.1-.15-.08-.32-.13-.48-.21l-21.39-9.75-30.02-13.68s-.04-.02-.04-.02l-1.1-.5s-.04-.02-.06-.04c-1.03-.55-1.94-1.31-2.69-2.21-1.16-1.45-1.91-3.24-2-5.22-.02-.15-.02-.3-.02-.46s0-.3.02-.46v-21.13c0-4.97,4.02-8.99,8.97-8.99h17.97c4.95,0,8.97,4.02,8.97,8.99v27.26h26.94V28.02h89.77c4.97,0,8.99,4.02,8.99,8.99v90.78ZM395.02,136.77h-35.89V28.02h35.89v108.74Z"/>
</svg>