<?xml version="1.0" encoding="UTF-8"?>
<svg id="_图层_1" data-name="图层 1" xmlns="http://www.w3.org/2000/svg" xmlns:xlink="http://www.w3.org/1999/xlink" viewBox="0 0 455.17 457.78">
  <defs>
    <style>
      .cls-1 {
        fill: url(#_未命名的渐变_19);
      }
    </style>
    <linearGradient id="_未命名的渐变_19" data-name="未命名的渐变 19" x1="47.89" y1="77.81" x2="399.31" y2="374.24" gradientUnits="userSpaceOnUse">
      <stop offset="0" stop-color="#ff2f00"/>
      <stop offset="1" stop-color="#ff0075"/>
    </linearGradient>
  </defs>
  <path class="cls-1" d="M68.63,174.59c2.22-4.78,1.51-7.01-.51-8.45-2.05-1.45-6.27-2.01-10.22,4.07-1.43-9.32,4.51-14.88,11.76-14.44,9.88.59,11.51,9.9,7.94,16.25,9.02-5.76,15.72-.1,20.97-6.3,4.54-5.38.45-9.73-2.11-10.37-4.14-1.03-6.85,1.4-7.99,4.81-2.05-6.49,2.14-11.37,6.58-12.55,5.29-1.41,11.02.43,14.93,5.9,3.91,5.47,6.16,22.81-16.38,24.72-22.94,1.95-33.94,10.57-38.14,27.83-4.11-16.13,10.97-26.68,13.18-31.46ZM56.21,208.68c10.43-13.44,25.41-14.9,39.89-11.64,12.61,2.84,17.61,10.88,26.54,11.01,13.23.19,14.73-22.58-14.64-26.35-39.01-5.01-50.79,15.45-51.79,26.98ZM453.06,228.9c-1.57,4.61-4.14,8.79-7.77,11.78-6.83,5.6-14.24,8.09-20.57,9.16-7.2,1.23-13.06.63-15.23.63-3.72,0-6.78,1.13-9.34,2.85-7.85,5.21-11.28,16.02-15.39,17.82-2.77,1.2-7.51-1.92-13.32-3.35-5.19-1.28-11.06-2.44-16.72-1.44-.85.15-4.24,1.23-7.87,3.51-4.04,2.54-7.55,6.76-8.88,11.44-1.73,6.12-2.16,8.77-6.76,10.84-1.31.6-3.01.51-4.16.51l-.03.03c-2.83.08-5.21-1.33-7.35-3.32-3.04-2.77-5.55-6.67-8.11-9.11-7.43-7.43-25.98-23.31-51.84-23.31h-.08c-.6-.05-1.23-.08-1.83-.08-1.47,0-2.88.16-4.27.44-.03,0-.08.03-.1.03h-.03c-7.69,1.62-13.87,7.46-15.96,14.97.02-.08.03-.16.04-.24-.37,1.56-.63,2.84-.63,2.84-5.18-.55-10.26-1.26-15.28-2.12-18.24-3.14-35.72-8.45-52.21-15.68-6.46-2.8-12.77-5.91-18.92-9.29v.05c8.03,9.68,16.83,18.69,26.3,26.9v.03c15.23,13.24,32.22,24.5,50.59,33.39.16-.37.29-.73.42-1.1.03-.05.03-.1.05-.16.47-1.31.94-2.64,1.39-3.95.45-1.31.86-2.59,1.28-3.9.34-.99.65-1.99.94-2.98.18-.55.34-1.1.5-1.65.73-2.43,1.41-4.89,2.07-7.35,1.02-3.87,1.94-7.77,2.72-11.72-.1.86-.16,1.75-.16,2.64,0,7.07,3.45,13.29,8.77,17.12,0,.03.03.03.03.03.03.05.05.08.1.08,1.39.99,2.9,1.81,4.5,2.46.05.03.08.03.13.05,5.31,2.59,10.94,4.61,16.83,5.91,1.02.24,2.02.45,3.04.63,2.33.44,4.74.76,7.14.97.99.08,1.99.16,3.01.18.13.03.29.03.44.03,1.07.05,2.17.08,3.27.08h.13c1.23,0,2.46-.03,3.66-.1.99-.03,1.96-.1,2.93-.21.42-.03.84-.05,1.26-.1.84-.08,1.67-.18,2.51-.31,2.02-.26,4-.6,5.94-1.05.31-.05.63-.13.97-.21h.18c4.03,0,7.3,3.27,7.3,7.3,0,2.43-1.07,4.74-2.98,5.89-3.72,2.24-7.93,3.56-12.06,4.95-.71.24-1.41.47-2.12.68-2.56.81-5.18,1.49-7.83,2.07-.84.18-1.7.37-2.56.52-.84.16-1.7.31-2.56.44-.97.18-1.96.31-2.96.45-1.62.21-3.25.37-4.89.52-.08.03-.16.03-.24.03-2.59.21-5.18.31-7.83.31-3.06,0-6.07-.16-9.06-.44-1.52-.13-3.01-.31-4.5-.52-1.47-.21-2.93-.44-4.37-.71h-.05c-.71-.13-1.41-.24-2.12-.39-.34-.03-.71-.05-1.07-.05-6.94,0-12.59,5.63-12.59,12.59,0,6.05,4.27,11.07,9.92,12.3.05,0,.08.03.13.03.5.1.97.18,1.49.21.03,0,.08.03.13.03,5.05.6,10.18.94,15.39.94,35.49,0,67.42-15.18,89.63-39.39,3.48-3.77,6.73-7.77,9.71-11.96l.08-.08c.18-.18.31-.39.42-.65.05-.18.1-.39.1-.63,0-.99-.81-1.81-1.81-1.81h-.16c-.16.03-.31.05-.47.1-.03.03-.05.03-.08.03-.26.03-.52.05-.81.05-2.96,0-5.36-2.41-5.36-5.39,0-1.07.31-2.09.86-2.93.03-.03.03-.05.05-.08.5-.58,1.02-1.07,1.62-1.57l.03-.03c3.43-2.96,7.9-4.74,12.8-4.74,1.05,0,2.04.08,3.04.26,9.45,1.44,16.67,9.6,16.67,19.44,0,2.36-.26,4.7-1.2,6.73-1.06,2.26-2.51,4.27-3.79,6.36,0,.03-.05.05-.05.05-28.42,44.99-78.59,74.87-135.75,74.87-13.53,0-26.67-1.67-39.2-4.84-.5-.16-1.02-.29-1.54-.39-.79-.16-1.6-.24-2.43-.24-7.12,0-12.88,5.76-12.88,12.85,0,5.52,3.45,10.21,8.32,12.04.03.03.08.05.13.03.86.34,1.78.58,2.75.68.03.03.05.03.1.03,13.92,3.35,28.45,5.1,43.39,5.1,72.28,0,134.91-41.27,165.58-101.54,3.4-6.67,6.41-13.58,8.98-20.7.05-.05.08-.13.08-.18.1-.18.18-.37.21-.55.03-.16.05-.34.05-.5,0-1.33-1.07-2.43-2.41-2.43-.13,0-.24,0-.37.03-.1.03-.18.03-.29.08-.44.08-.89.13-1.36.13-4.06,0-7.33-3.27-7.33-7.3,0-1.75.63-3.38,1.67-4.66l.08-.08c.65-.6,1.36-1.18,2.09-1.7,0-.03.03-.03.05-.03,3.93-2.85,8.74-4.53,13.95-4.53h.05c13.29,0,24.05,10.76,24.05,24.02,0,1.65-.19,3.59-.58,5.13-.52,1.73-1.1,3.43-1.73,5.1,0,.08-.03.13-.08.18-31.33,88.95-116.17,152.71-215.86,152.71-38.73,0-75.19-9.63-107.17-26.64-45.96-24.34-82.59-63.96-103.22-112.04,11.44,4.81,23.98,7.48,37.12,7.57,15.24-1.11,32.74-13.81,22.73-34.82-10.08-21.17,7.33-29.18,11.78-38.24,4.42-9.05-1.18-17.05-11.75-16.37,0,0,0-.01.01-.02-.64.15-1.32.14-1.97-.06-14.91-4.66-28.9-8.35-52.98-9.84,14.41-2.55,38.24-1.93,58.71-1.63-31.99-6.61-59.97-3.03-80.24-2.02,8.58-2.28,43.1-11.8,55.72-12.15,13.86,1.04,20.27,4.87,26.55,7.94-6.7-5.93-13.36-9.16-26.06-9.23,2.36-4.16,9.79-10.38,20.61-12.34,8.36-1.52,20.21.91,29.18,5.68,8.33,4.43,12.84,7.75,16.02,14.18,4.02,8.14,2.46,20.16-10.76,37.4-13.49,17.6-7.64,29.52,1.31,32.24,8.21,2.54,21.14-1.91,31.86-20.3,5-11.74,7.79-24.65,7.79-38.22h0c0-15.3-3.54-29.78-9.81-42.68,16.27-11.42,34.05-20.78,53.03-27.66,10.29-3.77,20.91-6.8,31.85-9.03-1.18-3.27-2.49-6.49-3.82-9.68-3.06-7.14-6.44-14.11-10.18-20.86-27.87,16.64-51.9,39.05-70.45,65.58t-.03.05c-.17.44-.34.9-.51,1.34-.06-.13-.12-.26-.18-.39-8.32-16.85-21.36-30.96-37.4-40.56-7.59-4.58-15.83-8.14-24.57-10.49-5.36-1.47-10.93-2.44-16.62-2.96,24.92-33.59,58.84-60.09,98.21-75.93-12.77-10.97-26.77-20.54-41.77-28.5-.73.37-1.44.76-2.17,1.15-26.32,28.64-45.39,64.04-54.4,103.27-2.96-.27-5.94-.45-8.97-.45-13.4,0-26.17,2.7-37.82,7.59,20.62-48.08,57.26-87.7,103.22-112.04C151.8,9.63,188.25,0,226.99,0c99.68,0,184.53,63.75,215.86,152.71.05.05.08.1.08.18.63,1.67,1.2,3.38,1.73,5.1.21.93.58,3.48.58,5.13,0,13.27-10.76,24.02-24.05,24.02h-.05c-5.21,0-10.02-1.67-13.95-4.53-.03,0-.05,0-.05-.03-.73-.52-1.44-1.1-2.09-1.7l-.08-.08c-1.05-1.28-1.67-2.9-1.67-4.66,0-4.03,3.27-7.3,7.33-7.3.47,0,.92.05,1.36.13.1.05.18.05.29.08.13.03.24.03.37.03,1.33,0,2.41-1.1,2.41-2.43,0-.16-.03-.34-.05-.5-.03-.18-.1-.37-.21-.55,0-.05-.03-.13-.08-.18-2.56-7.12-5.57-14.03-8.98-20.7-30.67-60.27-93.3-101.54-165.58-101.54-14.94,0-29.47,1.75-43.39,5.1-.05,0-.08,0-.1.03-.97.1-1.88.34-2.75.68-.05-.03-.1,0-.13.03-4.87,1.83-8.32,6.52-8.32,12.04,0,7.09,5.76,12.85,12.88,12.85.84,0,1.65-.08,2.43-.24.52-.1,1.05-.24,1.54-.39,12.54-3.17,25.67-4.84,39.2-4.84,57.16,0,107.33,29.89,135.75,74.87,0,0,.05.03.05.05,1.28,2.09,2.74,4.1,3.79,6.36.95,2.03,1.2,4.37,1.2,6.73,0,9.84-7.22,18.01-16.67,19.44-.99.18-1.99.26-3.04.26-4.89,0-9.37-1.78-12.8-4.74l-.03-.03c-.6-.5-1.13-.99-1.62-1.57-.03-.03-.03-.05-.05-.08-.55-.84-.86-1.86-.86-2.93,0-2.98,2.41-5.39,5.36-5.39.29,0,.55.03.81.05.03,0,.05,0,.08.03.16.05.31.08.47.1h.16c.99,0,1.81-.81,1.81-1.81,0-.24-.05-.44-.1-.63-.1-.26-.24-.47-.42-.65-.03-.03-.05-.05-.08-.08-2.98-4.19-6.23-8.19-9.71-11.96-22.22-24.21-54.15-39.39-89.63-39.39-5.21,0-10.34.34-15.39.94-.05,0-.1.03-.13.03-.52.03-.99.1-1.49.21-.05,0-.08.03-.13.03-5.65,1.23-9.92,6.25-9.92,12.3,0,6.96,5.65,12.59,12.59,12.59.45,0,.86-.03,1.28-.05.08-.03.16-.03.24-.05.58-.13,1.13-.24,1.7-.34h.03c5.84-1.07,11.83-1.65,17.98-1.65,9,0,17.74,1.22,26.03,3.5,4.99,1.37,9.81,3.12,14.44,5.23.03,0,.05.03.05.03.84.37,1.71.71,2.51,1.18,1.94,1.14,3.01,3.48,3.01,5.91,0,4.03-3.27,7.3-7.3,7.3h-.29s-.08,0-.1-.03c-.76-.21-1.57-.37-2.36-.52-.03,0-.05,0-.1-.03-4.74-.92-9.66-1.41-14.68-1.41-12.12,0-23.58,2.83-33.79,7.85-.24.09-.47.22-.71.33-1,.51-1.99,1.03-2.97,1.58-.29.19-.6.35-.88.55-5.39,3.82-8.92,10.13-8.92,17.25,0,.89.05,1.78.16,2.64.13.99.31,1.96.6,2.9,2.41,8.98,10.63,15.6,20.39,15.6.65,0,1.33-.03,1.99-.08.34-.03.65-.05.99-.1.08,0,.14-.01.24-.05,20.2-2.41,41.64-26.62,66.29-26.62,4.06,0,8.01.63,11.88,1.7,2.46.68,4.89,1.54,7.28,2.56,9.06,3.82,17.67,9.68,26.14,15.31,9.42,6.31,18.66,12.33,28.11,14.92,3.14.89,6.31,1.39,9.53,1.39,6.31,0,10.94-.65,14.5-1.67,11.8-3.35,11.52-10.65,20.54-10.65s12.59,17.46,7.77,31.25ZM213.26,118.93c-.52-.99-1.07-1.96-1.65-2.93-5.68-9.94-12.09-19.44-19.16-28.37l-.03-.03c-2.28-2.9-4.63-5.73-7.04-8.51-6.12-7.01-12.64-13.66-19.58-19.86-1.15-1.07-2.3-2.09-3.48-3.09-3.09,2.96-6.1,5.99-9,9.13-20.99,22.35-37.5,48.97-48.18,78.38.84-.84,1.65-1.67,2.49-2.51,23.71-23.61,52.55-42.06,84.74-53.49-26.64,19.76-48.83,45.2-64.82,74.51,19.39-15.65,41.4-28.19,65.27-36.85,6.67-2.43,13.5-4.58,20.44-6.39ZM85.49,209.56c3.51-.12,11.8.08,7.1-3.19-2.7-1.89-6.95-2.4-12.66.41-5.71,2.82,2.03,2.9,5.56,2.77ZM161.74,402.17c-39.36-15.85-73.26-42.31-98.17-75.88-.06,0-.11.01-.17.02,9.01,39.21,28.08,74.57,54.4,103.22.73.39,1.44.79,2.17,1.15,15-7.96,29-17.53,41.77-28.5ZM213.27,338.86c-6.94-1.81-13.77-3.95-20.44-6.39-23.87-8.66-45.88-21.2-65.27-36.85,15.99,29.31,38.18,54.75,64.82,74.51-32.19-11.44-61.03-29.89-84.74-53.49-.84-.84-1.65-1.67-2.49-2.51,10.68,29.42,27.19,56.03,48.18,78.38,2.9,3.14,5.91,6.18,9,9.13,1.18-.99,2.33-2.02,3.48-3.09,6.94-6.2,13.45-12.85,19.58-19.86,2.41-2.77,4.76-5.6,7.04-8.51l.03-.03c7.07-8.92,13.48-18.42,19.16-28.37.58-.97,1.13-1.94,1.65-2.93ZM142.67,271.76c-.07.15-.15.3-.23.45.12.32.24.65.37.96t.03.05c18.56,26.54,42.58,48.94,70.45,65.58,3.66-6.59,6.96-13.4,9.97-20.36.79-1.83,1.54-3.69,2.25-5.55.63-1.54,1.2-3.09,1.78-4.63-10.94-2.22-21.56-5.26-31.85-9.03-18.89-6.84-36.57-16.15-52.77-27.48ZM236.81,182.87c-.81-3.93-1.73-7.83-2.72-11.67-1.84-6.99-4.01-13.82-6.46-20.53.02-.03.04-.06.05-.09-.12-.32-.22-.66-.34-.98-18.37,8.9-35.38,20.15-50.61,33.39v.03c-9.47,8.22-18.27,17.22-26.3,26.9v.05c.74-.4,1.5-.77,2.24-1.16,0-.02,0-.03,0-.05,1.76-.94,3.55-1.83,5.33-2.73.7-.35,1.39-.72,2.09-1.07,3.02-1.49,6.07-2.93,9.17-4.28,16.49-7.22,33.97-12.54,52.21-15.68,5.05-.89,10.15-1.6,15.34-2.15Z"/>
</svg>